<?xml version="1.0" encoding="UTF-8"?>
<svg width="16px" height="16px" viewBox="0 0 16 16" version="1.1" xmlns="http://www.w3.org/2000/svg" xmlns:xlink="http://www.w3.org/1999/xlink">
    <!-- Generator: Sketch 46.1 (44463) - http://www.bohemiancoding.com/sketch -->
    <title>账号设置</title>
    <desc>Created with Sketch.</desc>
    <defs></defs>
    <g id="Page-1" stroke="none" stroke-width="1" fill="none" fill-rule="evenodd">
        <g id="头像下拉菜单" transform="translate(-927.000000, -152.000000)">
            <g id="Group-18-Copy-2" transform="translate(890.000000, 69.000000)">
                <g id="Group-14" transform="translate(37.000000, 81.000000)">
                    <g id="Group-47" transform="translate(0.000000, 2.000000)">
                        <rect id="Rectangle-30" x="0" y="0" width="16" height="16"></rect>
                        <g id="ICON_系统设置-账号设置" transform="translate(1.000000, 1.000000)" stroke="#474747" stroke-width="0.1" fill="#474747" fill-rule="nonzero">
                            <path d="M13.7280372,10.0181387 L13.2757928,10.2712154 C13.5168459,10.9031062 13.5168459,11.5983255 13.2757928,12.2302164 L13.7280372,12.483293 C13.8846285,12.5630885 13.9837056,12.7200891 13.9860974,12.8922227 C13.9884892,13.0643563 13.8938106,13.2239116 13.7394938,13.3078064 C13.585177,13.3917013 13.3960653,13.3864296 13.2469261,13.2940757 L12.7658149,13.0363124 C12.3249953,13.5529078 11.7088879,13.8987082 11.0290037,14.0111263 L11.0290037,14.5313395 C11.0290037,14.7901735 10.8136029,15 10.5478926,15 C10.2821822,15 10.0667814,14.7901735 10.0667814,14.5313395 L10.0667814,14.0158129 C9.38689727,13.9033948 8.77078985,13.5575944 8.32997018,13.040999 L7.84885904,13.2987623 C7.62040319,13.4151785 7.33834893,13.3354696 7.20932118,13.1180282 C7.08029342,12.9005869 7.15016408,12.6227176 7.36774789,12.4879796 L7.81999238,12.234903 C7.57893926,11.6030121 7.57893926,10.9077928 7.81999238,10.275902 L7.36774789,10.0228253 C7.15016408,9.88808734 7.08029342,9.61021811 7.20932118,9.39277672 C7.33834893,9.17533534 7.62040319,9.0956265 7.84885904,9.21204264 L8.32997018,9.46980592 C8.77078985,8.95321056 9.38689727,8.60741015 10.0667814,8.49499206 L10.0667814,7.97009228 C10.0667814,7.71125823 10.2821822,7.50143177 10.5478926,7.50143177 C10.8136029,7.50143177 11.0290037,7.71125823 11.0290037,7.97009228 L11.0290037,8.48561884 C11.7088879,8.59803694 12.3249953,8.94383735 12.7658149,9.46043271 L13.2469261,9.20266942 C13.3964656,9.11895128 13.5804954,9.11930631 13.7296933,9.20360078 C13.8788912,9.28789525 13.9705904,9.44332283 13.9702489,9.61133544 C13.9699073,9.77934806 13.8775767,9.93442059 13.7280372,10.0181387 L13.7280372,10.0181387 Z M10.5863815,9.37607382 C9.52354006,9.37607382 8.66193687,10.2153797 8.66193687,11.2507159 C8.66193687,12.2860521 9.52354006,13.1253579 10.5863815,13.1253579 C11.6492229,13.1253579 12.510826,12.2860521 12.510826,11.2507159 C12.510826,10.2153797 11.6492229,9.37607382 10.5863815,9.37607382 Z M10.5863815,12.1880369 C10.0549608,12.1880369 9.62415917,11.768384 9.62415917,11.2507159 C9.62415917,10.7330478 10.0549608,10.3133949 10.5863815,10.3133949 C11.1178022,10.3133949 11.5486037,10.7330478 11.5486037,11.2507159 C11.5486037,11.4993089 11.447227,11.7377201 11.2667754,11.9135019 C11.0863237,12.0892837 10.8415787,12.1880369 10.5863815,12.1880369 L10.5863815,12.1880369 Z M7.84404792,6.9109195 C8.1687044,7.0248226 8.48260369,7.16594995 8.78221466,7.33271398 C8.54168491,7.54658492 8.32406889,7.78369334 8.13271462,8.04039135 C7.40131568,7.68272167 6.59365106,7.49807318 5.77527,7.50143175 C3.11953648,7.50143175 0.964158541,9.37607382 0.964158556,11.7193764 C0.964158556,11.9782105 0.748757757,12.1880369 0.483047406,12.1880369 C0.217337055,12.1880369 0.00193625564,11.9782105 0.00193625564,11.7193764 C0.0604510542,9.51190546 1.54697499,7.58242008 3.70649208,6.9109195 C2.26391915,6.01521293 1.60137335,4.29949926 2.08027251,2.699698 C2.55917167,1.09989673 4.06456807,8.41430461e-09 5.77527,8.41430431e-09 C7.48597193,8.414304e-09 8.99136833,1.09989673 9.47026749,2.699698 C9.94916665,4.29949926 9.28662085,6.01521293 7.84404792,6.9109195 Z M5.77527,0.940184546 C4.18100791,0.940184546 2.88860313,2.1991433 2.88860313,3.75214764 C2.88860313,5.30515197 4.18100791,6.56411073 5.77527,6.56411073 C7.36953209,6.56411073 8.66193687,5.30515197 8.66193687,3.75214764 C8.66193687,2.1991433 7.36953209,0.940184546 5.77527,0.940184546 L5.77527,0.940184546 Z" id="Shape"></path>
                        </g>
                    </g>
                </g>
            </g>
        </g>
    </g>
</svg>