<?xml version="1.0" encoding="UTF-8"?>
<svg width="40px" height="40px" viewBox="0 0 40 40" version="1.1" xmlns="http://www.w3.org/2000/svg" xmlns:xlink="http://www.w3.org/1999/xlink">
    <!-- Generator: Sketch 46.1 (44463) - http://www.bohemiancoding.com/sketch -->
    <title>创建新项目-亮</title>
    <desc>Created with Sketch.</desc>
    <defs></defs>
    <g id="Page-2" stroke="none" stroke-width="1" fill="none" fill-rule="evenodd">
        <g id="我的项目-显示1" transform="translate(-843.000000, -544.000000)">
            <g id="Group-16" transform="translate(734.000000, 515.000000)">
                <g id="Group-17" transform="translate(89.000000, 29.000000)">
                    <g id="Group-13" transform="translate(20.000000, 0.000000)">
                        <circle id="Oval-6" fill="#1891F0" cx="20" cy="20" r="20"></circle>
                        <path d="M19.048398,10.9732489 L19.048398,19.0051042 L10.9732489,19.0051042 L10.9732489,19.0051042 C10.4357384,19.0051042 10,19.4408426 10,19.9783531 L10,19.9783531 L10,19.9783531 C10,20.5158636 10.4357384,20.951602 10.9732489,20.951602 L19.048398,20.951602 L19.048398,29.0267511 L19.048398,29.0267511 C19.048398,29.5642616 19.4841364,30 20.0216469,30 L20.0216469,30 L20.0216469,30 C20.5591574,30 20.9948958,29.5642616 20.9948958,29.0267511 L20.9948958,20.951602 L29.0267511,20.951602 L29.0267511,20.951602 C29.5642616,20.951602 30,20.5158636 30,19.9783531 L30,19.9783531 L30,19.9783531 C30,19.4408426 29.5642616,19.0051042 29.0267511,19.0051042 L20.9948958,19.0051042 L20.9948958,10.9732489 L20.9948958,10.9732489 C20.9948958,10.4357384 20.5591574,10 20.0216469,10 L20.0216469,10 L20.0216469,10 C19.4841364,10 19.048398,10.4357384 19.048398,10.9732489 Z" id="+" stroke="#FFFFFF" stroke-width="0.769230769" fill="#FFFFFF"></path>
                    </g>
                </g>
            </g>
        </g>
    </g>
</svg>