<?xml version="1.0" encoding="UTF-8"?>
<svg width="71px" height="71px" viewBox="0 0 71 71" version="1.1" xmlns="http://www.w3.org/2000/svg" xmlns:xlink="http://www.w3.org/1999/xlink">
    <!-- Generator: Sketch 46.1 (44463) - http://www.bohemiancoding.com/sketch -->
    <title>飞船</title>
    <desc>Created with Sketch.</desc>
    <defs>
        <path d="M13.5578947,52.8 C23.1872386,52.6912565 26.1473684,37.9569228 26.1473684,23.3766054 C26.1473684,8.79628805 21.0457132,0 13.5578947,0 C6.07007623,0 0,8.79628805 0,23.3766054 C0,37.9569228 3.92855088,52.9087435 13.5578947,52.8 Z" id="path-1"></path>
        <ellipse id="path-3" cx="18.8842105" cy="13.44" rx="18.8842105" ry="13.44"></ellipse>
    </defs>
    <g id="切图" stroke="none" stroke-width="1" fill="none" fill-rule="evenodd">
        <g id="首页" transform="translate(-1139.000000, -374.000000)">
            <g id="Group-42" transform="translate(1125.000000, 359.000000)">
                <g id="Group-21" transform="translate(51.500000, 51.500000) rotate(-45.000000) translate(-51.500000, -51.500000) translate(28.000000, 3.000000)">
                    <g id="Group-20" transform="translate(13.557895, 55.200000)">
                        <path d="M9.44210526,40.8 C15.7368421,26.8463476 18.8842105,17.5130737 18.8842105,12.8001782 C18.8842105,5.73083498 14.656836,0 9.44210526,0 C4.22737452,0 0,5.73083498 0,12.8001782 C0,17.5130737 3.14736842,26.8463476 9.44210526,40.8 Z" id="Oval-2" fill="#FFFBE7"></path>
                        <path d="M9.68421053,34.08 C14.2035088,22.4245962 16.4631579,14.6285674 16.4631579,10.6919136 C16.4631579,4.78693275 13.4281198,0 9.68421053,0 C5.94030128,0 2.90526316,4.78693275 2.90526316,10.6919136 C2.90526316,14.6285674 5.16491228,22.4245962 9.68421053,34.08 Z" id="Oval-2" fill="#F7C216"></path>
                    </g>
                    <g id="Group-18" transform="translate(0.164426, 0.317004)">
                        <rect id="Rectangle-42" fill="#5CC7FF" x="17.4315789" y="46.08" width="10.1684211" height="11.52" rx="5.08421053"></rect>
                        <rect id="Rectangle-43" fill="#0C59AA" x="8.23157895" y="42.24" width="28.5684211" height="4.8"></rect>
                        <g id="Oval-3" transform="translate(9.200000, 0.000000)">
                            <mask id="mask-2" fill="white">
                                <use xlink:href="#path-1"></use>
                            </mask>
                            <use id="Mask" fill="#176EC9" xlink:href="#path-1"></use>
                            <g id="Group-22" mask="url(#mask-2)">
                                <g transform="translate(-5.326316, -9.600000)">
                                    <mask id="mask-4" fill="white">
                                        <use xlink:href="#path-3"></use>
                                    </mask>
                                    <use id="Oval-3" stroke="none" fill="#5CC7FF" fill-rule="evenodd" xlink:href="#path-3"></use>
                                </g>
                            </g>
                        </g>
                        <ellipse id="Oval-4" fill="#B7E8EC" cx="22.7578947" cy="24.48" rx="3.87368421" ry="3.84"></ellipse>
                        <ellipse id="Oval-4-Copy" fill="#B7E8EC" cx="22.7578947" cy="34.56" rx="2.90526316" ry="2.88"></ellipse>
                        <ellipse id="Oval-4-Copy-2" fill="#B7E8EC" cx="22.7578947" cy="43.2" rx="2.42105263" ry="2.4"></ellipse>
                        <g id="Group-17" transform="translate(5.821193, 43.245616) rotate(-15.000000) translate(-5.821193, -43.245616) translate(1.821193, 35.745616)">
                            <ellipse id="Oval-5" fill="#B7E8EC" cx="3.87368421" cy="3.84" rx="3.87368421" ry="3.84"></ellipse>
                            <path d="M0.968421053,7.2 L6.77894737,7.2 L6.54384691,11.8611222 L6.54384691,11.8611222 C6.47210258,13.2835314 5.29790162,14.4 3.87368421,14.4 L3.87368421,14.4 L3.87368421,14.4 C2.4494668,14.4 1.27526584,13.2835314 1.20352151,11.8611222 L0.968421053,7.2 Z" id="Rectangle-44-Copy" fill="#B7E8EC"></path>
                            <path d="M0,3.36 C1.29122807,4 2.58245614,4.32 3.87368421,4.32 C5.16491228,4.32 6.45614035,4 7.74736842,3.36 L7.40795949,9.75269353 L7.40795949,9.75269353 C7.32677509,11.2817839 6.06325415,12.48 4.53201013,12.48 L3.21535829,12.48 L3.21535829,12.48 C1.68411427,12.48 0.420593328,11.2817839 0.339408936,9.75269353 L0,3.36 Z" id="Rectangle-44" fill="#5CC7FF"></path>
                        </g>
                        <g id="Group-17-Copy" transform="translate(39.316615, 43.245616) scale(-1, 1) rotate(-15.000000) translate(-39.316615, -43.245616) translate(35.316615, 35.745616)">
                            <ellipse id="Oval-5" fill="#B7E8EC" cx="3.87368421" cy="3.84" rx="3.87368421" ry="3.84"></ellipse>
                            <path d="M0.968421053,7.2 L6.77894737,7.2 L6.54384691,11.8611222 L6.54384691,11.8611222 C6.47210258,13.2835314 5.29790162,14.4 3.87368421,14.4 L3.87368421,14.4 L3.87368421,14.4 C2.4494668,14.4 1.27526584,13.2835314 1.20352151,11.8611222 L0.968421053,7.2 Z" id="Rectangle-44-Copy" fill="#B7E8EC"></path>
                            <path d="M0,3.36 C1.29122807,4 2.58245614,4.32 3.87368421,4.32 C5.16491228,4.32 6.45614035,4 7.74736842,3.36 L7.40795949,9.75269353 L7.40795949,9.75269353 C7.32677509,11.2817839 6.06325415,12.48 4.53201013,12.48 L3.21535829,12.48 L3.21535829,12.48 C1.68411427,12.48 0.420593328,11.2817839 0.339408936,9.75269353 L0,3.36 Z" id="Rectangle-44" fill="#5CC7FF"></path>
                        </g>
                    </g>
                </g>
            </g>
        </g>
    </g>
</svg>