<?xml version="1.0" encoding="UTF-8"?>
<svg width="16px" height="16px" viewBox="0 0 16 16" version="1.1" xmlns="http://www.w3.org/2000/svg" xmlns:xlink="http://www.w3.org/1999/xlink">
    <!-- Generator: Sketch 46.1 (44463) - http://www.bohemiancoding.com/sketch -->
    <title>目录权限-灰</title>
    <desc>Created with Sketch.</desc>
    <defs></defs>
    <g id="Page-1" stroke="none" stroke-width="1" fill="none" fill-rule="evenodd">
        <g id="成员-项目成员勾选&amp;移动至ICON显示效果" transform="translate(-328.000000, -86.000000)">
            <g id="Group-19" transform="translate(210.000000, 84.000000)">
                <g id="Group-18" transform="translate(118.000000, 0.000000)">
                    <g id="Group-14-Copy">
                        <g id="Group-15" transform="translate(0.000000, 2.000000)">
                            <rect id="Rectangle-9" x="0" y="0" width="16" height="16"></rect>
                            <g id="目录" transform="translate(1.000000, 1.000000)" fill-rule="nonzero" fill="#808080">
                                <path d="M11.7528096,3.8851229 C11.7528096,4.2210143 11.480818,4.49329379 11.1453015,4.49329379 L5.50557322,4.49329379 C5.1700567,4.49329379 4.89808109,4.22099829 4.89808109,3.8851229 C4.89808109,3.54923151 5.17007269,3.27693601 5.50557322,3.27693601 L11.1453015,3.27693601 C11.480818,3.27695202 11.7528096,3.54924751 11.7528096,3.8851229 L11.7528096,3.8851229 Z M11.7528096,6.83510543 C11.7528096,7.17099683 11.480818,7.44327632 11.1453015,7.44327632 L5.50557322,7.44327632 C5.1700567,7.44327632 4.89808109,7.17098083 4.89808109,6.83510543 C4.89808109,6.49921404 5.17007269,6.22691855 5.50557322,6.22691855 L11.1453015,6.22691855 C11.480818,6.22691855 11.7528096,6.49921404 11.7528096,6.83510543 L11.7528096,6.83510543 Z M11.7528096,9.78507196 C11.7528096,10.1209634 11.480818,10.3932429 11.1453015,10.3932429 L5.50557322,10.3932429 C5.1700567,10.3932429 4.89808109,10.1209474 4.89808109,9.78507196 C4.89808109,9.44918057 5.17007269,9.17688507 5.50557322,9.17688507 L11.1453015,9.17688507 C11.480818,9.17690108 11.7528096,9.44918057 11.7528096,9.78507196 L11.7528096,9.78507196 Z" id="Shape"></path>
                                <path d="M3.17807927,2.89619294 C2.67558795,2.89619294 2.26682509,3.30541251 2.26682509,3.80846527 C2.26682509,4.31151802 2.67558795,4.7207376 3.17807927,4.72073759 C3.68057058,4.72073757 4.08933344,4.31151801 4.08933344,3.80846527 C4.08933344,3.30541253 3.68057058,2.89619294 3.17807927,2.89619294 Z M3.17807927,5.84622349 C2.67558795,5.84622349 2.26682509,6.25544307 2.26682509,6.75849582 C2.26682509,7.26154858 2.67558795,7.67076816 3.17807927,7.67076816 C3.68057058,7.67076816 4.08933344,7.26154858 4.08933344,6.75849582 C4.08933344,6.25544307 3.68057058,5.84622349 3.17807927,5.84622349 Z M3.17807927,8.79623804 C2.67558795,8.79623804 2.26682509,9.20545762 2.26682509,9.70851036 C2.26682509,10.2115631 2.67558795,10.6207827 3.17807927,10.6207827 C3.68057058,10.6207827 4.08933344,10.2115631 4.08933344,9.70851036 C4.08931745,9.2054576 3.68057058,8.79623803 3.17807927,8.79623804 L3.17807927,8.79623804 Z" id="Shape"></path>
                                <path d="M12.1591581,0.00199488268 L1.8414495,0.00199488268 C0.833796687,0.00199488268 0.0139045781,0.822498936 0.0139045781,1.83127762 L0.0139045781,12.1605144 C0.0139045781,13.1692931 0.833796687,13.9901012 1.8414495,13.9901012 L12.1591581,13.9901012 C13.1668109,13.9901012 13.9863992,13.1692931 13.9863992,12.1605144 L13.9863992,1.83129362 C13.9864152,0.822514939 13.1668269,0.00199486704 12.1591581,0.00199488268 Z M12.771415,12.1605304 C12.771415,12.4987748 12.4967372,12.7737595 12.1591741,12.7737595 L1.8414495,12.7737595 C1.50358258,12.7737595 1.22890481,12.4987748 1.2289048,12.1605304 L1.2289048,1.83129362 C1.2289048,1.49335333 1.50358256,1.21836865 1.8414495,1.21836866 L12.1591581,1.21836866 C12.4967212,1.21836866 12.771399,1.49335333 12.771399,1.83129362 L12.771399,12.1605304 L12.771415,12.1605304 Z" id="Shape"></path>
                            </g>
                        </g>
                    </g>
                </g>
            </g>
        </g>
    </g>
</svg>