<?xml version="1.0" encoding="UTF-8"?>
<svg width="16px" height="16px" viewBox="0 0 16 16" version="1.1" xmlns="http://www.w3.org/2000/svg" xmlns:xlink="http://www.w3.org/1999/xlink">
    <!-- Generator: Sketch 46.1 (44463) - http://www.bohemiancoding.com/sketch -->
    <title>关闭 (2)</title>
    <desc>Created with Sketch.</desc>
    <defs></defs>
    <g id="切图" stroke="none" stroke-width="1" fill="none" fill-rule="evenodd">
        <g id="注册" transform="translate(-859.000000, -267.000000)">
            <g id="Group-4" transform="translate(553.000000, 253.000000)">
                <rect id="Rectangle-4" stroke="#1891F0" x="0.5" y="0.5" width="333" height="43" rx="4"></rect>
                <g id="关闭-(2)" transform="translate(306.000000, 14.000000)" fill-rule="nonzero" fill="#D8D8D8">
                    <path d="M8,0 C3.58105262,0 0,3.58105262 0,8 C0,12.4189474 3.58105262,16 8,16 C12.4189474,16 16,12.4189474 16,8 C16,3.58105262 12.4189474,0 8,0 Z M8,15.1578947 C4.05263158,15.1578947 0.842105266,11.9473684 0.842105266,8 C0.842105266,4.05263158 4.05263158,0.842105266 8,0.842105266 C11.9473684,0.842105266 15.1578947,4.05263158 15.1578947,8 C15.1578947,11.9473684 11.9473684,15.1578947 8,15.1578947 Z M8.59578947,8 L11.2442105,5.34947369 C11.4105263,5.18526316 11.4105263,4.92 11.2442105,4.75578947 C11.08,4.58947369 10.8147368,4.58947369 10.6505263,4.75578947 L8,7.40421053 L5.34947369,4.75578947 C5.18526316,4.58947369 4.92,4.58947369 4.75578947,4.75578947 C4.58947369,4.92 4.58947369,5.18526316 4.75578947,5.34947369 L7.40421053,8 L4.75578947,10.6505263 C4.58947369,10.8147368 4.58947369,11.08 4.75578947,11.2442105 C4.83789473,11.3263158 4.94526316,11.368421 5.05263158,11.368421 C5.16,11.368421 5.26736842,11.3263158 5.34947369,11.2442105 L8,8.59578947 L10.6505263,11.2442105 C10.7326316,11.3263158 10.84,11.368421 10.9473684,11.368421 C11.0547368,11.368421 11.1621053,11.3263158 11.2442105,11.2442105 C11.4105263,11.08 11.4105263,10.8147368 11.2442105,10.6505263 L8.59578947,8 Z" id="Shape"></path>
                </g>
            </g>
        </g>
    </g>
</svg>