<?xml version="1.0" encoding="UTF-8"?>
<svg width="54px" height="54px" viewBox="0 0 54 54" version="1.1" xmlns="http://www.w3.org/2000/svg" xmlns:xlink="http://www.w3.org/1999/xlink">
    <!-- Generator: Sketch 46.1 (44463) - http://www.bohemiancoding.com/sketch -->
    <title>代码管理@1x</title>
    <desc>Created with Sketch.</desc>
    <defs></defs>
    <g id="切图" stroke="none" stroke-width="1" fill="none" fill-rule="evenodd">
        <g id="首页" transform="translate(-120.000000, -890.000000)">
            <g id="Group-32" transform="translate(120.000000, 780.000000)">
                <g id="Group-28" transform="translate(0.000000, 110.000000)">
                    <g id="Group-10">
                        <g id="Group-37">
                            <rect id="Rectangle-23" x="0" y="6" width="48" height="48"></rect>
                            <path d="M44.7502111,46 L13.25,46 C10.3492842,46 8,43.6507158 8,40.75 L8,9.25 C8,6.34928422 10.3494953,4 13.25,4 L44.75,4 C47.6507158,4 50,6.34928422 50,9.25 L50,40.75 C50.0002111,43.6507158 47.6507158,46 44.7502111,46 Z" id="Path" fill="#DEECF1"></path>
                            <path d="M39.7502111,51 L8.25,51 C5.34928422,51 3,48.6507158 3,45.75 L3,14.25 C3,11.3492842 5.34949534,9 8.25,9 L39.75,9 C42.6507158,9 45,11.3492842 45,14.25 L45,45.75 C45.0002111,48.6507158 42.6507158,51 39.7502111,51 Z" id="Shape" fill="#4F657B" fill-rule="nonzero"></path>
                            <path d="M42,14.7284014 C42,13.2232082 40.8500645,12 39.4278194,12 L8.57218065,12 C7.15014194,12 6,13.2232082 6,14.7284014 L6,18 L42,18 L42,14.7284014 L42,14.7284014 Z" id="Path" fill="#FFFFFF"></path>
                            <path d="M42,21 L6,21 L6,45.5015885 C6,46.8819263 7.14993548,48 8.57218065,48 L39.4278194,48 C40.8498581,48 42,46.8819263 42,45.5015885 L42,21 Z" id="Path" fill="#4F657B"></path>
                            <path d="M33.9378294,38.7049415 C33.4948755,39.0983528 32.7777525,39.0983528 32.3322541,38.7049415 C32.1198413,38.5181227 32.0001159,38.2622557 32.0001159,37.9951237 C32.0001159,37.7279916 32.1198413,37.4721246 32.3322541,37.2853058 L38.1720783,33.0002859 L32.3322541,28.715266 C32.1197462,28.5280264 32,28.271792 32,28.0043045 C32,27.7368171 32.1197462,27.4805826 32.3322541,27.2933431 C32.7777525,26.902219 33.4948755,26.902219 33.9378294,27.2933431 L40.6767078,32.2395762 C40.9139818,32.4480995 41.0142773,32.7254316 40.9983742,33.0002859 C41.0142773,33.2728529 40.9139818,33.5524723 40.6767078,33.7609956 L33.9378294,38.7049415 L33.9378294,38.7049415 Z" id="Path" fill="#FFFFFF"></path>
                            <path d="M22.409975,44.4873054 C22.0550679,45.0163963 21.4865392,45.1059543 20.6562454,44.8927512 C19.9793334,44.7189282 19.8319998,43.905496 20.1869069,43.3738645 L26.6062005,24.4826316 C26.6062005,24.4826316 27.7432578,23.7691317 28.3570269,24.0771859 C28.6512477,24.2219512 28.8668642,24.4639063 28.9556214,24.7489016 C29.0443786,25.0338969 28.9988658,25.3381367 28.8292686,25.5935319 L22.409975,44.4873054 L22.409975,44.4873054 Z" id="Path" fill="#FFFFFF"></path>
                            <path d="M15.6657286,38.705003 C15.2209314,39.0983323 14.5073976,39.0983323 14.0626003,38.705003 L7.32331182,33.7611412 C7.08602338,33.5526135 6.98572184,33.272988 7.00162589,33.0004152 C6.98572184,32.725555 7.08602338,32.4482168 7.32331182,32.2396891 L14.0626003,27.2933494 C14.5055812,26.9022169 15.2227478,26.9022169 15.6657286,27.2933494 C15.8793278,27.4800694 15.9998328,27.7365052 15.9998328,28.0043262 C15.9998328,28.2721471 15.8793278,28.5285829 15.6657286,28.7153029 L9.82554915,33.0002245 L15.6657286,37.2853368 C15.8793991,37.4715542 16,37.7276531 16,37.9951699 C16,38.2626867 15.8793991,38.5187856 15.6657286,38.705003 L15.6657286,38.705003 Z" id="Path" fill="#FFFFFF"></path>
                        </g>
                    </g>
                </g>
            </g>
        </g>
    </g>
</svg>