<?xml version="1.0" encoding="UTF-8"?>
<svg width="22px" height="25px" viewBox="0 0 22 25" version="1.1" xmlns="http://www.w3.org/2000/svg" xmlns:xlink="http://www.w3.org/1999/xlink">
    <!-- Generator: Sketch 46.1 (44463) - http://www.bohemiancoding.com/sketch -->
    <title>收藏-灰半透</title>
    <desc>Created with Sketch.</desc>
    <defs></defs>
    <g id="Page-2" stroke="none" stroke-width="1" fill="none" fill-rule="evenodd">
        <g id="我的项目-显示1" transform="translate(-679.000000, -362.000000)">
            <g id="Group-18" transform="translate(160.000000, 362.000000)">
                <g id="Group-23" transform="translate(519.000000, 0.000000)">
                    <g id="Group-9">
                        <path d="M0,0 L22,0 L22,22.6309156 L22,22.6309156 C22,23.7354851 21.1045695,24.6309156 20,24.6309156 C19.665362,24.6309156 19.3360729,24.5469489 19.0422957,24.3867068 L11.9577043,20.5223841 L11.9577043,20.5223841 C11.3607493,20.1967723 10.6392507,20.1967723 10.0422957,20.5223841 L2.95770426,24.3867068 L2.95770426,24.3867068 C1.98800759,24.9156322 0.773134313,24.5583166 0.244208854,23.5886199 C0.0839667454,23.2948427 -2.47320668e-15,22.9655536 -3.10862447e-15,22.6309156 L0,0 Z" id="Rectangle-4" fill="#000000" opacity="0.300000012"></path>
                        <path d="M7.62822791,17 C7.29159084,17 6.97259949,16.8985705 6.70574234,16.7066584 C6.51621976,16.5703614 6.07547848,16.1747266 6.07547848,15.4463523 C6.07547848,15.3238226 6.08859871,15.1955109 6.11445597,15.0649782 C6.11443773,15.0650135 6.479578,13.2207917 6.64340755,12.3921161 L4.56062991,10.5049886 C4.09726125,10.0701499 4,9.61470445 4,9.30921737 C4,9.15081537 4.0268244,8.98881732 4.07753528,8.84078035 C4.13158553,8.68408821 4.24309838,8.45404745 4.46942696,8.24212791 C4.73889356,7.98984107 5.08992821,7.83589885 5.51280481,7.78460241 C5.51267707,7.78460241 7.46786547,7.54694651 8.30756036,7.44495295 C8.66854011,6.70256469 9.50551608,4.98238864 9.50551608,4.98238864 C9.646846,4.69112707 9.85457996,4.44668453 10.1059629,4.27603129 C10.3719806,4.09547133 10.6811181,4 10.9999635,4 C11.6370521,4 12.195693,4.36736011 12.4946482,4.98263542 C12.4945387,4.98263542 13.3281023,6.69572516 13.6926769,7.44498819 C14.5312404,7.54687598 16.4872864,7.78463765 16.4872864,7.78463765 C16.9101995,7.83588121 17.2613801,7.98982343 17.5308467,8.24214553 C17.7562082,8.45320132 17.8680313,8.68294241 17.9221545,8.838524 L17.9235596,8.84264887 C17.9742887,8.9925191 18,9.14855902 18,9.30637931 C18,9.61334711 17.9011329,10.0720008 17.4301002,10.5137319 L17.4232389,10.5200426 C17.4232389,10.5200426 16.01348,11.7970773 15.3567384,12.3920809 C15.5155498,13.1941739 15.8862009,15.0650135 15.8862009,15.0650135 C15.9116932,15.1947001 15.924558,15.3227825 15.924558,15.4463876 C15.924558,16.1750791 15.4839445,16.5705201 15.2945131,16.7067289 C15.0286596,16.8978831 14.7109091,16.9989247 14.3756589,16.9989247 C14.3756406,16.9989247 14.3756406,16.9989247 14.3756224,16.9989247 C14.0840393,16.9989247 13.7887703,16.9246947 13.4979719,16.7782972 L13.4869684,16.772621 C13.4869684,16.772621 11.7899876,15.8701385 10.9999453,15.4499307 C10.2072934,15.8715487 8.4979041,16.7803419 8.4979041,16.7803419 L8.48704661,16.7859475 C8.20508019,16.9279734 7.91610661,17 7.62822791,17 Z" id="Shape" fill="#FFFFFF" fill-rule="nonzero" opacity="0.400000006"></path>
                    </g>
                </g>
            </g>
        </g>
    </g>
</svg>