<?xml version="1.0" encoding="UTF-8"?>
<svg width="16px" height="16px" viewBox="0 0 16 16" version="1.1" xmlns="http://www.w3.org/2000/svg" xmlns:xlink="http://www.w3.org/1999/xlink">
    <!-- Generator: Sketch 46.1 (44463) - http://www.bohemiancoding.com/sketch -->
    <title>联系我们</title>
    <desc>Created with Sketch.</desc>
    <defs></defs>
    <g id="Page-1" stroke="none" stroke-width="1" fill="none" fill-rule="evenodd">
        <g id="头像下拉菜单" transform="translate(-1295.000000, -236.000000)">
            <g id="Group-18" transform="translate(1258.000000, 69.000000)">
                <g id="Group-16" transform="translate(37.000000, 165.000000)">
                    <g id="电话" transform="translate(0.000000, 2.000000)">
                        <rect id="Rectangle-8" x="0" y="0" width="16" height="16"></rect>
                        <path d="M3.46011294,9.14416838 C4.10506615,8.66299074 4.87640734,8.39829278 5.632341,8.39829278 C6.55329726,8.39829278 7.37267592,8.78220246 7.9013584,9.45727799 C7.93723204,9.43751892 7.97791328,9.41195974 8.02210853,9.38096778 C8.75327045,8.86334609 9.37968832,8.17605166 9.83330257,7.39334533 C9.88029742,7.31179569 9.84177862,7.1088883 9.71907843,6.9590133 C9.08045813,6.18088905 8.81034391,5.10958828 8.97814681,4.01961114 C9.24248804,2.30237076 10.5608926,1.00768819 12.045903,1.00768817 C12.1831032,1.00768817 12.321655,1.01882439 12.4575617,1.04067149 C14.3430709,1.34533226 15.0795811,3.29538929 14.9732151,5.09315463 C14.8364589,7.40111748 13.700898,9.86852555 11.9358107,11.6934934 C11.6940401,11.9439231 11.2792922,12.32414 10.9913763,12.5600501 C9.20893132,14.0163239 7.10862432,14.9206007 5.3730584,14.9786405 C5.32735715,14.9804772 5.28105738,14.9813279 5.23595466,14.9813279 L5.23566506,14.9813279 C3.75528853,14.9813279 2.5742194,14.1597994 2.15410392,12.836967 C1.73020415,11.5013936 2.24313157,10.0518479 3.46011294,9.14416838 Z M3.02099874,12.5484885 C3.25124262,13.273155 3.9537713,14.0476445 5.23568436,14.0476445 L5.23597398,14.0476445 C5.2710174,14.0476445 5.30719996,14.0470452 5.34338251,14.0454985 C7.16440415,13.9844233 9.16164685,12.8607088 10.4229393,11.8302602 C10.6829942,11.6174732 11.0713293,11.2612494 11.2885212,11.0363209 C12.9022751,9.36729885 13.9400427,7.12441328 14.0635925,5.03654548 C14.1244502,4.00969293 13.8246601,2.20697818 12.315882,1.96323798 C12.2266055,1.94883903 12.13633,1.94154672 12.045903,1.94142953 C11.0052971,1.94142953 10.0735672,2.89721132 9.87855974,4.16534872 C9.75361985,4.97591494 9.9550567,5.79564536 10.4166064,6.35843062 C10.7203739,6.72847804 10.9130451,7.359666 10.6170972,7.87021155 C10.0970453,8.76760553 9.37878085,9.55605398 8.54065445,10.1491158 C8.41057872,10.2417824 8.07427783,10.4560773 7.76483389,10.4560773 C7.56637042,10.4560773 7.39758281,10.3643001 7.30384411,10.2064983 C7.28362208,10.1726194 7.26204433,10.1395706 7.23916343,10.1074323 C6.88909617,9.61471248 6.30345611,9.33205348 5.632341,9.33205347 C5.06807451,9.33205347 4.48656628,9.53322083 3.99646055,9.89922749 C2.91364813,10.7065457 2.78247185,11.7974701 3.02099874,12.5484885 L3.02099874,12.5484885 Z" id="Shape" stroke="#474747" stroke-width="0.2" fill="#474747" fill-rule="nonzero"></path>
                    </g>
                </g>
            </g>
        </g>
    </g>
</svg>