<?xml version="1.0" encoding="UTF-8"?>
<svg width="16px" height="16px" viewBox="0 0 16 16" version="1.1" xmlns="http://www.w3.org/2000/svg" xmlns:xlink="http://www.w3.org/1999/xlink">
    <!-- Generator: Sketch 46.1 (44463) - http://www.bohemiancoding.com/sketch -->
    <title>账号设置-高亮</title>
    <desc>Created with Sketch.</desc>
    <defs></defs>
    <g id="Page-2" stroke="none" stroke-width="1" fill="none" fill-rule="evenodd">
        <g id="源码" transform="translate(-27.000000, -416.000000)">
            <g id="Group-48" transform="translate(0.000000, 104.000000)">
                <g id="Group-6-Copy-6" transform="translate(5.000000, 299.000000)">
                    <g id="Group-25" transform="translate(22.000000, 11.000000)">
                        <g id="Group-46" transform="translate(0.000000, 2.000000)">
                            <g id="ICON_系统设置-账号设置">
                                <path d="M14.7280372,11.0181387 L14.2757928,11.2712154 C14.5168459,11.9031062 14.5168459,12.5983255 14.2757928,13.2302164 L14.7280372,13.483293 C14.8846285,13.5630885 14.9837056,13.7200891 14.9860974,13.8922227 C14.9884892,14.0643563 14.8938106,14.2239116 14.7394938,14.3078064 C14.585177,14.3917013 14.3960653,14.3864296 14.2469261,14.2940757 L13.7658149,14.0363124 C13.3249953,14.5529078 12.7088879,14.8987082 12.0290037,15.0111263 L12.0290037,15.5313395 C12.0290037,15.7901735 11.8136029,16 11.5478926,16 C11.2821822,16 11.0667814,15.7901735 11.0667814,15.5313395 L11.0667814,15.0158129 C10.3868973,14.9033948 9.77078985,14.5575944 9.32997018,14.040999 L8.84885904,14.2987623 C8.62040319,14.4151785 8.33834893,14.3354696 8.20932118,14.1180282 C8.08029342,13.9005869 8.15016408,13.6227176 8.36774789,13.4879796 L8.81999238,13.234903 C8.57893926,12.6030121 8.57893926,11.9077928 8.81999238,11.275902 L8.36774789,11.0228253 C8.15016408,10.8880873 8.08029342,10.6102181 8.20932118,10.3927767 C8.33834893,10.1753353 8.62040319,10.0956265 8.84885904,10.2120426 L9.32997018,10.4698059 C9.77078985,9.95321056 10.3868973,9.60741015 11.0667814,9.49499206 L11.0667814,8.97009228 C11.0667814,8.71125823 11.2821822,8.50143177 11.5478926,8.50143177 C11.8136029,8.50143177 12.0290037,8.71125823 12.0290037,8.97009228 L12.0290037,9.48561884 C12.7088879,9.59803694 13.3249953,9.94383735 13.7658149,10.4604327 L14.2469261,10.2026694 C14.3964656,10.1189513 14.5804954,10.1193063 14.7296933,10.2036008 C14.8788912,10.2878953 14.9705904,10.4433228 14.9702489,10.6113354 C14.9699073,10.7793481 14.8775767,10.9344206 14.7280372,11.0181387 L14.7280372,11.0181387 Z M11.5863815,10.3760738 C10.5235401,10.3760738 9.66193687,11.2153797 9.66193687,12.2507159 C9.66193687,13.2860521 10.5235401,14.1253579 11.5863815,14.1253579 C12.6492229,14.1253579 13.510826,13.2860521 13.510826,12.2507159 C13.510826,11.2153797 12.6492229,10.3760738 11.5863815,10.3760738 Z M11.5863815,13.1880369 C11.0549608,13.1880369 10.6241592,12.768384 10.6241592,12.2507159 C10.6241592,11.7330478 11.0549608,11.3133949 11.5863815,11.3133949 C12.1178022,11.3133949 12.5486037,11.7330478 12.5486037,12.2507159 C12.5486037,12.4993089 12.447227,12.7377201 12.2667754,12.9135019 C12.0863237,13.0892837 11.8415787,13.1880369 11.5863815,13.1880369 L11.5863815,13.1880369 Z M8.84404792,7.9109195 C9.1687044,8.0248226 9.48260369,8.16594995 9.78221466,8.33271398 C9.54168491,8.54658492 9.32406889,8.78369334 9.13271462,9.04039135 C8.40131568,8.68272167 7.59365106,8.49807318 6.77527,8.50143175 C4.11953648,8.50143175 1.96415854,10.3760738 1.96415856,12.7193764 C1.96415856,12.9782105 1.74875776,13.1880369 1.48304741,13.1880369 C1.21733705,13.1880369 1.00193626,12.9782105 1.00193626,12.7193764 C1.06045105,10.5119055 2.54697499,8.58242008 4.70649208,7.9109195 C3.26391915,7.01521293 2.60137335,5.29949926 3.08027251,3.699698 C3.55917167,2.09989673 5.06456807,1.00000001 6.77527,1.00000001 C8.48597193,1.00000001 9.99136833,2.09989673 10.4702675,3.699698 C10.9491666,5.29949926 10.2866208,7.01521293 8.84404792,7.9109195 Z" id="Shape" stroke="#1891F0" stroke-width="0.1" fill="#1891F0" fill-rule="nonzero"></path>
                                <path d="M6.77527,1.94018455 C5.18100791,1.94018455 3.88860313,3.1991433 3.88860313,4.75214764 C3.88860313,6.30515197 5.18100791,7.56411073 6.77527,7.56411073 C8.36953209,7.56411073 9.66193687,6.30515197 9.66193687,4.75214764 C9.66193687,3.1991433 8.36953209,1.94018455 6.77527,1.94018455 L6.77527,1.94018455 Z" id="Path" stroke="#1891F0" stroke-width="0.1" fill="#1891F0"></path>
                                <rect id="Rectangle-30" x="0" y="0" width="16" height="16"></rect>
                            </g>
                        </g>
                    </g>
                </g>
            </g>
        </g>
    </g>
</svg>