<?xml version="1.0" encoding="UTF-8"?>
<svg width="16px" height="16px" viewBox="0 0 16 16" version="1.1" xmlns="http://www.w3.org/2000/svg" xmlns:xlink="http://www.w3.org/1999/xlink">
    <!-- Generator: Sketch 46.1 (44463) - http://www.bohemiancoding.com/sketch -->
    <title>提交记录-灰</title>
    <desc>Created with Sketch.</desc>
    <defs></defs>
    <g id="Page-2" stroke="none" stroke-width="1" fill="none" fill-rule="evenodd">
        <g id="源码" transform="translate(-29.000000, -206.000000)">
            <g id="Group-48" transform="translate(0.000000, 104.000000)">
                <g id="Group-6-Copy" transform="translate(5.000000, 89.000000)">
                    <g id="Group-41" transform="translate(24.000000, 13.000000)">
                        <rect id="Rectangle-25" x="0" y="0" width="16" height="16"></rect>
                        <g id="Group-8" transform="translate(1.000000, 1.000000)" stroke="#4F657B" stroke-width="0.15" fill="#4F657B" fill-rule="nonzero">
                            <path d="M11.4583333,7.26923077 C11.4583333,7.17948718 11.375,7.17948718 11.4583333,7.26923077 C11.2916667,7.08974359 11.125,7 11.0416667,7 C10.875,7 10.7083333,7.08974359 10.7083333,7.17948718 C10.7083333,7.17948718 10.625,7.17948718 10.625,7.26923077 L8.125,9.96153846 C7.95833333,10.1410256 7.95833333,10.4102564 8.125,10.6794872 C8.29166667,10.8589744 8.625,10.8589744 8.79166667,10.6794872 L10.5416667,8.61538462 L10.5416667,13.5512821 C10.5416667,13.8205128 10.7083333,14 10.9583333,14 C11.2083333,14 11.375,13.8205128 11.375,13.5512821 L11.375,8.61538462 L13.2083333,10.5897436 C13.375,10.7692308 13.7083333,10.7692308 13.875,10.5897436 C14.0416667,10.4102564 14.0416667,10.1410256 13.875,9.87179487 L11.4583333,7.26923077 L11.4583333,7.26923077 Z" id="Shape"></path>
                            <path d="M13.5669888,6.7375 C13.8267955,6.7375 14,6.5625 14,6.3 L14,2.0125 C14,1.6625 13.9133978,1.3125 13.7401933,0.9625 C13.4803866,0.525 13.1339777,0.2625 12.7009665,0.0875 C12.3545576,9.09515518e-14 12.0081487,0 11.748342,0 L2.33826022,0 C2.07845353,0 1.81864684,0 1.55884015,0.0875 C0.606215613,0.2625 0,1.1375 0,2.0125 L0,11.9 C0,12.5125 0.259806691,13.0375 0.692817844,13.475 C1.03922677,13.825 1.47223792,14 1.9918513,14 L5.9755539,14 C6.23536059,14 6.40856506,13.825 6.40856506,13.5625 C6.40856506,13.3 6.23536059,13.125 5.9755539,13.125 L2.07845353,13.125 L1.9918513,13.125 L1.90524907,13.125 L1.73204461,13.125 C1.64544238,13.125 1.64544238,13.125 1.55884015,13.0375 L1.47223792,13.0375 L1.38563569,12.95 C1.38563569,12.95 1.29903346,12.95 1.29903346,12.8625 C1.21243123,12.775 1.21243123,12.8625 1.29903346,12.8625 L1.125829,12.6875 L1.03922677,12.6 L0.952624535,12.5125 L0.866022305,12.425 L0.866022305,12.3375 L0.866022305,12.075 C0.866022305,12.075 0.866022305,12.1625 0.866022305,12.075 L0.866022305,11.9875 L0.866022305,2.0125 L0.866022305,1.925 L0.866022305,1.8375 C0.866022305,1.75 0.866022305,1.6625 0.952624535,1.575 L0.952624535,1.4875 C0.952624535,1.4875 0.952624535,1.4 1.03922677,1.4 L1.125829,1.3125 L1.21243123,1.225 L1.29903346,1.1375 L1.38563569,1.05 C1.47223792,0.9625 1.47223792,1.05 1.38563569,1.05 C1.47223792,0.9625 1.55884015,0.9625 1.64544238,0.875 L1.81864684,0.875 L12.4411599,0.875 C12.5277621,0.875 12.5277621,0.875 12.4411599,0.875 C12.5277621,0.875 12.6143643,0.9625 12.7009665,1.05 L12.7875688,1.05 L12.874171,1.1375 L12.9607732,1.225 L13.0473755,1.3125 C13.1339777,1.4 13.1339777,1.4875 13.1339777,1.4875 L13.1339777,6.3 C13.1339777,6.5625 13.3071822,6.7375 13.5669888,6.7375 Z" id="Shape"></path>
                            <path d="M10,3.5 C10,3.2 9.80821918,3 9.52054795,3 L3.38356164,3 C3.19178082,3 3,3.2 3,3.5 C3,3.8 3.19178082,4 3.38356164,4 L9.52054795,4 C9.80821918,4 10,3.7 10,3.5 Z M3.45714286,9 C3.22857143,9 3,9.2 3,9.5 C3,9.8 3.22857143,10 3.57142857,10 L6.42857143,10 C6.77142857,10 7,9.8 7,9.5 C7,9.2 6.77142857,9 6.42857143,9 L3.45714286,9 Z M9,6.5 C9,6.2 8.80952381,6 8.52380952,6 L3.38095238,6 C3.19047619,6 3,6.2 3,6.5 C3,6.7 3.19047619,7 3.38095238,7 L8.52380952,7 C8.80952381,7 9,6.7 9,6.5 Z" id="Shape"></path>
                        </g>
                    </g>
                </g>
            </g>
        </g>
    </g>
</svg>