<?xml version="1.0" encoding="UTF-8"?>
<svg width="16px" height="16px" viewBox="0 0 16 16" version="1.1" xmlns="http://www.w3.org/2000/svg" xmlns:xlink="http://www.w3.org/1999/xlink">
    <!-- Generator: Sketch 46.1 (44463) - http://www.bohemiancoding.com/sketch -->
    <title>设置-灰</title>
    <desc>Created with Sketch.</desc>
    <defs></defs>
    <g id="Page-2" stroke="none" stroke-width="1" fill="none" fill-rule="evenodd">
        <g id="源码" transform="translate(-29.000000, -374.000000)">
            <g id="Group-48" transform="translate(0.000000, 104.000000)">
                <g id="Group-6-Copy-5" transform="translate(5.000000, 257.000000)">
                    <g id="Group-24" transform="translate(24.000000, 11.000000)">
                        <g id="Group-45" transform="translate(0.000000, 2.000000)">
                            <rect id="Rectangle-29" x="0" y="0" width="16" height="16"></rect>
                            <path d="M11.1020334,14.2580147 C11.1001188,14.2563762 10.2426067,13.4058753 8.52949712,11.7065119 C7.91239794,11.9441699 7.24251897,12.0754123 6.54139971,12.0754123 C3.48098538,12.0754123 1,9.59600955 1,6.53770615 C1,5.71800524 1.18847875,4.94590438 1.50905058,4.24660361 C1.52915413,4.15560351 1.56755829,4.07020341 1.63147481,3.99566111 C1.66341712,3.93476104 1.68819554,3.86966097 1.7222918,3.80980312 L1.78834632,3.87140319 C2.01020334,3.74786083 2.29200404,3.77096086 2.48048279,3.95960329 L5.10112402,6.59476399 L6.60386431,5.08136231 L3.98896696,2.45181717 C3.80911997,2.27225919 3.77679474,2.00661667 3.88091836,1.78961643 L3.81234292,1.72101636 C3.86655868,1.69021632 3.92578438,1.66745852 3.98142015,1.63875849 C4.08267184,1.53341615 4.20220818,1.4879161 4.32426544,1.4714583 C5.00384518,1.17325797 5.75089944,1 6.5410487,1 C9.60146304,1 12.0824484,3.47940275 12.0824484,6.53770615 C12.0824484,6.61296401 12.0749016,6.68610632 12.0713117,6.7603064 C12.0715457,6.76450641 12.07454,6.78865384 12.0802945,6.8327487 C12.0802945,6.86250651 12.0677377,6.88804876 12.0634298,6.91640657 C12.0601909,6.95944884 12.0609249,7.00320667 12.056968,7.04590672 C11.9589711,7.25346473 11.7493039,7.41552268 11.4969405,7.41552268 C11.2399023,7.41552268 11.028464,7.24648027 10.9505548,7.01582224 L10.893834,7.01582224 C10.9117836,6.85376428 10.9232714,6.6899641 10.9232714,6.52337947 C10.9232714,4.096819 8.95491056,2.12983237 6.52668902,2.12983237 C6.15477336,2.12983237 5.79614838,2.1812902 5.45186713,2.2694903 L7.72213221,4.55219284 C7.74691063,4.57703509 7.75839837,4.6081929 7.77778394,4.63583515 C7.79573354,4.65019294 7.81764002,4.6564774 7.8341377,4.67327741 C8.06208961,4.90077767 8.06208961,5.27003586 7.8341377,5.49753611 L5.50930584,7.83868093 C5.28133797,8.06653896 4.91194324,8.06653896 4.68434234,7.83868093 C4.65777694,7.8120809 4.64485323,7.77848086 4.62438271,7.74838083 C4.60464613,7.73333859 4.58130368,7.72598081 4.56335408,7.70778079 L2.27981427,5.41142046 C2.18539141,5.76667863 2.12975564,6.13732126 2.12975564,6.52232169 C2.12975564,8.94888217 4.09846748,10.9158688 6.52668902,10.9158688 C7.3491316,10.9158688 8.11630537,10.6859263 8.7746966,10.2932103 L9.62156658,11.1395113 C9.62060927,11.1402165 9.95195618,11.4715502 10.6156073,12.1335124 C10.6156073,12.1332842 10.6561707,12.1735317 10.7372976,12.2542547 L11.9176631,13.4264138 C11.9316558,13.4404138 11.9370487,13.4589561 11.9492544,13.4736561 C12.148487,13.6997563 12.4338936,13.8481565 12.7591403,13.8481565 C13.3608108,13.8481565 13.8486888,13.3605982 13.8486888,12.7592975 C13.8486888,12.513255 13.7639667,12.2885392 13.6261138,12.1061968 L13.6738677,12.0575545 C13.5837527,12.0309545 13.4972437,11.9899967 13.4261633,11.9189544 L10.5908448,9.10389345 C10.3628929,8.8763932 10.3628929,8.50713501 10.5908448,8.27963476 C10.8188127,8.05177672 11.1882074,8.05177672 11.4158083,8.27963476 L14.2511267,11.0946957 C14.3186172,11.1622535 14.3598933,11.2434536 14.3871927,11.3284959 L14.4324257,11.2822959 C14.7813658,11.6774541 14.9999999,12.1901969 14.9999999,12.7585975 C15.0003509,13.9968989 13.9966254,15 12.7584542,15 C12.0993131,15.0000156 11.5123692,14.7105575 11.1020334,14.2580147 Z" id="Shape" stroke="#F8F8F8" stroke-width="0.2" fill="#4F657B" fill-rule="nonzero"></path>
                        </g>
                    </g>
                </g>
            </g>
        </g>
    </g>
</svg>