<?xml version="1.0" encoding="UTF-8"?>
<svg width="16px" height="16px" viewBox="0 0 16 16" version="1.1" xmlns="http://www.w3.org/2000/svg" xmlns:xlink="http://www.w3.org/1999/xlink">
    <!-- Generator: Sketch 46.1 (44463) - http://www.bohemiancoding.com/sketch -->
    <title>钩子-高亮</title>
    <desc>Created with Sketch.</desc>
    <defs></defs>
    <g id="Page-2" stroke="none" stroke-width="1" fill="none" fill-rule="evenodd">
        <g id="源码" transform="translate(-29.000000, -290.000000)">
            <g id="Group-48" transform="translate(0.000000, 104.000000)">
                <g id="Group-6-Copy-3" transform="translate(5.000000, 173.000000)">
                    <g id="Group-22" transform="translate(24.000000, 11.000000)">
                        <g id="Group-43" transform="translate(0.000000, 2.000000)">
                            <rect id="Rectangle-27" x="0" y="0" width="16" height="16"></rect>
                            <g id="webhook-copy" transform="translate(1.000000, 2.000000)" stroke="#1891F0" stroke-width="0.34" fill="#1891F0">
                                <path d="M10.7712848,6.60934422 C10.3961903,6.60926409 10.0239635,6.67405384 9.67137977,6.80079351 L8.21570792,4.30409391 C8.71735107,3.83391324 8.84888518,3.06686937 8.48876791,2.44915659 C8.06756871,1.72675583 7.13145184,1.47832305 6.40186297,1.89540227 C5.67235379,2.31252883 5.42149238,3.23957141 5.84269159,3.96197217 C6.04673362,4.31192104 6.37617447,4.56226326 6.77033061,4.66684078 C6.90007211,4.70139707 7.03383134,4.7189475 7.16818387,4.71904275 C7.33380016,4.71904137 7.49828764,4.69205386 7.65505452,4.63916174 L9.3747348,7.58871501 L9.39500515,7.57711633 L9.40086953,7.58656885 C9.81191763,7.33606883 10.2857847,7.20367025 10.7712689,7.20367026 C12.2153554,7.20367026 13.3902065,8.36707351 13.3902065,9.79708868 C13.3902065,11.2271039 12.2153554,12.3905071 10.7712689,12.3905071 C10.2858484,12.3905071 9.81194949,12.258077 9.40078984,12.0075454 L9.08626491,12.5137057 C9.59201949,12.8218993 10.1746962,12.9848332 10.7712689,12.9848332 C12.5462942,12.9848332 13.9903648,11.554818 13.9903648,9.79710447 C13.9903648,8.03939096 12.5462942,6.60934422 10.7712848,6.60934422 L10.7712848,6.60934422 Z" id="Shape" fill-rule="nonzero"></path>
                                <path d="M9.2582919,10.1752847 C9.41866982,10.8406073 10.0237044,11.3369205 10.7440027,11.3369205 C11.5864011,11.3369205 12.2717203,10.6582791 12.2717204,9.82408916 C12.2717204,8.98989918 11.5864012,8.3112578 10.7440027,8.3112578 C10.0043106,8.3112578 9.38588987,8.83455571 9.2460532,9.52691036 L5.80623046,9.52691036 L5.80623046,10.1149558 C5.75151811,10.4030228 5.64794851,10.6798377 5.49991247,10.9336651 C5.15013753,11.5335774 4.58540455,11.9626972 3.9096787,12.1419955 C3.23392098,12.3212306 2.52817208,12.229246 1.92238846,11.882895 C1.31657299,11.5365283 0.883230692,10.9772982 0.702168116,10.3081725 C0.521121455,9.63903097 0.61404313,8.94015897 0.963818056,8.34024661 C1.20652033,7.92392487 1.55927526,7.58372836 1.98393254,7.35642572 L1.69855419,6.83360122 C1.17611483,7.11321631 0.742326345,7.53147905 0.444055909,8.04308359 C0.0141238821,8.78047585 -0.100088009,9.63950438 0.122471408,10.4619852 C0.344998963,11.2844503 0.87766911,11.9718499 1.62231731,12.3976084 C2.11835104,12.6812159 2.66880555,12.8260969 3.22665425,12.8260495 C3.50623198,12.8260495 3.78776981,12.7896439 4.06505279,12.7160909 C4.8956109,12.4957001 5.58977447,11.9682203 6.01970648,11.2308281 C6.21011468,10.9042898 6.34054431,10.5469048 6.40493858,10.1752689 L9.2582919,10.1752689 L9.2582919,10.1752847 Z" id="Shape" fill-rule="nonzero"></path>
                                <path d="M1.7461863,9.99161519 C1.85182474,10.3819306 2.1045825,10.7081614 2.45799081,10.9101994 C2.69799994,11.0474111 2.96025545,11.1126004 3.21929192,11.1126004 C3.74765939,11.1126004 4.26227427,10.8412385 4.54489575,10.3564766 C4.91473386,9.72214698 4.76627592,8.93012255 4.23070546,8.46401326 L5.95062478,5.51406547 L5.71684655,5.38040445 C5.36509557,5.15778861 5.07119156,4.85391887 4.8604087,4.49237132 C4.1383734,3.25394747 4.56840105,1.6647226 5.81901099,0.949691329 C6.42481053,0.603308858 7.13052756,0.511355756 7.80630122,0.690590935 C8.4819952,0.869905008 9.04674411,1.29902477 9.39651905,1.89895289 C9.6392532,2.31525886 9.76038123,2.7878855 9.74685175,3.26573552 L10.3468028,3.28241552 C10.3634239,2.69455949 10.2145516,2.11342596 9.9162812,1.60180566 C9.48634917,0.864413395 8.7921856,0.336949421 7.96162748,0.116542856 C7.13100563,-0.103879484 6.26357208,0.00921952906 5.51892388,0.434993802 C3.98172446,1.31387422 3.45314982,3.26729779 4.34064655,4.78953435 C4.53772553,5.12761469 4.79582003,5.42698547 5.10209109,5.67275441 L3.65759023,8.15032802 C2.99555323,7.95521764 2.25901636,8.22594828 1.89883535,8.84364529 C1.6947774,9.19360995 1.64057974,9.60129974 1.7461863,9.99161519 L1.7461863,9.99161519 Z" id="Shape" fill-rule="nonzero"></path>
                                <path d="M6.92565689,4.09277692 C6.68636487,4.0292761 6.48633868,3.87729389 6.36246967,3.66480915 C6.10674783,3.22622109 6.25904631,2.66334562 6.70195008,2.41009979 C6.84240714,2.32956511 7.00184903,2.28718613 7.1641521,2.28724844 C7.48493982,2.28724844 7.79740904,2.4519971 7.96900576,2.74631961 C8.22471165,3.18493924 8.07242912,3.74778314 7.62949349,4.0009974 C7.41490198,4.12367518 7.16490109,4.15618306 6.92565689,4.09277692 L6.92565689,4.09277692 Z" id="Path"></path>
                                <path d="M10.7440027,8.90559962 C11.2554623,8.90559962 11.6715461,9.31762907 11.6715461,9.82410493 C11.6715462,10.3305808 11.2554623,10.7426103 10.7440027,10.7426103 C10.2325431,10.7426103 9.81645933,10.3305808 9.81645933,9.82410493 C9.81645933,9.31762905 10.2325431,8.90559962 10.7440027,8.90559962 Z" id="Path"></path>
                                <path d="M2.41858157,9.14080831 C2.59021017,8.84647001 2.90259971,8.68173712 3.22340335,8.68173712 C3.38570474,8.68168751 3.54514336,8.72406563 3.68560538,8.80458849 C4.12854103,9.05781855 4.28085542,9.62067822 4.02511765,10.0592979 C3.76939582,10.4978859 3.20098168,10.6487162 2.75806196,10.3954703 C2.54348638,10.2727925 2.39004054,10.074747 2.32591487,9.83777088 C2.2617892,9.60079477 2.29471256,9.35329305 2.41858157,9.14080831 L2.41858157,9.14080831 Z" id="Path"></path>
                            </g>
                        </g>
                    </g>
                </g>
            </g>
        </g>
    </g>
</svg>