<?xml version="1.0" encoding="UTF-8"?>
<svg width="16px" height="16px" viewBox="0 0 16 16" version="1.1" xmlns="http://www.w3.org/2000/svg" xmlns:xlink="http://www.w3.org/1999/xlink">
    <!-- Generator: Sketch 46.1 (44463) - http://www.bohemiancoding.com/sketch -->
    <title>源码-灰</title>
    <desc>Created with Sketch.</desc>
    <defs></defs>
    <g id="Page-2" stroke="none" stroke-width="1" fill="none" fill-rule="evenodd">
        <g id="源码" transform="translate(-29.000000, -122.000000)">
            <g id="Group-48" transform="translate(0.000000, 104.000000)">
                <g id="Group-10" transform="translate(29.000000, 16.000000)">
                    <g id="Group-37" transform="translate(0.000000, 2.000000)">
                        <rect id="Rectangle-23" x="0" y="0" width="16" height="16"></rect>
                        <path d="M13.2500704,15 L2.75,15 C1.78309474,15 1,14.2169053 1,13.25 L1,2.75 C1,1.78309474 1.78316511,1 2.75,1 L13.25,1 C14.2169053,1 15,1.78309474 15,2.75 L15,13.25 C15.0000704,14.2169053 14.2169053,15 13.2500704,15 Z M14,2.90946715 C14,2.40773608 13.6166882,2 13.1426065,2 L2.85739355,2 C2.38338065,2 2,2.40773608 2,2.90946715 L2,4 L14,4 L14,2.90946715 L14,2.90946715 Z M14,5 L2,5 L2,13.1671962 C2,13.6273088 2.38331183,14 2.85739355,14 L13.1426065,14 C13.6166194,14 14,13.6273088 14,13.1671962 L14,5 Z M11.6459431,10.9016472 C11.4982918,11.0327843 11.2592508,11.0327843 11.1107514,10.9016472 C11.0399471,10.8393742 11.0000386,10.7540852 11.0000386,10.6650412 C11.0000386,10.5759972 11.0399471,10.4907082 11.1107514,10.4284353 L13.0573594,9.0000953 L11.1107514,7.57175533 C11.0399154,7.50934214 11,7.42393066 11,7.33476818 C11,7.24560569 11.0399154,7.16019421 11.1107514,7.09778103 C11.2592508,6.96740632 11.4982918,6.96740632 11.6459431,7.09778103 L13.8922359,8.74652541 C13.9713273,8.81603317 14.0047591,8.90847721 13.9994581,9.0000953 C14.0047591,9.09095097 13.9713273,9.18415744 13.8922359,9.2536652 L11.6459431,10.9016472 L11.6459431,10.9016472 Z M7.80332499,12.8291018 C7.68502264,13.0054654 7.49551308,13.0353181 7.21874848,12.9642504 C6.99311114,12.9063094 6.94399994,12.6351653 7.06230229,12.4579548 L9.20206683,6.16087721 C9.20206683,6.16087721 9.58108595,5.92304392 9.78567563,6.02572862 C9.88374922,6.07398372 9.95562139,6.15463544 9.98520714,6.24963388 C10.0147929,6.34463232 9.99962192,6.44604556 9.94308953,6.5311773 L7.80332499,12.8291018 L7.80332499,12.8291018 Z M4.88857622,10.9016677 C4.74031047,11.0327774 4.50246586,11.0327774 4.35420011,10.9016677 L2.10777061,9.25371374 C2.02867446,9.18420449 1.99524061,9.09099601 2.00054196,9.00013838 C1.99524061,8.90851832 2.02867446,8.81607228 2.10777061,8.74656303 L4.35420011,7.09778313 C4.50186039,6.96740562 4.74091594,6.96740562 4.88857622,7.09778313 C4.95977593,7.16002313 4.99994427,7.24550172 4.99994427,7.33477539 C4.99994427,7.42404905 4.95977593,7.50952764 4.88857622,7.57176764 L2.94184972,9.00007485 L4.88857622,10.4284456 C4.95979969,10.4905181 5,10.5758844 5,10.6650566 C5,10.7542289 4.95979969,10.8395952 4.88857622,10.9016677 L4.88857622,10.9016677 Z" id="Shape" fill="#4F657B" fill-rule="nonzero"></path>
                    </g>
                </g>
            </g>
        </g>
    </g>
</svg>