<?xml version="1.0" encoding="UTF-8"?>
<svg width="16px" height="16px" viewBox="0 0 16 16" version="1.1" xmlns="http://www.w3.org/2000/svg" xmlns:xlink="http://www.w3.org/1999/xlink">
    <!-- Generator: Sketch 46.1 (44463) - http://www.bohemiancoding.com/sketch -->
    <title>WIKI-高亮</title>
    <desc>Created with Sketch.</desc>
    <defs></defs>
    <g id="Page-2" stroke="none" stroke-width="1" fill="none" fill-rule="evenodd">
        <g id="源码" transform="translate(-29.000000, -164.000000)">
            <g id="Group-48" transform="translate(0.000000, 104.000000)">
                <g id="Group-6" transform="translate(5.000000, 47.000000)">
                    <g id="Group-7" transform="translate(24.000000, 13.000000)">
                        <rect id="Rectangle-24" x="0" y="0" width="16" height="16"></rect>
                        <rect id="Rectangle-8" fill="#1891F0" x="1" y="1" width="14" height="14" rx="2"></rect>
                        <path d="M9.485,11.9975891 L8.205,8.72662304 C7.695,9.80609609 7.13499999,10.939814 6.655,11.9975891 C6.65,12.0030136 6.42000001,11.9975891 6.42,11.9975891 C5.685,10.1261409 4.925,8.28181506 4.185,6.42664027 C4.01500001,5.9709833 3.41500001,5.24410195 3,5.24410195 L3,5 L5.53000001,5 L5.53000001,5.24410195 C5.23000001,5.24410195 4.72000001,5.46108146 4.85,5.81367315 C5.21,6.64904426 6.47,9.88746341 6.815,10.7119855 C7.05,10.2020837 7.715,8.85681074 8,8.28723954 C7.775,7.80988462 7.065,6.01980368 6.855,5.5749957 C6.695,5.28207336 6.29,5.24410195 5.98000001,5.24410195 C5.98000001,5.16273463 5.98500001,5.10848975 5.98000001,5.00542449 L8.21,5.01084898 L8.21,5.22782848 C7.905,5.24410195 7.62,5.35801619 7.75,5.67263648 C8.05,6.34527295 8.225,6.82805235 8.5,7.45186844 C8.585,7.26743586 9.035,6.26390564 9.25,5.73773033 C9.38,5.38513863 9.185,5.24410195 8.645,5.24410195 C8.65,5.17900809 8.65,5.06509385 8.65,5.01084898 C9.34500001,5.00542449 10.39,5.00542449 10.575,5 L10.575,5.22782848 C10.22,5.24410195 9.85499999,5.45023247 9.665,5.76485276 L8.75,7.84785604 C8.84,8.12450491 9.73,10.2671775 9.82499999,10.505855 L11.75,5.71603237 C11.6,5.32546926 11.17,5.24410195 11,5.24410195 L11,5 L13,5.01627346 L13,5.24410195 C12.56,5.24410195 12.285,5.51532633 12.125,5.92216292 C11.725,6.89314621 10.5,9.98510419 9.7,11.9975891 L9.485,11.9975891 Z" id="Shape" stroke="#F8F8F8" stroke-width="0.2" fill="#F8F8F8" fill-rule="nonzero"></path>
                    </g>
                </g>
            </g>
        </g>
    </g>
</svg>