<?xml version="1.0" encoding="UTF-8"?>
<svg width="16px" height="16px" viewBox="0 0 16 16" version="1.1" xmlns="http://www.w3.org/2000/svg" xmlns:xlink="http://www.w3.org/1999/xlink">
    <!-- Generator: Sketch 46.1 (44463) - http://www.bohemiancoding.com/sketch -->
    <title>源码-高亮</title>
    <desc>Created with Sketch.</desc>
    <defs></defs>
    <g id="Page-2" stroke="none" stroke-width="1" fill="none" fill-rule="evenodd">
        <g id="源码" transform="translate(-29.000000, -122.000000)">
            <g id="Group-48" transform="translate(0.000000, 104.000000)">
                <g id="Group-10" transform="translate(29.000000, 16.000000)">
                    <g id="Group-36" transform="translate(0.000000, 2.000000)">
                        <rect id="Rectangle-23" x="0" y="0" width="16" height="16"></rect>
                        <g id="Group-35" transform="translate(1.000000, 1.000000)">
                            <path d="M12.2500704,14 L1.75,14 C0.78309474,14 0,13.2169053 0,12.25 L0,1.75 C-6.10376002e-17,0.78309474 0.783165112,0 1.75,0 L12.25,0 C13.2169053,0 14,0.78309474 14,1.75 L14,12.25 C14.0000704,13.2169053 13.2169053,14 12.2500704,14 Z M13,1.90946715 C13,1.40773608 12.6166882,1 12.1426065,1 L1.85739355,1 C1.38338065,1 1,1.40773608 1,1.90946715 L1,3 L13,3 L13,1.90946715 L13,1.90946715 Z" id="Shape" fill="#1891F0" fill-rule="nonzero"></path>
                            <path d="M13,4 L1,4 L1,12.1671962 C1,12.6273088 1.38331183,13 1.85739355,13 L12.1426065,13 C12.6166194,13 13,12.6273088 13,12.1671962 L13,4 Z" id="Path" fill="#1891F0"></path>
                            <path d="M10.6459431,9.90164716 C10.4982918,10.0327843 10.2592508,10.0327843 10.1107514,9.90164716 C10.0399471,9.83937422 10.0000386,9.75408522 10.0000386,9.66504122 C10.0000386,9.57599721 10.0399471,9.49070822 10.1107514,9.42843528 L12.0573594,8.0000953 L10.1107514,6.57175533 C10.0399154,6.50934214 10,6.42393066 10,6.33476818 C10,6.24560569 10.0399154,6.16019421 10.1107514,6.09778103 C10.2592508,5.96740632 10.4982918,5.96740632 10.6459431,6.09778103 L12.8922359,7.74652541 C12.9713273,7.81603317 13.0047591,7.90847721 12.9994581,8.0000953 C13.0047591,8.09095097 12.9713273,8.18415744 12.8922359,8.2536652 L10.6459431,9.90164716 L10.6459431,9.90164716 Z" id="Path" fill="#F8F8F8"></path>
                            <path d="M6.80332499,11.8291018 C6.68502264,12.0054654 6.49551308,12.0353181 6.21874848,11.9642504 C5.99311114,11.9063094 5.94399994,11.6351653 6.06230229,11.4579548 L8.20206683,5.16087721 C8.20206683,5.16087721 8.58108595,4.92304392 8.78567563,5.02572862 C8.88374922,5.07398372 8.95562139,5.15463544 8.98520714,5.24963388 C9.01479288,5.34463232 8.99962192,5.44604556 8.94308953,5.5311773 L6.80332499,11.8291018 L6.80332499,11.8291018 Z" id="Path" fill="#F8F8F8"></path>
                            <path d="M3.88857622,9.90166766 C3.74031047,10.0327774 3.50246586,10.0327774 3.35420011,9.90166766 L1.10777061,8.25371374 C1.02867446,8.18420449 0.995240612,8.09099601 1.00054196,8.00013838 C0.995240612,7.90851832 1.02867446,7.81607228 1.10777061,7.74656303 L3.35420011,6.09778313 C3.50186039,5.96740562 3.74091594,5.96740562 3.88857622,6.09778313 C3.95977593,6.16002313 3.99994427,6.24550172 3.99994427,6.33477539 C3.99994427,6.42404905 3.95977593,6.50952764 3.88857622,6.57176764 L1.94184972,8.00007485 L3.88857622,9.42844559 C3.95979969,9.49051806 4,9.57588435 4,9.66505663 C4,9.7542289 3.95979969,9.8395952 3.88857622,9.90166766 L3.88857622,9.90166766 Z" id="Path" fill="#F8F8F8"></path>
                        </g>
                    </g>
                </g>
            </g>
        </g>
    </g>
</svg>