<?xml version="1.0" encoding="UTF-8"?>
<svg width="16px" height="16px" viewBox="0 0 16 16" version="1.1" xmlns="http://www.w3.org/2000/svg" xmlns:xlink="http://www.w3.org/1999/xlink">
    <!-- Generator: Sketch 46.1 (44463) - http://www.bohemiancoding.com/sketch -->
    <title>下载-灰</title>
    <desc>Created with Sketch.</desc>
    <defs></defs>
    <g id="Page-2" stroke="none" stroke-width="1" fill="none" fill-rule="evenodd">
        <g id="源码" transform="translate(-29.000000, -332.000000)">
            <g id="Group-48" transform="translate(0.000000, 104.000000)">
                <g id="Group-6-Copy-4" transform="translate(5.000000, 215.000000)">
                    <g id="Group-23" transform="translate(24.000000, 11.000000)">
                        <g id="下载" transform="translate(0.000000, 2.000000)">
                            <rect id="Rectangle-28" x="0" y="0" width="16" height="16"></rect>
                            <path d="M8,15 C6.13014825,15 4.37237483,14.2718434 3.05022657,12.9497734 C1.72807832,11.6275469 1,9.86977343 1,8 C1,6.13014825 1.72807832,4.37237483 3.05022657,3.05022657 C4.3722965,1.72815664 6.13014825,1 8,1 C9.08499021,1 9.9271049,1.18288112 10.8161343,1.61169231 L10.8219301,1.61443357 L10.8278825,1.61662657 C10.860621,1.6290014 10.892028,1.64435245 10.9217902,1.66267972 L10.9241399,1.66408951 C11.0883571,1.76491649 11.1882177,1.94398303 11.1876923,2.13668252 C11.1876923,2.4429986 10.9383944,2.69221818 10.6320783,2.69221818 C10.5348442,2.69218975 10.4393205,2.66664114 10.3550545,2.61812587 L10.2323245,2.54724476 L10.2224559,2.56392727 C9.49038322,2.27531189 8.71664336,2.01191608 8,2.01191608 C4.69819301,2.01191608 2.01199441,4.69819301 2.01199441,8 C2.01199441,11.301807 4.69819301,13.9880056 8,13.9880056 C11.301807,13.9880056 13.9879273,11.301807 13.9879273,8 C13.9879273,7.31484196 13.6879552,6.53428811 13.4470378,5.90708811 L13.4393622,5.88727273 L13.3729455,5.71371189 L13.3709091,5.70807273 L13.3682462,5.70259021 C13.3325612,5.62799649 13.3141433,5.54632052 13.3143608,5.46363077 C13.3147061,5.15696004 13.5632258,4.90844041 13.8698965,4.9080951 C14.1000111,4.90899904 14.3060374,5.05088892 14.3889343,5.26555524 L14.391049,5.27072448 L14.3921455,5.27330909 C14.8125762,6.20392727 15,7.04486713 15,7.99992168 C15,9.8696951 14.2718434,11.6275469 12.9497734,12.9496951 C11.6277035,14.2718434 9.86977343,15 8,15 Z M7.90939241,10.9828898 L5.01199031,8.17461207 C5.00918406,8.17018703 5.00637782,8.16576199 5.00331647,8.1614107 C5.00217761,8.15491377 5.70280264,8.14854663 7.10519155,8.14230928 L7.10519155,6.17073279 C7.10533209,6.07649021 7.19338799,6.00012189 7.30205366,6 L8.71223266,6 C8.82087074,6.00012204 8.90887788,6.07651407 8.9089247,6.17073279 L8.9089247,8.14076052 L10.9935371,8.14017051 C10.9965544,8.14481619 10.9968379,8.15061791 10.9943875,8.15757567 C10.9924972,8.16030735 9.98426271,9.09969414 7.96968409,10.975736 C7.96694146,10.9774885 7.95840935,10.9836344 7.94408776,10.9941737 C7.91923577,10.9893165 7.91438498,10.9860198 7.90939241,10.9828898 Z M7.21818868,6 C7.09775101,5.99981165 7.00015584,5.88185774 7,5.7362963 L7,5.2637037 C7.00015584,5.11814226 7.09775101,5.00018835 7.21818868,5 L8.78181132,5 C8.90224899,5.00018835 8.99984416,5.11814226 9,5.2637037 L9,5.7362963 C8.99984416,5.88185774 8.90224899,5.99981165 8.78181132,6 L7.21818868,6 L7.21818868,6 Z" id="Shape" fill="#4F657B" fill-rule="nonzero"></path>
                        </g>
                    </g>
                </g>
            </g>
        </g>
    </g>
</svg>