<?xml version="1.0" encoding="UTF-8"?>
<svg width="16px" height="16px" viewBox="0 0 16 16" version="1.1" xmlns="http://www.w3.org/2000/svg" xmlns:xlink="http://www.w3.org/1999/xlink">
    <!-- Generator: Sketch 46.1 (44463) - http://www.bohemiancoding.com/sketch -->
    <title>钩子-灰</title>
    <desc>Created with Sketch.</desc>
    <defs></defs>
    <g id="Page-2" stroke="none" stroke-width="1" fill="none" fill-rule="evenodd">
        <g id="源码" transform="translate(-29.000000, -290.000000)">
            <g id="Group-48" transform="translate(0.000000, 104.000000)">
                <g id="Group-6-Copy-3" transform="translate(5.000000, 173.000000)">
                    <g id="Group-22" transform="translate(24.000000, 11.000000)">
                        <g id="webhook" transform="translate(0.000000, 2.000000)">
                            <rect id="Rectangle-27" x="0" y="0" width="16" height="16"></rect>
                            <path d="M11.7712848,8.60934422 C11.3961903,8.60926409 11.0239635,8.67405384 10.6713798,8.80079351 L9.21570792,6.30409391 C9.71735107,5.83391324 9.84888518,5.06686937 9.48876791,4.44915659 C9.06756871,3.72675583 8.13145184,3.47832305 7.40186297,3.89540227 C6.67235379,4.31252883 6.42149238,5.23957141 6.84269159,5.96197217 C7.04673362,6.31192104 7.37617447,6.56226326 7.77033061,6.66684078 C7.90007211,6.70139707 8.03383134,6.7189475 8.16818387,6.71904275 C8.33380016,6.71904137 8.49828764,6.69205386 8.65505452,6.63916174 L10.3747348,9.58871501 L10.3950052,9.57711633 L10.4008695,9.58656885 C10.8119176,9.33606883 11.2857847,9.20367025 11.7712689,9.20367026 C13.2153554,9.20367026 14.3902065,10.3670735 14.3902065,11.7970887 C14.3902065,13.2271039 13.2153554,14.3905071 11.7712689,14.3905071 C11.2858484,14.3905071 10.8119495,14.258077 10.4007898,14.0075454 L10.0862649,14.5137057 C10.5920195,14.8218993 11.1746962,14.9848332 11.7712689,14.9848332 C13.5462942,14.9848332 14.9903648,13.554818 14.9903648,11.7971045 C14.9903648,10.039391 13.5462942,8.60934422 11.7712848,8.60934422 L11.7712848,8.60934422 Z M7.92565689,6.09277692 C7.68636487,6.0292761 7.48633868,5.87729389 7.36246967,5.66480915 C7.10674783,5.22622109 7.25904631,4.66334562 7.70195008,4.41009979 C7.84240714,4.32956511 8.00184903,4.28718613 8.1641521,4.28724844 C8.48493982,4.28724844 8.79740904,4.4519971 8.96900576,4.74631961 C9.22471165,5.18493924 9.07242912,5.74778314 8.62949349,6.0009974 C8.41490198,6.12367518 8.16490109,6.15618306 7.92565689,6.09277692 L7.92565689,6.09277692 Z" id="Shape" stroke="#4F657B" stroke-width="0.34" fill="#4F657B" fill-rule="nonzero"></path>
                            <path d="M10.2582919,12.1752847 C10.4186698,12.8406073 11.0237044,13.3369205 11.7440027,13.3369205 C12.5864011,13.3369205 13.2717203,12.6582791 13.2717204,11.8240892 C13.2717204,10.9898992 12.5864012,10.3112578 11.7440027,10.3112578 C11.0043106,10.3112578 10.3858899,10.8345557 10.2460532,11.5269104 L6.80623046,11.5269104 L6.80623046,12.1149558 C6.75151811,12.4030228 6.64794851,12.6798377 6.49991247,12.9336651 C6.15013753,13.5335774 5.58540455,13.9626972 4.9096787,14.1419955 C4.23392098,14.3212306 3.52817208,14.229246 2.92238846,13.882895 C2.31657299,13.5365283 1.88323069,12.9772982 1.70216812,12.3081725 C1.52112145,11.639031 1.61404313,10.940159 1.96381806,10.3402466 C2.20652033,9.92392487 2.55927526,9.58372836 2.98393254,9.35642572 L2.69855419,8.83360122 C2.17611483,9.11321631 1.74232634,9.53147905 1.44405591,10.0430836 C1.01412388,10.7804759 0.899911991,11.6395044 1.12247141,12.4619852 C1.34499896,13.2844503 1.87766911,13.9718499 2.62231731,14.3976084 C3.11835104,14.6812159 3.66880555,14.8260969 4.22665425,14.8260495 C4.50623198,14.8260495 4.78776981,14.7896439 5.06505279,14.7160909 C5.8956109,14.4957001 6.58977447,13.9682203 7.01970648,13.2308281 C7.21011468,12.9042898 7.34054431,12.5469048 7.40493858,12.1752689 L10.2582919,12.1752689 L10.2582919,12.1752847 Z M11.7440027,10.9055996 C12.2554623,10.9055996 12.6715461,11.3176291 12.6715461,11.8241049 C12.6715462,12.3305808 12.2554623,12.7426103 11.7440027,12.7426103 C11.2325431,12.7426103 10.8164593,12.3305808 10.8164593,11.8241049 C10.8164593,11.3176291 11.2325431,10.9055996 11.7440027,10.9055996 Z" id="Shape" stroke="#4F657B" stroke-width="0.34" fill="#4F657B" fill-rule="nonzero"></path>
                            <path d="M2.7461863,11.9916152 C2.85182474,12.3819306 3.1045825,12.7081614 3.45799081,12.9101994 C3.69799994,13.0474111 3.96025545,13.1126004 4.21929192,13.1126004 C4.74765939,13.1126004 5.26227427,12.8412385 5.54489575,12.3564766 C5.91473386,11.722147 5.76627592,10.9301226 5.23070546,10.4640133 L6.95062478,7.51406547 L6.71684655,7.38040445 C6.36509557,7.15778861 6.07119156,6.85391887 5.8604087,6.49237132 C5.1383734,5.25394747 5.56840105,3.6647226 6.81901099,2.94969133 C7.42481053,2.60330886 8.13052756,2.51135576 8.80630122,2.69059093 C9.4819952,2.86990501 10.0467441,3.29902477 10.3965191,3.89895289 C10.6392532,4.31525886 10.7603812,4.7878855 10.7468517,5.26573552 L11.3468028,5.28241552 C11.3634239,4.69455949 11.2145516,4.11342596 10.9162812,3.60180566 C10.4863492,2.8644134 9.7921856,2.33694942 8.96162748,2.11654286 C8.13100563,1.89612052 7.26357208,2.00921953 6.51892388,2.4349938 C4.98172446,3.31387422 4.45314982,5.26729779 5.34064655,6.78953435 C5.53772553,7.12761469 5.79582003,7.42698547 6.10209109,7.67275441 L4.65759023,10.150328 C3.99555323,9.95521764 3.25901636,10.2259483 2.89883535,10.8436453 C2.6947774,11.1936099 2.64057974,11.6012997 2.7461863,11.9916152 L2.7461863,11.9916152 Z M3.41858157,11.1408083 C3.59021017,10.84647 3.90259971,10.6817371 4.22340335,10.6817371 C4.38570474,10.6816875 4.54514336,10.7240656 4.68560538,10.8045885 C5.12854103,11.0578185 5.28085542,11.6206782 5.02511765,12.0592979 C4.76939582,12.4978859 4.20098168,12.6487162 3.75806196,12.3954703 C3.54348638,12.2727925 3.39004054,12.074747 3.32591487,11.8377709 C3.2617892,11.6007948 3.29471256,11.353293 3.41858157,11.1408083 L3.41858157,11.1408083 Z" id="Shape" stroke="#4F657B" stroke-width="0.34" fill="#4F657B" fill-rule="nonzero"></path>
                        </g>
                    </g>
                </g>
            </g>
        </g>
    </g>
</svg>