<?xml version="1.0" encoding="UTF-8"?>
<svg width="16px" height="16px" viewBox="0 0 16 16" version="1.1" xmlns="http://www.w3.org/2000/svg" xmlns:xlink="http://www.w3.org/1999/xlink">
    <!-- Generator: Sketch 46.1 (44463) - http://www.bohemiancoding.com/sketch -->
    <title>成员-灰</title>
    <desc>Created with Sketch.</desc>
    <defs></defs>
    <g id="Page-2" stroke="none" stroke-width="1" fill="none" fill-rule="evenodd">
        <g id="源码" transform="translate(-29.000000, -248.000000)">
            <g id="Group-48" transform="translate(0.000000, 104.000000)">
                <g id="Group-6-Copy-2" transform="translate(5.000000, 131.000000)">
                    <g id="Group-42">
                        <rect id="Rectangle-4-Copy" x="0" y="0" width="180" height="42"></rect>
                        <rect id="Rectangle-26" x="24" y="13" width="16" height="16"></rect>
                        <path d="M38.9959127,26.490862 C38.7408545,24.6390273 37.6432341,22.0671159 36.145301,21.2970433 C36.8019563,20.7966396 37.2045648,20.0456869 37.2045648,19.2379918 C37.2045648,17.9664661 36.2174064,16.8607078 34.8578882,16.6092174 C34.6012565,16.5621661 34.3583685,16.7217762 34.3094151,16.9657822 C34.2600123,17.2102358 34.4265242,17.4458932 34.6803943,17.4929445 C35.6003121,17.6635419 36.2677245,18.39735 36.2677245,19.2379918 C36.2677245,19.9725561 35.750062,20.6393598 34.9785937,20.9008345 C34.7769362,20.9104484 34.5976922,21.0434542 34.5463787,21.2411188 C34.4841635,21.4825015 34.6364984,21.726955 34.8876391,21.7871849 C36.3789411,22.1447219 37.5699245,24.4457453 37.9707669,26.0995449 L25.9619993,26.099545 C26.1646523,24.3065668 27.5593964,21.7902559 29.427586,21.4068707 C29.647322,21.3618102 29.7979229,21.1753953 29.7980514,20.9678543 C29.8009574,20.7820721 29.6834309,20.6065674 29.4916155,20.5385136 C28.5154391,20.1929362 27.8599238,19.291617 27.8599238,18.2957632 C27.8599238,16.974995 28.9779187,15.9004395 30.3525292,15.9004395 C31.7266901,15.9004395 32.844685,16.974995 32.844685,18.2957632 C32.844685,19.286077 32.1963786,20.182813 31.2296429,20.5326033 C31.1948666,20.5436833 31.1615996,20.5586983 31.1305,20.5771855 C31.0450043,20.6351161 30.9999525,20.6843895 30.9673116,20.7401905 C30.9527653,20.7669954 30.9495702,20.7735693 30.9465357,20.7802204 C30.9095438,20.8614374 30.8972773,20.9528548 30.9149705,21.0436395 C30.9218263,21.0734535 30.9230625,21.0777126 30.9242988,21.0819718 C30.9347991,21.1137302 30.9352487,21.1152117 30.9358106,21.1166777 C30.9491849,21.1476183 30.9504854,21.1503805 30.951834,21.1531274 C30.9704103,21.1872006 30.9714378,21.1888826 30.9724814,21.1905801 C30.9874131,21.2133419 30.9907687,21.2181103 30.9942528,21.2228015 C31.0144506,21.2480941 31.0180631,21.2522915 31.0217719,21.2563963 C31.0462245,21.281442 31.0489218,21.2840499 31.0516834,21.2865961 C31.0721702,21.3044043 31.0769227,21.3081851 31.0817233,21.3119041 C31.1241259,21.3443878 31.1699324,21.3690014 31.2202825,21.38593 C31.2497444,21.3948341 31.2558776,21.3964544 31.2620911,21.3979358 C32.8269115,21.7185911 34.0857937,22.8177756 34.563815,24.2691114 C34.6269454,24.4608039 34.811295,24.5834705 35.0102712,24.5834705 C35.0569286,24.5834705 35.1045011,24.5768812 35.1516241,24.5623599 C35.3981889,24.4876088 35.534966,24.2343592 35.4567435,23.99739 C34.9893348,22.5772726 33.9047515,21.4356664 32.516253,20.8457588 C33.2996345,20.2307439 33.7815895,19.2980521 33.7815895,18.2957633 C33.7815895,16.4786036 32.2432126,15 30.3525934,15 C28.4615246,15 26.9231477,16.4786036 26.9231477,18.2957633 C26.9231477,19.3007989 27.4074147,20.235466 28.1943445,20.8503266 C26.2936585,21.6594876 25,24.4977038 25,26.5497802 C25,26.7986318 25.2095086,27 25.4684202,27 L38.1894593,27 C38.2499405,27 38.3076762,26.9888892 38.3607237,26.9688743 C38.4139478,26.9889972 38.471539,27 38.5311692,27 C38.5513029,27 38.5723356,26.9986729 38.5929188,26.9960495 C38.8495344,26.963504 39.0297738,26.7370901 38.9959127,26.490862 Z" id="Shape" fill="#4F657B" fill-rule="nonzero"></path>
                    </g>
                </g>
            </g>
        </g>
    </g>
</svg>