<?xml version="1.0" encoding="UTF-8"?>
<svg width="16px" height="16px" viewBox="0 0 16 16" version="1.1" xmlns="http://www.w3.org/2000/svg" xmlns:xlink="http://www.w3.org/1999/xlink">
    <!-- Generator: Sketch 46.1 (44463) - http://www.bohemiancoding.com/sketch -->
    <title>设置-高亮</title>
    <desc>Created with Sketch.</desc>
    <defs></defs>
    <g id="Page-2" stroke="none" stroke-width="1" fill="none" fill-rule="evenodd">
        <g id="源码" transform="translate(-29.000000, -374.000000)">
            <g id="Group-48" transform="translate(0.000000, 104.000000)">
                <g id="Group-6-Copy-5" transform="translate(5.000000, 257.000000)">
                    <g id="Group-24" transform="translate(24.000000, 11.000000)">
                        <g id="Group-44" transform="translate(0.000000, 2.000000)">
                            <rect id="Rectangle-29" x="0" y="0" width="16" height="16"></rect>
                            <g id="Group-34" transform="translate(1.000000, 1.000000)" fill="#1891F0">
                                <path d="M10.1020334,13.2580147 C10.1001188,13.2563762 9.2426067,12.4058753 7.52949712,10.7065119 C6.91239794,10.9441699 6.24251897,11.0754123 5.54139971,11.0754123 C2.48098538,11.0754123 0,8.59600955 0,5.53770615 C0,4.71800524 0.18847875,3.94590438 0.509050583,3.24660361 C0.529154132,3.15560351 0.567558293,3.07020341 0.631474815,2.99566111 C0.66341712,2.93476104 0.688195542,2.86966097 0.7222918,2.80980312 L0.788346318,2.87140319 C1.01020334,2.74786083 1.29200404,2.77096086 1.48048279,2.95960329 L4.10112402,5.59476399 L5.60386431,4.08136231 L2.98896696,1.45181717 C2.80911997,1.27225919 2.77679474,1.00661667 2.88091836,0.789616433 L2.81234292,0.721016357 C2.86655868,0.690216322 2.92578438,0.667458519 2.98142015,0.638758488 C3.08267184,0.533416148 3.20220818,0.487916098 3.32426544,0.471458302 C4.00384518,0.17325797 4.75089944,0 5.5410487,0 C8.60146304,0 11.0824484,2.47940275 11.0824484,5.53770615 C11.0824484,5.61296401 11.0749016,5.68610632 11.0713117,5.7603064 C11.0715457,5.76450641 11.07454,5.78865384 11.0802945,5.8327487 C11.0802945,5.86250651 11.0677377,5.88804876 11.0634298,5.91640657 C11.0601909,5.95944884 11.0609249,6.00320667 11.056968,6.04590672 C10.9589711,6.25346473 10.7493039,6.41552268 10.4969405,6.41552268 C10.2399023,6.41552268 10.028464,6.24648027 9.95055478,6.01582224 L9.89383405,6.01582224 C9.91178365,5.85376428 9.92327139,5.6899641 9.92327139,5.52337947 C9.92327139,3.096819 7.95491056,1.12983237 5.52668902,1.12983237 C5.15477336,1.12983237 4.79614838,1.1812902 4.45186713,1.2694903 L6.72213221,3.55219284 C6.74691063,3.57703509 6.75839837,3.6081929 6.77778394,3.63583515 C6.79573354,3.65019294 6.81764002,3.6564774 6.8341377,3.67327741 C7.06208961,3.90077767 7.06208961,4.27003586 6.8341377,4.49753611 L4.50930584,6.83868093 C4.28133797,7.06653896 3.91194324,7.06653896 3.68434234,6.83868093 C3.65777694,6.8120809 3.64485323,6.77848086 3.62438271,6.74838083 C3.60464613,6.73333859 3.58130368,6.72598081 3.56335408,6.70778079 L1.27981427,4.41142046 C1.18539141,4.76667863 1.12975564,5.13732126 1.12975564,5.52232169 C1.12975564,7.94888217 3.09846748,9.9158688 5.52668902,9.9158688 C6.3491316,9.9158688 7.11630537,9.68592632 7.7746966,9.29321033 L8.62156658,10.1395113 C8.62060927,10.1402165 8.95195618,10.4715502 9.61560731,11.1335124 C9.61560731,11.1332842 9.65617074,11.1735317 9.7372976,11.2542547 L10.9176631,12.4264138 C10.9316558,12.4404138 10.9370487,12.4589561 10.9492544,12.4736561 C11.148487,12.6997563 11.4338936,12.8481565 11.7591403,12.8481565 C12.3608108,12.8481565 12.8486888,12.3605982 12.8486888,11.7592975 C12.8486888,11.513255 12.7639667,11.2885392 12.6261138,11.1061968 L12.6738677,11.0575545 C12.5837527,11.0309545 12.4972437,10.9899967 12.4261633,10.9189544 L9.59084484,8.10389345 C9.36289293,7.8763932 9.36289293,7.50713501 9.59084484,7.27963476 C9.81881271,7.05177672 10.1882074,7.05177672 10.4158083,7.27963476 L13.2511267,10.0946957 C13.3186172,10.1622535 13.3598933,10.2434536 13.3871927,10.3284959 L13.4324257,10.2822959 C13.7813658,10.6774541 13.9999999,11.1901969 13.9999999,11.7585975 C14.0003509,12.9968989 12.9966254,14 11.7584542,14 C11.0993131,14.0000156 10.5123692,13.7105575 10.1020334,13.2580147 Z" id="Shape" stroke="#F8F8F8" stroke-width="0.2" fill-rule="nonzero"></path>
                                <path d="M6.67221448,4.11104788 L4.37208512,1.66238753 L4.14956267,0.890135998 L5.41088858,0.890135998 L8.16757261,1.35162343 L9.50964967,3.0912447 L10.2524873,5.10618725 L10.9586473,6.00245127 C10.8329851,6.28306046 10.7281249,6.49773948 10.6440669,6.64648834 C10.5600088,6.79523719 10.4294823,6.9433419 10.2524873,7.09080244 L9.70001781,7.69278229 L12.2160926,10.034018 C12.6244316,10.3581453 12.8903136,10.6298385 13.0137387,10.8490976 C13.1371638,11.0683566 13.1371638,11.2689908 13.0137387,11.451 L13.0137387,12.2384152 L12.5721162,13.0777158 L11.5982183,13.0777158 C11.2145589,12.7693267 10.9578725,12.6151322 10.8281591,12.6151322 C10.633589,12.6151322 9.50964967,11.451 9.50964967,11.451 C9.50964967,11.451 8.99572879,11.1828038 8.5816507,10.4799764 C8.30559864,10.0114247 8.01071929,9.79524789 7.69701267,9.83144584 L7.35572451,9.83144584 L6.67221448,10.034018 L6.04721507,10.034018 L5.41088858,10.034018 C5.08910188,10.034018 4.83552129,10.034018 4.65014682,10.034018 C4.37208512,10.034018 4.06698456,10.034018 3.94110774,10.034018 C3.81523092,10.034018 3.36817639,9.52448181 3.22731859,9.52448181 C3.08646079,9.52448181 2.48557711,9.41468215 2.36865235,9.21992934 C2.25172758,9.02517653 1.97805055,8.94826195 1.90204945,8.80027905 C1.82604836,8.65229614 1.64627653,8.4765436 1.55127516,8.22880926 C1.45627379,7.98107491 1.63111285,8.29476213 1.45627379,7.69278229 C1.28143473,7.09080244 1.07791256,6.85128937 1.06293157,6.64648834 C1.05294425,6.50995431 0.973532844,6.12672122 0.824697362,5.49678905 C0.824697362,5.51469315 0.824697362,5.38449255 0.824697362,5.10618725 C0.824697362,4.82788195 0.904108765,4.49616883 1.06293157,4.11104788 L1.90204945,4.58221815 C2.05356446,4.52034546 2.20909876,4.61960971 2.36865235,4.88001091 C2.60798272,5.2706127 2.63521386,5.23937187 2.89610224,5.49678905 C3.15699062,5.75420622 3.32597386,5.84226519 3.52383248,6.07209543 C3.72169111,6.30192567 3.75238386,6.64648834 3.94110774,6.64648834 C4.12983162,6.64648834 3.94110774,6.64648834 4.14956267,6.64648834 C4.35801761,6.64648834 4.34066159,6.54019625 4.65014682,6.310366 C4.95963206,6.08053576 5.59326794,5.2496523 5.59326794,5.2496523 C5.59326794,5.2496523 6.07489525,4.74316088 6.2647153,4.74316088 C6.45453535,4.74316088 6.42361214,4.57972001 6.42361214,4.28192725 C6.42361214,4.08339874 6.50647959,4.02643895 6.67221448,4.11104788 Z" id="Path-8"></path>
                            </g>
                        </g>
                    </g>
                </g>
            </g>
        </g>
    </g>
</svg>