<?xml version="1.0" encoding="UTF-8"?>
<svg width="16px" height="16px" viewBox="0 0 16 16" version="1.1" xmlns="http://www.w3.org/2000/svg" xmlns:xlink="http://www.w3.org/1999/xlink">
    <!-- Generator: Sketch 46.1 (44463) - http://www.bohemiancoding.com/sketch -->
    <title>成员-高亮</title>
    <desc>Created with Sketch.</desc>
    <defs></defs>
    <g id="Page-2" stroke="none" stroke-width="1" fill="none" fill-rule="evenodd">
        <g id="源码" transform="translate(-29.000000, -248.000000)">
            <g id="Group-48" transform="translate(0.000000, 104.000000)">
                <g id="Group-6-Copy-2" transform="translate(5.000000, 131.000000)">
                    <g id="Group-33" transform="translate(24.000000, 13.000000)">
                        <rect id="Rectangle-26" x="0" y="0" width="16" height="16"></rect>
                        <path d="M14.9959127,13.490862 C14.7408545,11.6390273 13.6432341,9.06711594 12.145301,8.29704333 C12.8019563,7.79663964 13.2045648,7.0456869 13.2045648,6.23799181 C13.2045648,4.96646615 12.2174064,3.8607078 10.8578882,3.6092174 C10.6012565,3.56216615 10.3583685,3.7217762 10.3094151,3.96578223 C10.2600123,4.21023575 10.4265242,4.44589322 10.6803943,4.49294448 C11.6003121,4.6635419 12.2677245,5.39735002 12.2677245,6.23799181 C12.2677245,6.97255608 11.750062,7.63935977 10.9785937,7.90083446 C10.7769362,7.91044842 10.5976922,8.04345422 10.5463787,8.24111885 C10.4841635,8.48250148 10.6364984,8.72695501 10.8876391,8.78718493 C12.3789411,9.14472194 13.5699245,11.4457453 13.9707669,13.0995449 L1.96199934,13.099545 C2.16465228,11.3065668 3.55939637,8.79025585 5.42758602,8.40687074 C5.64732204,8.36181018 5.79792293,8.17539526 5.79805137,7.96785435 C5.80095742,7.78207214 5.68343092,7.60656742 5.49161548,7.53851364 C4.51543911,7.19293618 3.85992384,6.29161697 3.85992384,5.29576318 C3.85992384,3.97499497 4.97791873,2.90043952 6.35252919,2.90043952 C7.7266901,2.90043952 8.84468498,3.97499498 8.84468498,5.29576318 C8.84468498,6.28607699 8.19637864,7.18281298 7.22964292,7.5326033 C7.19486664,7.54368326 7.16159957,7.5586983 7.1305,7.57718548 C7.0450043,7.63511609 6.99995248,7.6843895 6.96731157,7.74019052 C6.95276527,7.76699538 6.94957021,7.7735693 6.94653572,7.78022036 C6.90954376,7.86143739 6.89727733,7.95285478 6.91497054,8.04363945 C6.92182626,8.0734535 6.92306254,8.07771264 6.92429881,8.0819718 C6.93479912,8.11373023 6.93524868,8.11521167 6.93581063,8.11667769 C6.94918487,8.14761827 6.95048537,8.15038054 6.95183404,8.15312738 C6.97041029,8.18720058 6.97143783,8.18888263 6.97248144,8.19058012 C6.98741309,8.21334187 6.9907687,8.21811025 6.99425276,8.2228015 C7.01445062,8.24809406 7.01806311,8.25229148 7.02177194,8.2563963 C7.0462245,8.28144196 7.04892184,8.28404991 7.05168339,8.28659615 C7.07217024,8.30440432 7.07692269,8.30818509 7.08172328,8.31190413 C7.12412593,8.34438785 7.16993237,8.36900142 7.22028252,8.38592999 C7.24974441,8.39483407 7.25587762,8.3964544 7.26209112,8.39793585 C8.82691149,8.71859112 10.0857937,9.81777556 10.563815,11.2691114 C10.6269454,11.4608039 10.811295,11.5834705 11.0102712,11.5834705 C11.0569286,11.5834705 11.1045011,11.5768812 11.1516241,11.5623599 C11.3981889,11.4876088 11.534966,11.2343592 11.4567435,10.99739 C10.9893348,9.57727256 9.90475148,8.43566637 8.51625297,7.84575884 C9.29963451,7.23074393 9.78158948,6.29805207 9.78158948,5.29576327 C9.78158948,3.47860362 8.24321258,2 6.35259336,2 C4.46152459,2 2.92314769,3.47860362 2.92314769,5.29576327 C2.92314769,6.30079892 3.40741466,7.23546603 4.19434446,7.85032662 C2.29365848,8.65948763 1,11.4977038 1,13.5497802 C1,13.7986318 1.20950865,14 1.46842015,14 L14.1894593,14 C14.2499405,14 14.3076762,13.9888892 14.3607237,13.9688743 C14.4139478,13.9889972 14.471539,14 14.5311692,14 C14.5513029,14 14.5723356,13.9986729 14.5929188,13.9960495 C14.8495344,13.963504 15.0297738,13.7370901 14.9959127,13.490862 Z" id="Shape" fill="#1891F0" fill-rule="nonzero"></path>
                        <path d="M4,13.2076172 C4.23412416,13.2076172 7.19754949,13.4327051 9.29643618,13.3445297 C10.1546563,13.3084753 11.841296,13.6767536 11.7827643,13.2076172 C11.5985815,11.731378 10.935515,10.7697654 10.7021389,10.4051139 C10.3404169,9.83992098 10.0718029,11.1384733 10.2237572,10.8990241 C10.506808,10.4529934 7.42781007,8.52639043 7.65010689,8.17989188 C7.94639713,7.7180583 8.16932574,7.38437952 8.26718699,7.28480386 C8.71993881,6.8241203 9,6.19065089 9,5.5 C9,4.11928813 7.88071187,3 6.5,3 C5.11928813,3 4,4.11928813 4,5.5 C4,6.19065089 4.28006119,6.8241203 4.73281301,7.28480386 C4.95142348,7.50724415 2.79244852,10.1046352 2.47609573,11.2248864 C2.32039757,11.7762362 1.36923987,12.8675192 1.70296756,13.2076172 C2.09429286,13.6064122 3.80754606,13.2076172 4,13.2076172 Z" id="Oval-8" stroke="#1891F0" stroke-width="0.9" fill="#1891F0"></path>
                    </g>
                </g>
            </g>
        </g>
    </g>
</svg>