<?xml version="1.0" encoding="UTF-8"?>
<svg width="54px" height="54px" viewBox="0 0 54 54" version="1.1" xmlns="http://www.w3.org/2000/svg" xmlns:xlink="http://www.w3.org/1999/xlink">
    <!-- Generator: Sketch 46.1 (44463) - http://www.bohemiancoding.com/sketch -->
    <title>目录权限@1x</title>
    <desc>Created with Sketch.</desc>
    <defs></defs>
    <g id="切图" stroke="none" stroke-width="1" fill="none" fill-rule="evenodd">
        <g id="首页" transform="translate(-757.000000, -1062.000000)">
            <g id="Group-32" transform="translate(120.000000, 780.000000)">
                <g id="Group-28" transform="translate(0.000000, 110.000000)">
                    <g id="Group-10-Copy-4" transform="translate(637.000000, 172.000000)">
                        <g id="Group-37">
                            <rect id="Rectangle-23" x="0" y="6" width="48" height="48"></rect>
                            <path d="M44.7502111,46 L13.25,46 C10.3492842,46 8,43.6507158 8,40.75 L8,9.25 C8,6.34928422 10.3494953,4 13.25,4 L44.75,4 C47.6507158,4 50,6.34928422 50,9.25 L50,40.75 C50.0002111,43.6507158 47.6507158,46 44.7502111,46 Z" id="Path" fill="#DEECF1"></path>
                            <path d="M39.7502111,51 L8.25,51 C5.34928422,51 3,48.6507158 3,45.75 L3,14.25 C3,11.3492842 5.34949534,9 8.25,9 L39.75,9 C42.6507158,9 45,11.3492842 45,14.25 L45,45.75 C45.0002111,48.6507158 42.6507158,51 39.7502111,51 Z" id="Shape" fill="#4F657B" fill-rule="nonzero"></path>
                            <g id="Group-15" transform="translate(8.000000, 14.000000)">
                                <rect id="Rectangle-9" x="0" y="0" width="32" height="32"></rect>
                                <g id="目录" transform="translate(2.000000, 2.000000)" fill-rule="nonzero" fill="#FFFFFF">
                                    <path d="M23.5056192,7.77024581 C23.5056192,8.44202859 22.961636,8.98658758 22.290603,8.98658758 L11.0111464,8.98658758 C10.3401134,8.98658758 9.79616219,8.44199659 9.79616219,7.77024581 C9.79616219,7.09846302 10.3401454,6.55387203 11.0111464,6.55387203 L22.290603,6.55387203 C22.961636,6.55390403 23.5056192,7.09849502 23.5056192,7.77024581 L23.5056192,7.77024581 Z M23.5056192,13.6702109 C23.5056192,14.3419937 22.961636,14.8865526 22.290603,14.8865526 L11.0111464,14.8865526 C10.3401134,14.8865526 9.79616219,14.3419617 9.79616219,13.6702109 C9.79616219,12.9984281 10.3401454,12.4538371 11.0111464,12.4538371 L22.290603,12.4538371 C22.961636,12.4538371 23.5056192,12.9984281 23.5056192,13.6702109 L23.5056192,13.6702109 Z M23.5056192,19.5701439 C23.5056192,20.2419267 22.961636,20.7864857 22.290603,20.7864857 L11.0111464,20.7864857 C10.3401134,20.7864857 9.79616219,20.2418947 9.79616219,19.5701439 C9.79616219,18.8983611 10.3401454,18.3537701 11.0111464,18.3537701 L22.290603,18.3537701 C22.961636,18.3538022 23.5056192,18.8983611 23.5056192,19.5701439 L23.5056192,19.5701439 Z" id="Shape"></path>
                                    <path d="M6.35615853,5.79238587 C5.35117591,5.79238587 4.53365019,6.61082503 4.53365019,7.61693054 C4.53365019,8.62303605 5.35117591,9.4414752 6.35615853,9.44147517 C7.36114116,9.44147514 8.17866687,8.62303602 8.17866687,7.61693054 C8.17866687,6.61082506 7.36114116,5.79238587 6.35615853,5.79238587 Z M6.35615853,11.692447 C5.35117591,11.692447 4.53365019,12.5108861 4.53365019,13.5169916 C4.53365019,14.5230972 5.35117591,15.3415363 6.35615853,15.3415363 C7.36114116,15.3415363 8.17866687,14.5230972 8.17866687,13.5169916 C8.17866687,12.5108861 7.36114116,11.692447 6.35615853,11.692447 Z M6.35615853,17.5924761 C5.35117591,17.5924761 4.53365019,18.4109152 4.53365019,19.4170207 C4.53365019,20.4231262 5.35117591,21.2415654 6.35615853,21.2415654 C7.36114116,21.2415654 8.17866687,20.4231262 8.17866687,19.4170207 C8.17863491,18.4109152 7.36114116,17.5924761 6.35615853,17.5924761 L6.35615853,17.5924761 Z" id="Shape"></path>
                                    <path d="M24.3183162,0.00398976536 L3.682899,0.00398976536 C1.66759337,0.00398976536 0.0278091562,1.64499787 0.0278091562,3.66255524 L0.0278091562,24.3210288 C0.0278091562,26.3385861 1.66759337,27.9802025 3.682899,27.9802025 L24.3183162,27.9802025 C26.3336218,27.9802025 27.9727984,26.3385861 27.9727984,24.3210288 L27.9727984,3.66258724 C27.9728304,1.64502988 26.3336538,0.00398973408 24.3183162,0.00398976536 Z M25.54283,24.3210608 C25.54283,24.9975496 24.9934744,25.5475189 24.3183482,25.547519 L3.682899,25.547519 C3.00716516,25.547519 2.45780962,24.9975496 2.45780959,24.3210608 L2.45780959,3.66258724 C2.45780959,2.98670666 3.00716512,2.43673729 3.682899,2.43673732 L24.3183162,2.43673732 C24.9934424,2.43673732 25.542798,2.98670666 25.542798,3.66258724 L25.542798,24.3210608 L25.54283,24.3210608 Z" id="Shape"></path>
                                </g>
                            </g>
                        </g>
                    </g>
                </g>
            </g>
        </g>
    </g>
</svg>