<?xml version="1.0" encoding="UTF-8"?>
<svg width="10px" height="10px" viewBox="0 0 10 10" version="1.1" xmlns="http://www.w3.org/2000/svg" xmlns:xlink="http://www.w3.org/1999/xlink">
    <!-- Generator: Sketch 46.1 (44463) - http://www.bohemiancoding.com/sketch -->
    <title>下拉选择项目-删除</title>
    <desc>Created with Sketch.</desc>
    <defs></defs>
    <g id="Page-1" stroke="none" stroke-width="1" fill="none" fill-rule="evenodd">
        <g id="成员-目录权限选择目录" transform="translate(-484.000000, -312.000000)" fill-rule="nonzero" fill="#464646">
            <g id="Group-18" transform="translate(210.000000, 171.000000)">
                <g id="Group-17">
                    <g id="Group-53" transform="translate(274.000000, 141.000000)">
                        <path d="M9.72263809,1.63565017 L6.35901907,5.00077609 L9.71953368,8.36124547 C10.0934888,8.73674307 10.0934888,9.34390524 9.71953368,9.71940284 C9.34349954,10.0935324 8.73583997,10.0935324 8.35980583,9.71940284 L5.00084341,6.35893346 L1.6434332,9.7147463 C1.26739906,10.0888758 0.659739484,10.0888758 0.283705344,9.7147463 C-0.0902497439,9.3392487 -0.0902497439,8.73208653 0.283705344,8.35658893 L3.63956336,5.00077609 L0.280600942,1.64030671 C-0.0935336474,1.26427764 -0.0935336474,0.656626242 0.280600942,0.280597165 C0.656635082,-0.0935323882 1.26429466,-0.0935323882 1.6403288,0.280597165 L5.00084341,3.64106654 L8.36446243,0.277492805 C8.74261327,-0.0785022307 9.33521511,-0.0695643063 9.70245749,0.297673132 C10.0696999,0.66491057 10.0786379,1.25750443 9.72263809,1.63565017 L9.72263809,1.63565017 Z" id="Shape"></path>
                    </g>
                </g>
            </g>
        </g>
    </g>
</svg>