<?xml version="1.0" encoding="UTF-8"?>
<svg width="50px" height="50px" viewBox="0 0 50 50" version="1.1" xmlns="http://www.w3.org/2000/svg" xmlns:xlink="http://www.w3.org/1999/xlink">
    <!-- Generator: Sketch 46.1 (44463) - http://www.bohemiancoding.com/sketch -->
    <title>Github</title>
    <desc>Created with Sketch.</desc>
    <defs></defs>
    <g id="Page-1" stroke="none" stroke-width="1" fill="none" fill-rule="evenodd">
        <g id="账号设置-账号绑定" transform="translate(-475.000000, -302.000000)">
            <g id="Group-55" transform="translate(475.000000, 302.000000)">
                <rect id="Rectangle-16-Copy-2" x="0" y="0" width="50" height="50"></rect>
                <g id="github" transform="translate(5.000000, 5.000000)" fill-rule="nonzero" fill="#000000">
                    <path d="M19.9804878,0 C8.9475122,0 0,9.1875 0,20.50875 C0,29.57125 5.72690732,37.25 13.6654049,39.96375 C13.7902829,39.99 13.897678,40 14.0038244,40 C14.7443512,40 15.0290732,39.455 15.0290732,38.9825 C15.0290732,38.49125 15.0115902,37.20625 15.0028488,35.49125 C14.2535805,35.66125 13.5842341,35.7325 12.9873171,35.7325 C9.14232195,35.7325 8.26942439,32.74125 8.26942439,32.74125 C7.35906341,30.375 6.0478439,29.74125 6.0478439,29.74125 C4.30829268,28.5175 6.03910244,28.4825 6.17272195,28.4825 C6.18146341,28.4825 6.18146341,28.4825 6.18146341,28.4825 C8.18825366,28.66125 9.24097561,30.6075 9.24097561,30.6075 C10.24,32.3575 11.5774439,32.84875 12.7737756,32.84875 C13.710361,32.84875 14.5582829,32.545 15.0577951,32.3125 C15.2363707,30.99125 15.7533659,30.08875 16.3240585,29.57125 C11.8908878,29.05375 7.2254439,27.295 7.2254439,19.4375 C7.2254439,17.19625 8.00093659,15.36625 9.27719024,13.9375 C9.07239024,13.42 8.38556098,11.33 9.47324878,8.50875 C9.47324878,8.50875 9.61560976,8.46375 9.91906341,8.46375 C10.6421073,8.46375 12.2742634,8.74 14.9678829,10.615 C16.5650732,10.16 18.2684098,9.93625 19.9717463,9.9275 C21.6663415,9.93625 23.3796683,10.16 24.9756098,10.615 C27.6692293,8.74 29.3013854,8.46375 30.0244293,8.46375 C30.3278829,8.46375 30.4702439,8.50875 30.4702439,8.50875 C31.5579317,11.33 30.8711024,13.41875 30.6663024,13.9375 C31.9413073,15.375 32.7180488,17.205 32.7180488,19.4375 C32.7180488,27.3125 28.0438634,29.045 23.5932098,29.55375 C24.3062634,30.1875 24.9493854,31.4375 24.9493854,33.34875 C24.9493854,36.09 24.923161,38.30375 24.923161,38.97375 C24.923161,39.45625 25.1991415,40 25.9396683,40 C26.0470634,40 26.1719415,39.99125 26.2968195,39.96375 C34.2440585,37.25 39.9622244,29.5625 39.9622244,20.50875 C39.9622244,9.1875 31.015961,0 19.9817366,0 L19.9804878,0 Z" id="Shape"></path>
                </g>
            </g>
        </g>
    </g>
</svg>