<?xml version="1.0" encoding="UTF-8"?>
<svg width="22px" height="22px" viewBox="0 0 22 22" version="1.1" xmlns="http://www.w3.org/2000/svg" xmlns:xlink="http://www.w3.org/1999/xlink">
    <!-- Generator: Sketch 46.1 (44463) - http://www.bohemiancoding.com/sketch -->
    <title>头部-项目+高亮</title>
    <desc>Created with Sketch.</desc>
    <defs></defs>
    <g id="Page-2" stroke="none" stroke-width="1" fill="none" fill-rule="evenodd">
        <g id="我的项目-显示1" transform="translate(-1069.000000, -21.000000)">
            <g id="Group-5" transform="translate(1069.000000, 21.000000)">
                <rect id="Rectangle-11" x="0" y="0" width="22" height="22"></rect>
                <path d="M10.0695447,3.5 L10.0695447,10.027213 L3.5,10.027213 L3.5,10.027213 C3.22385763,10.027213 3,10.2510707 3,10.527213 L3,11.4304553 L3,11.4304553 C3,11.7065977 3.22385763,11.9304553 3.5,11.9304553 L10.0695447,11.9304553 L10.0695447,18.5 L10.0695447,18.5 C10.0695447,18.7761424 10.2934023,19 10.5695447,19 L11.472787,19 L11.472787,19 C11.7489293,19 11.972787,18.7761424 11.972787,18.5 L11.972787,11.9304553 L18.5,11.9304553 L18.5,11.9304553 C18.7761424,11.9304553 19,11.7065977 19,11.4304553 L19,10.527213 L19,10.527213 C19,10.2510707 18.7761424,10.027213 18.5,10.027213 L11.972787,10.027213 L11.972787,3.5 L11.972787,3.5 C11.972787,3.22385763 11.7489293,3 11.472787,3 L10.5695447,3 L10.5695447,3 C10.2934023,3 10.0695447,3.22385763 10.0695447,3.5 Z" id="+" stroke="#1891F0" stroke-width="2" fill="#1891F0"></path>
            </g>
        </g>
    </g>
</svg>