<?xml version="1.0" encoding="UTF-8"?>
<svg width="22px" height="22px" viewBox="0 0 22 22" version="1.1" xmlns="http://www.w3.org/2000/svg" xmlns:xlink="http://www.w3.org/1999/xlink">
    <!-- Generator: Sketch 46.1 (44463) - http://www.bohemiancoding.com/sketch -->
    <title>头部-通知</title>
    <desc>Created with Sketch.</desc>
    <defs></defs>
    <g id="Page-2" stroke="none" stroke-width="1" fill="none" fill-rule="evenodd">
        <g id="我的项目-显示1" transform="translate(-1183.000000, -21.000000)">
            <g id="Group-30">
                <g id="Group-3" transform="translate(1183.000000, 21.000000)">
                    <rect id="Rectangle-2" x="0" y="0" width="22" height="22"></rect>
                    <g id="通知-(2)" transform="translate(3.000000, 1.000000)" fill="#808080">
                        <path d="M13.7724675,11.6940065 L13.7724675,7.57445453 C13.7724675,6.04342517 13.1698701,4.60582895 12.0748052,3.52497744 C11.5636364,3.01958911 10.9714286,2.62249827 10.3293506,2.34219886 C10.3168831,1.05324627 9.28831169,0.00849392154 8.02493506,0.00849392154 C6.76779221,0.00849392154 5.7412987,1.04262887 5.72051948,2.32308754 C5.06181818,2.60338695 4.45506494,3.0089717 3.93142857,3.52497744 C2.83636364,4.60582895 2.23376623,6.04342517 2.23376623,7.57445453 L2.23376623,11.6770186 C2.15480519,11.7768222 2.0612987,11.8914902 1.95948052,12.018899 C0.667012987,13.6263736 0.0103896104,14.5670754 0.0103896104,15.2487126 C0.0103896104,15.754101 0.224415584,16.0620056 0.403116883,16.2318841 C0.73974026,16.5525296 1.16363636,16.5907522 1.35272727,16.5907522 L1.40467532,16.5907522 L4.21622613,16.5865053 C4.43856379,17.9773849 5.62090145,19.9936296 7.98545455,19.9936296 C10.3500076,19.9936296 11.5323453,17.9773849 11.754683,16.5865053 L14.5890909,16.5907522 L14.641039,16.5907522 C14.8301299,16.5907522 15.254026,16.5504061 15.5906494,16.2318841 C15.7693506,16.0620056 15.9833766,15.7519775 15.9833766,15.2487126 C15.9812987,14.5670754 15.3246753,13.6263736 14.0322078,12.018899 C13.9366234,11.8999841 13.8472727,11.7895631 13.7724675,11.6940065 Z M8.02493506,1.36752137 C8.40935065,1.36752137 8.7438961,1.59685725 8.90181818,1.92812019 C8.60675325,1.8835271 8.30753247,1.86016882 8.00415584,1.86016882 C7.7174026,1.86016882 7.43272727,1.88140362 7.15220779,1.92174975 C7.31220779,1.59261029 7.6425974,1.36752137 8.02493506,1.36752137 L8.02493506,1.36752137 Z M7.98545455,17.6800977 C7.29974026,17.6800977 6.71792208,17.217179 6.52051948,16.5822583 L7.99584416,16.5801348 L9.45038961,16.5822583 C9.25298701,17.217179 8.67116883,17.6800977 7.98545455,17.6800977 Z" id="Shape" fill-rule="nonzero"></path>
                        <path d="M14.6285714,15.2296013 L14.6036364,15.2296013 L9.37974026,15.2232309 C9.35688312,15.2211074 9.33402597,15.2189839 9.31116883,15.2189839 L7.99584416,15.2211074 L6.68051948,15.2189839 C6.65766234,15.2189839 6.63480519,15.2211074 6.61194805,15.2232309 L1.38805195,15.2296013 C1.36519481,15.2296013 1.36727273,15.2274778 1.35064935,15.2296013 C1.38181818,15.1340447 1.49402597,14.8686097 1.90753247,14.2825291 C2.24831169,13.800499 2.65974026,13.2908637 2.98805195,12.881032 C3.16675325,12.6580666 3.3225974,12.4648299 3.42857143,12.3246802 C3.53662338,12.1802835 3.57818182,12.0061581 3.56155844,11.8384031 C3.56363636,11.8129214 3.56571429,11.7853161 3.56571429,11.7598344 L3.56571429,7.57233105 C3.56571429,5.17067474 5.55636364,3.21707278 8.00415584,3.21707278 C10.4519481,3.21707278 12.4425974,5.17067474 12.4425974,7.57233105 L12.4425974,11.7746987 C12.4051948,11.961565 12.4446753,12.1611722 12.5651948,12.3246802 C12.6711688,12.4648299 12.8249351,12.6580666 13.0057143,12.881032 C13.3361039,13.2908637 13.7454545,13.800499 14.0862338,14.2825291 C14.4997403,14.8686097 14.614026,15.1361682 14.6431169,15.2296013 L14.6285714,15.2296013 Z" id="Path"></path>
                    </g>
                </g>
            </g>
        </g>
    </g>
</svg>