<?xml version="1.0" encoding="UTF-8"?>
<svg width="22px" height="22px" viewBox="0 0 22 22" version="1.1" xmlns="http://www.w3.org/2000/svg" xmlns:xlink="http://www.w3.org/1999/xlink">
    <!-- Generator: Sketch 46.1 (44463) - http://www.bohemiancoding.com/sketch -->
    <title>头部-项目列表-灰</title>
    <desc>Created with Sketch.</desc>
    <defs></defs>
    <g id="Page-1" stroke="none" stroke-width="1" fill="none" fill-rule="evenodd">
        <g id="我的项目-显示1" transform="translate(-1069.000000, -21.000000)">
            <g id="Group-30">
                <g id="项目列表" transform="translate(1069.000000, 21.000000)">
                    <rect id="头部-项目列表" x="0" y="0" width="22" height="22"></rect>
                    <path d="M6.06735374,18.0518989 L6.06735374,15.7204034 L6.06735374,15.7204034 C6.06735374,15.1967817 5.64287441,14.7723023 5.11925262,14.7723023 L2.94810111,14.7723023 L2.94810111,14.7723023 C2.42447933,14.7723023 2,15.1967817 2,15.7204034 L2,18.0518989 L2,18.0518989 C2,18.5755207 2.42447933,19 2.94810111,19 L5.11925262,19 L5.11925262,19 C5.64287441,19 6.06735374,18.5755207 6.06735374,18.0518989 Z M2,3.94810111 L2,6.27959655 L2,6.27959655 C2,6.80321834 2.42447933,7.22769767 2.94810111,7.22769767 L5.11925262,7.22769767 L5.11925262,7.22769767 C5.64287441,7.22769767 6.06735374,6.80321834 6.06735374,6.27959655 L6.06735374,3.94810111 L6.06735374,3.94810111 C6.06735374,3.42447933 5.64287441,3 5.11925262,3 L2.94810111,3 L2.94810111,3 C2.42447933,3 2,3.42447933 2,3.94810111 Z M6.06735374,12.1657477 L6.06735374,9.83425228 L6.06735374,9.83425228 C6.06735374,9.31063049 5.64287441,8.88615117 5.11925262,8.88615117 L2.94810111,8.88615117 L2.94810111,8.88615117 C2.42447933,8.88615117 2,9.31063049 2,9.83425228 L2,12.1657477 L2,12.1657477 C2,12.6893695 2.42447933,13.1138488 2.94810111,13.1138488 L5.11925262,13.1138488 L5.11925262,13.1138488 C5.64287441,13.1138488 6.06735374,12.6893695 6.06735374,12.1657477 Z M20,18.0518989 L20,15.7204034 L20,15.7204034 C20,15.1967817 19.5755207,14.7723023 19.0518989,14.7723023 L8.35731859,14.7723023 L8.35731859,14.7723023 C7.8336968,14.7723023 7.40921748,15.1967817 7.40921748,15.7204034 L7.40921748,18.0518989 L7.40921748,18.0518989 C7.40921748,18.5755207 7.8336968,19 8.35731859,19 L19.0518989,19 L19.0518989,19 C19.5755207,19 20,18.5755207 20,18.0518989 Z M7.40921748,3.94810111 L7.40921748,6.27959655 L7.40921748,6.27959655 C7.40921748,6.80321834 7.8336968,7.22769767 8.35731859,7.22769767 L19.0518989,7.22769767 L19.0518989,7.22769767 C19.5755207,7.22769767 20,6.80321834 20,6.27959655 L20,3.94810111 L20,3.94810111 C20,3.42447933 19.5755207,3 19.0518989,3 L8.35731859,3 L8.35731859,3 C7.8336968,3 7.40921748,3.42447933 7.40921748,3.94810111 Z M20,12.1657477 L20,9.83425228 L20,9.83425228 C20,9.31063049 19.5755207,8.88615117 19.0518989,8.88615117 L8.35731859,8.88615117 L8.35731859,8.88615117 C7.8336968,8.88615117 7.40921748,9.31063049 7.40921748,9.83425228 L7.40921748,12.1657477 L7.40921748,12.1657477 C7.40921748,12.6893695 7.8336968,13.1138488 8.35731859,13.1138488 L19.0518989,13.1138488 L19.0518989,13.1138488 C19.5755207,13.1138488 20,12.6893695 20,12.1657477 Z" id="Shape" fill="#808080" fill-rule="nonzero"></path>
                </g>
            </g>
        </g>
    </g>
</svg>