<?xml version="1.0" encoding="UTF-8"?>
<svg width="22px" height="22px" viewBox="0 0 22 22" version="1.1" xmlns="http://www.w3.org/2000/svg" xmlns:xlink="http://www.w3.org/1999/xlink">
    <!-- Generator: Sketch 46.1 (44463) - http://www.bohemiancoding.com/sketch -->
    <title>头部-帮助</title>
    <desc>Created with Sketch.</desc>
    <defs></defs>
    <g id="Page-2" stroke="none" stroke-width="1" fill="none" fill-rule="evenodd">
        <g id="我的项目-显示1" transform="translate(-1126.000000, -21.000000)">
            <g id="Group-30">
                <g id="帮助-(2)" transform="translate(1126.000000, 21.000000)">
                    <rect id="Rectangle-10" x="0" y="0" width="22" height="22"></rect>
                    <g id="帮助-(3)" transform="translate(2.000000, 1.000000)">
                        <path d="M0,8.71846223 C0,13.4837056 3.94655489,17.3554384 8.84608808,17.4350995 L8.87507408,19.0694364 L8.87507354,19.0694364 C8.88436293,19.5932061 9.31649274,20.0102749 9.84026249,20.0009855 C10.0265544,19.9976815 10.2077476,19.9395843 10.3612271,19.8339451 C12.2576055,18.5286775 14.1005652,16.6931233 15.8901061,14.3272824 C17.2072435,12.8091037 18,10.8536353 18,8.71846223 C17.9999773,3.90332896 13.9705764,-8.17124146e-14 9,-8.17124146e-14 C4.02940086,-4.39752255e-05 0,3.90332896 0,8.71846223 Z" id="Shape" fill="#808080" fill-rule="nonzero"></path>
                        <g id="Group-26" transform="translate(5.000000, 3.000000)" fill="#FFFFFF">
                            <path d="M3.96701432,11.1263777 L3.73855747,11.1263777 L3.73855747,11.1263777 C3.22875616,11.1263777 2.81548055,10.7131021 2.81548055,10.2033008 L2.81548055,9.99374761 L2.81548055,9.99374761 C2.81548055,9.48394631 3.22875616,9.07067069 3.73855747,9.07067069 L3.96701432,9.07067069 L3.96701432,9.07067069 C4.47681562,9.07067069 4.89009124,9.48394631 4.89009124,9.99374761 L4.89009124,10.2033008 L4.89009124,10.2033008 C4.89009124,10.7131021 4.47681562,11.1263777 3.96701432,11.1263777 Z" id="Path"></path>
                            <path d="M4.74174979,7.74649286 L4.7425368,8.30111037 L2.96303498,8.30111037 L2.96303498,7.70983995 C2.92870417,6.64619496 3.42637336,5.72819251 4.44225917,4.98561579 C5.28291744,4.40022449 5.66196026,3.76792952 5.57113462,3.10453773 C5.48011755,2.34372069 5.0515354,1.94376899 4.26071425,1.87974484 C4.20738875,1.87672991 4.15174475,1.8750717 4.09784495,1.8750717 C3.43877112,1.8750717 2.92463608,2.24405194 2.55543984,2.98201241 L2.55544712,2.98201606 C2.33722041,3.41821413 1.83094237,3.62692421 1.36871537,3.47123909 L1.36871537,3.47123909 L1.36871537,3.47123909 C0.951397326,3.33068 0.727039872,2.87843122 0.867598966,2.46111318 C0.885923573,2.40670768 0.910070419,2.35444035 0.939619468,2.30522039 C1.85682857,0.777346661 3.00140682,0.0360456225 4.37332102,0.0812973326 C6.27634145,0.187767355 7.32615393,1.21230443 7.49640414,3.12658977 C7.53039463,4.30506045 6.88361825,5.37861163 5.57455919,6.32512668 C4.95241422,6.7475396 4.6809583,7.21173081 4.74174979,7.74649286 Z" id="Path"></path>
                        </g>
                    </g>
                </g>
            </g>
        </g>
    </g>
</svg>