<?xml version="1.0" encoding="UTF-8"?>
<svg width="18px" height="18px" viewBox="0 0 18 18" version="1.1" xmlns="http://www.w3.org/2000/svg" xmlns:xlink="http://www.w3.org/1999/xlink">
    <!-- Generator: Sketch 46.1 (44463) - http://www.bohemiancoding.com/sketch -->
    <title>钩子-新建Hook问号</title>
    <desc>Created with Sketch.</desc>
    <defs></defs>
    <g id="Page-2" stroke="none" stroke-width="1" fill="none" fill-rule="evenodd">
        <g id="钩子" transform="translate(-1402.000000, -132.000000)">
            <g id="Group-17" transform="translate(1285.000000, 124.000000)">
                <g id="Group-18" transform="translate(117.000000, 8.000000)">
                    <rect id="Rectangle-13" x="0" y="0" width="18" height="18"></rect>
                    <path d="M8.99998885,1 C4.5817066,1 1,4.58137194 1,9.00001115 C1,13.4179364 4.5817066,17 8.99998885,17 C13.4182934,17 17,13.4179364 17,9.00001115 C17,4.58137194 13.4182934,1 8.99998885,1 L8.99998885,1 Z M8.99989193,14 C8.44761158,14 8,13.5521011 8,13 C8,12.4477938 8.44761158,12 8.99989193,12 C9.55238842,12 10,12.4477938 10,13 C10,13.5521011 9.55238842,14 8.99989193,14 L8.99989193,14 Z M11.7929366,7.41280002 C11.6549394,7.67885128 11.4908295,7.90791188 11.3009853,8.10049597 C11.111033,8.29402716 10.769838,8.61852741 10.2781029,9.07570153 C10.1419979,9.20434348 10.0330328,9.31734492 9.95107248,9.41521994 C9.86913918,9.51236436 9.80799328,9.60158028 9.76809438,9.68284066 C9.72765485,9.76339748 9.69691971,9.84479314 9.67505101,9.92532288 C9.65320934,10.0066103 9.62004134,10.1487821 9.57600659,10.3524878 C9.49999324,10.7843881 9.26187033,11 8.86180004,11 C8.65397975,11 8.47889494,10.9296176 8.33708624,10.7882847 C8.19487206,10.6469517 8.12410287,10.43778 8.12410287,10.1590377 C8.12410287,9.81075198 8.17594981,9.50833245 8.27985998,9.25326746 C8.38398638,8.99747185 8.52187547,8.773282 8.69401382,8.58058967 C8.86612515,8.38789734 9.09811184,8.15810614 9.3898658,7.89205488 C9.64591078,7.65993653 9.83102438,7.48456243 9.94485518,7.36617613 C10.0591185,7.24768156 10.1549732,7.11587364 10.2329058,6.97053583 C10.3110547,6.82530626 10.3500074,6.6673857 10.3500074,6.49764001 C10.3500074,6.16518418 10.2309054,5.88487245 9.9931069,5.6566507 C9.75490289,5.42845601 9.44803818,5.31396631 9.07202618,5.31396631 C8.63181372,5.31396631 8.30783787,5.42929487 8.10004461,5.65984376 C7.89192696,5.89036559 7.7161123,6.22915338 7.57187074,6.67837194 C7.43587388,7.14737116 7.17790965,7.38192489 6.79786989,7.38192489 C6.5741279,7.38192489 6.38479733,7.29979861 6.23093246,7.13554606 C6.07698649,6.97137469 6,6.7937005 6,6.60344355 C6,6.20864212 6.12185925,5.80907817 6.36579398,5.40402107 C6.60980983,4.99972168 6.96608864,4.66412692 7.43406273,4.39880627 C7.9018476,4.13264679 8.4480787,4 9.07202616,4 C9.65215511,4 10.1638396,4.1114049 10.6079717,4.33326761 C11.0519956,4.55513032 11.3949477,4.85754985 11.6368821,5.23892967 C11.8788976,5.62114834 12,6.03646105 12,6.48494899 C12,6.83788902 11.9309608,7.1474794 11.7929366,7.41280002 L11.7929366,7.41280002 Z" id="Shape" fill="#D3D3D3" fill-rule="nonzero"></path>
                </g>
            </g>
        </g>
    </g>
</svg>