<?xml version="1.0" encoding="UTF-8"?>
<svg width="54px" height="54px" viewBox="0 0 54 54" version="1.1" xmlns="http://www.w3.org/2000/svg" xmlns:xlink="http://www.w3.org/1999/xlink">
    <!-- Generator: Sketch 46.1 (44463) - http://www.bohemiancoding.com/sketch -->
    <title>钩子@1x</title>
    <desc>Created with Sketch.</desc>
    <defs></defs>
    <g id="切图" stroke="none" stroke-width="1" fill="none" fill-rule="evenodd">
        <g id="首页" transform="translate(-120.000000, -1234.000000)">
            <g id="Group-32" transform="translate(120.000000, 780.000000)">
                <g id="Group-28" transform="translate(0.000000, 110.000000)">
                    <g id="Group-10-Copy-5" transform="translate(0.000000, 344.000000)">
                        <g id="Group-37">
                            <rect id="Rectangle-23" x="0" y="6" width="48" height="48"></rect>
                            <path d="M44.7502111,46 L13.25,46 C10.3492842,46 8,43.6507158 8,40.75 L8,9.25 C8,6.34928422 10.3494953,4 13.25,4 L44.75,4 C47.6507158,4 50,6.34928422 50,9.25 L50,40.75 C50.0002111,43.6507158 47.6507158,46 44.7502111,46 Z" id="Path" fill="#DEECF1"></path>
                            <path d="M39.7502111,51 L8.25,51 C5.34928422,51 3,48.6507158 3,45.75 L3,14.25 C3,11.3492842 5.34949534,9 8.25,9 L39.75,9 C42.6507158,9 45,11.3492842 45,14.25 L45,45.75 C45.0002111,48.6507158 42.6507158,51 39.7502111,51 Z" id="Shape" fill="#4F657B" fill-rule="nonzero"></path>
                            <g id="webhook" transform="translate(8.000000, 13.000000)">
                                <rect id="Rectangle-27" x="0" y="0" width="32" height="32"></rect>
                                <path d="M23.5425696,17.2186884 C22.7923807,17.2185282 22.0479269,17.3481077 21.3427595,17.601587 L18.4314158,12.6081878 C19.4347021,11.6678265 19.6977704,10.1337387 18.9775358,8.89831318 C18.1351374,7.45351165 16.2629037,6.9566461 14.8037259,7.79080453 C13.3447076,8.62505765 12.8429848,10.4791428 13.6853832,11.9239443 C14.0934672,12.6238421 14.7523489,13.1245265 15.5406612,13.3336816 C15.8001442,13.4027941 16.0676627,13.437895 16.3363677,13.4380855 C16.6676003,13.4380827 16.9965753,13.3841077 17.310109,13.2783235 L20.7494696,19.17743 L20.7900103,19.1542327 L20.8017391,19.1731377 C21.6238353,18.6721377 22.5715693,18.4073405 23.5425378,18.4073405 C26.4307108,18.4073405 28.7804131,20.734147 28.7804131,23.5941774 C28.7804131,26.4542077 26.4307108,28.7810142 23.5425378,28.7810142 C22.5716968,28.7810142 21.623899,28.5161539 20.8015797,28.0150908 L20.1725298,29.0274113 C21.184039,29.6437985 22.3493924,29.9696663 23.5425378,29.9696663 C27.0925884,29.9696663 29.9807296,27.109636 29.9807296,23.5942089 C29.9807296,20.0787819 27.0925884,17.2186884 23.5425696,17.2186884 L23.5425696,17.2186884 Z M15.8513138,12.1855538 C15.3727297,12.0585522 14.9726774,11.7545878 14.7249393,11.3296183 C14.2134957,10.4524422 14.5180926,9.32669125 15.4039002,8.82019959 C15.6848143,8.65913022 16.0036981,8.57437225 16.3283042,8.57449687 C16.9698796,8.57449687 17.5948181,8.90399419 17.9380115,9.49263922 C18.4494233,10.3698785 18.1448582,11.4955663 17.258987,12.0019948 C16.829804,12.2473504 16.3298022,12.3123661 15.8513138,12.1855538 L15.8513138,12.1855538 Z" id="Shape" stroke="#FFFFFF" stroke-width="0.68" fill="#FFFFFF" fill-rule="nonzero"></path>
                                <path d="M20.5165838,24.3505694 C20.8373396,25.6812146 22.0474089,26.6738411 23.4880055,26.673841 C25.1728023,26.673841 26.5434407,25.3165583 26.5434407,23.6481783 C26.5434407,21.9797984 25.1728023,20.6225156 23.4880055,20.6225156 C22.0086211,20.6225156 20.7717797,21.6691114 20.4921064,23.0538207 L13.6124609,23.0538207 L13.6124609,24.2299115 C13.5030362,24.8060455 13.295897,25.3596754 12.9998249,25.8673301 C12.3002751,27.0671548 11.1708091,27.9253943 9.8193574,28.2839909 C8.46784197,28.6424613 7.05634415,28.4584919 5.84477693,27.7657901 C4.63314598,27.0730567 3.76646138,25.9545964 3.40433623,24.6163449 C3.04224291,23.2780619 3.22808626,21.8803179 3.92763611,20.6804932 C4.41304065,19.8478497 5.11855052,19.1674567 5.96786508,18.7128514 L5.39710838,17.6672024 C4.35222967,18.2264326 3.48465269,19.0629581 2.88811182,20.0861672 C2.02824776,21.5609517 1.79982398,23.2790088 2.24494282,24.9239705 C2.68999793,26.5689006 3.75533822,27.9436997 5.24463461,28.7952167 C6.23670208,29.3624318 7.3376111,29.6521938 8.4533085,29.6520991 C9.01246396,29.6520991 9.57553963,29.5792878 10.1301056,29.4321817 C11.7912218,28.9914002 13.1795489,27.9364407 14.039413,26.4616561 C14.4202294,25.8085796 14.6810886,25.0938095 14.8098772,24.3505378 L20.5165838,24.3505378 L20.5165838,24.3505694 Z M23.4880055,21.8111992 C24.5109246,21.8111992 25.3430923,22.6352581 25.3430923,23.6482099 C25.3430923,24.6611616 24.5109247,25.4852205 23.4880055,25.4852205 C22.4650863,25.4852206 21.6329187,24.6611616 21.6329187,23.6482099 C21.6329187,22.6352581 22.4650863,21.8111992 23.4880055,21.8111992 Z" id="Shape" stroke="#FFFFFF" stroke-width="0.68" fill="#FFFFFF" fill-rule="nonzero"></path>
                                <path d="M5.4923726,23.9832304 C5.70364948,24.7638613 6.209165,25.4163228 6.91598162,25.8203988 C7.39599988,26.0948221 7.92051089,26.2252008 8.43858384,26.2252008 C9.49531879,26.2252008 10.5245485,25.6824771 11.0897915,24.7129533 C11.8294677,23.444294 11.5325518,21.8602451 10.4614109,20.9280265 L13.9012496,15.0281309 L13.4336931,14.7608089 C12.7301911,14.3155772 12.1423831,13.7078377 11.7208174,12.9847426 C10.2767468,10.5078949 11.1368021,7.32944521 13.638022,5.89938266 C14.8496211,5.20661772 16.2610551,5.02271151 17.6126024,5.38118187 C18.9639904,5.73981002 20.0934882,6.59804954 20.7930381,7.79790577 C21.2785064,8.63051771 21.5207625,9.575771 21.4937035,10.531471 L22.6936057,10.564831 C22.7268478,9.38911897 22.4291032,8.22685192 21.8325624,7.20361131 C20.9726983,5.72882679 19.5843712,4.67389884 17.923255,4.23308571 C16.2620113,3.79224103 14.5271442,4.01843906 13.0378478,4.8699876 C9.96344892,6.62774845 8.90629964,10.5345956 10.6812931,13.5790687 C11.0754511,14.2552294 11.5916401,14.8539709 12.2041822,15.3455088 L9.31518046,20.300656 C7.99110646,19.9104353 6.51803272,20.4518966 5.79767071,21.6872906 C5.38955479,22.3872199 5.28115947,23.2025995 5.4923726,23.9832304 L5.4923726,23.9832304 Z M6.83716314,22.2816166 C7.18042034,21.69294 7.80519942,21.3634742 8.44680671,21.3634742 C8.77140948,21.363375 9.09028672,21.4481313 9.37121076,21.609177 C10.2570821,22.1156371 10.5617108,23.2413564 10.0502353,24.1185957 C9.53879164,24.9957718 8.40196335,25.2974323 7.51612393,24.7909407 C7.08697276,24.5455851 6.78008108,24.149494 6.65182974,23.6755418 C6.5235784,23.2015895 6.58942512,22.7065861 6.83716314,22.2816166 L6.83716314,22.2816166 Z" id="Shape" stroke="#FFFFFF" stroke-width="0.68" fill="#FFFFFF" fill-rule="nonzero"></path>
                            </g>
                        </g>
                    </g>
                </g>
            </g>
        </g>
    </g>
</svg>