<?xml version="1.0" encoding="UTF-8"?>
<svg width="20px" height="20px" viewBox="0 0 20 20" version="1.1" xmlns="http://www.w3.org/2000/svg" xmlns:xlink="http://www.w3.org/1999/xlink">
    <!-- Generator: Sketch 46.1 (44463) - http://www.bohemiancoding.com/sketch -->
    <title>项目锁</title>
    <desc>Created with Sketch.</desc>
    <defs></defs>
    <g id="Page-2" stroke="none" stroke-width="1" fill="none" fill-rule="evenodd">
        <g id="我的项目-显示1" transform="translate(-386.000000, -459.000000)">
            <g id="Group-18" transform="translate(160.000000, 362.000000)">
                <g id="Group-24" transform="translate(226.000000, 97.000000)">
                    <circle id="Oval-5" fill="#FFFFFF" cx="10" cy="10" r="10"></circle>
                    <path d="M13.7595811,9.20298203 L13.0783586,9.20298203 L13.0783586,7.27632478 C13.0783586,6.08527234 12.1022431,5.11627907 10.9024363,5.11627907 L9.57084596,5.11627907 C8.37103918,5.11627907 7.39492372,6.08527234 7.39492372,7.27632478 L7.39492372,9.20298203 L6.70552274,9.20298203 C6.23222948,9.20298203 5.84717608,9.58522591 5.84717608,10.0550658 L5.84717608,14.4967534 C5.84717608,14.9665933 6.23222948,15.3488372 6.70552274,15.3488372 L13.7595935,15.3488372 C14.2328868,15.3488372 14.6179402,14.9665933 14.6179402,14.4967534 L14.6179402,10.0550658 C14.6179402,9.58522591 14.2328992,9.20298203 13.7595935,9.20298203 L13.7595811,9.20298203 Z M8.38725965,7.27632478 C8.38725965,6.6284636 8.91822294,6.10138676 9.57083357,6.10138676 L10.9024363,6.10138676 C11.5550593,6.10138676 12.0860102,6.6284636 12.0860102,7.27632478 L12.0860102,9.20298203 L8.38724726,9.20298203 L8.38724726,7.27632478 L8.38725965,7.27632478 Z" id="Shape" fill="#48525D" fill-rule="nonzero"></path>
                </g>
            </g>
        </g>
    </g>
</svg>