<?xml version="1.0" encoding="UTF-8"?>
<svg width="16px" height="16px" viewBox="0 0 16 16" version="1.1" xmlns="http://www.w3.org/2000/svg" xmlns:xlink="http://www.w3.org/1999/xlink">
    <!-- Generator: Sketch 46.1 (44463) - http://www.bohemiancoding.com/sketch -->
    <title>退出登录</title>
    <desc>Created with Sketch.</desc>
    <defs></defs>
    <g id="Page-1" stroke="none" stroke-width="1" fill="none" fill-rule="evenodd">
        <g id="头像下拉菜单" transform="translate(-1295.000000, -278.000000)">
            <g id="Group-18" transform="translate(1258.000000, 69.000000)">
                <g id="Group-17" transform="translate(37.000000, 207.000000)">
                    <g id="退出" transform="translate(0.000000, 2.000000)">
                        <rect id="Rectangle-4" x="0" y="0" width="16" height="16"></rect>
                        <g id="Group-10" transform="translate(1.000000, 1.000000)" fill-rule="nonzero" fill="#474747">
                            <path d="M13.8411236,6.64465857 L10.7208365,3.60778129 C10.523578,3.41579587 10.1990262,3.41579587 10.0017503,3.60778129 C9.80447441,3.79976671 9.80449189,4.11564277 10.0017503,4.3076452 L12.2417328,6.4877497 L5.22268165,6.4877497 C4.94268165,6.4877497 4.71359551,6.71071203 4.71359551,6.98322722 C4.71359551,7.25574241 4.94268165,7.47870474 5.22268165,7.47870474 L12.2650662,7.47870474 L10.0017503,9.68151883 C9.80449189,9.87350425 9.80449189,10.1893803 10.0017503,10.3813827 C10.1990087,10.5733852 10.5235605,10.5733682 10.7208365,10.3813827 L13.8411236,7.34450547 C14.0405144,7.15252005 14.0405144,6.83664399 13.8411236,6.64464156 L13.8411236,6.64465857 Z" id="Shape"></path>
                            <path d="M9.27841698,11.3021677 C8.99628464,11.3021677 8.76933084,11.5230717 8.76933084,11.7976452 L8.76933084,12.3426586 C8.76933084,12.7060122 8.46388265,13.0032953 8.09054931,13.0032953 L1.71208989,13.0032953 C1.33875655,13.0032953 1.03330836,12.7060122 1.03330836,12.3426586 L1.03330836,1.65477278 C1.03330836,1.2914192 1.33875655,0.994136087 1.71208989,0.994136087 L8.09054931,0.994136087 C8.46388265,0.994136087 8.76933084,1.2914192 8.76933084,1.65477278 L8.76933084,2.19978615 C8.76933084,2.47437667 8.99630212,2.69526367 9.27841698,2.69526367 C9.56053184,2.69526367 9.78750312,2.47435966 9.78750312,2.19978615 L9.78750312,1.65477278 C9.78750312,0.744330498 9.0259975,0.00318104496 8.09054931,0.00318104496 L1.71208989,0.00318104496 C0.776641698,0.00318104496 0.0151360799,0.744330498 0.0151360799,1.65477278 L0.0151360799,12.3426586 C0.0151360799,13.2531009 0.776641698,13.9942503 1.71208989,13.9942503 L8.09054931,13.9942503 C9.0259975,13.9942503 9.78750312,13.2531009 9.78750312,12.3426586 L9.78750312,11.7976452 C9.78750312,11.52513 9.55841698,11.3021677 9.27841698,11.3021677 Z" id="Shape"></path>
                        </g>
                    </g>
                </g>
            </g>
        </g>
    </g>
</svg>