<?xml version="1.0" encoding="UTF-8"?>
<svg width="1432px" height="467px" viewBox="0 0 1432 467" version="1.1" xmlns="http://www.w3.org/2000/svg" xmlns:xlink="http://www.w3.org/1999/xlink">
    <!-- Generator: Sketch 46.1 (44463) - http://www.bohemiancoding.com/sketch -->
    <title>小星星</title>
    <desc>Created with Sketch.</desc>
    <defs></defs>
    <g id="切图" stroke="none" stroke-width="1" fill="none" fill-rule="evenodd" opacity="0.400000006">
        <g id="首页" transform="translate(0.000000, -64.000000)" fill="#A7A1B8">
            <g id="Group-50" transform="translate(-1.000000, 64.000000)">
                <g id="star">
                    <path d="M1357,56 L1357,54 C1357,53.4477153 1356.55228,53 1356,53 C1355.44772,53 1355,53.4477153 1355,54 L1355,54 L1355,56 L1354,56 C1353.44772,56 1353,56.4477153 1353,57 C1353,57.5522847 1353.44772,58 1354,58 L1355,58 L1355,60 C1355,60.5522847 1355.44772,61 1356,61 C1356.55228,61 1357,60.5522847 1357,60 L1357,58 L1358,58 C1358.55228,58 1359,57.5522847 1359,57 C1359,56.4477153 1358.55228,56 1358,56 L1357,56 Z" id="Combined-Shape"></path>
                    <path d="M1300,380 L1300,378 C1300,377.447715 1299.55228,377 1299,377 C1298.44772,377 1298,377.447715 1298,378 L1298,378 L1298,380 L1297,380 C1296.44772,380 1296,380.447715 1296,381 C1296,381.552285 1296.44772,382 1297,382 L1298,382 L1298,384 C1298,384.552285 1298.44772,385 1299,385 C1299.55228,385 1300,384.552285 1300,384 L1300,382 L1301,382 C1301.55228,382 1302,381.552285 1302,381 C1302,380.447715 1301.55228,380 1301,380 L1300,380 Z" id="Combined-Shape-Copy-9"></path>
                    <path d="M1142,436 L1142,434 C1142,433.447715 1141.55228,433 1141,433 C1140.44772,433 1140,433.447715 1140,434 L1140,434 L1140,436 L1139,436 C1138.44772,436 1138,436.447715 1138,437 C1138,437.552285 1138.44772,438 1139,438 L1140,438 L1140,440 C1140,440.552285 1140.44772,441 1141,441 C1141.55228,441 1142,440.552285 1142,440 L1142,438 L1143,438 C1143.55228,438 1144,437.552285 1144,437 C1144,436.447715 1143.55228,436 1143,436 L1142,436 Z" id="Combined-Shape-Copy-10"></path>
                    <path d="M656,275 L656,273 C656,272.447715 655.552285,272 655,272 C654.447715,272 654,272.447715 654,273 L654,273 L654,275 L653,275 C652.447715,275 652,275.447715 652,276 C652,276.552285 652.447715,277 653,277 L654,277 L654,279 C654,279.552285 654.447715,280 655,280 C655.552285,280 656,279.552285 656,279 L656,277 L657,277 C657.552285,277 658,276.552285 658,276 C658,275.447715 657.552285,275 657,275 L656,275 Z" id="Combined-Shape-Copy-18"></path>
                    <path d="M139,372 L139,370 C139,369.447715 138.552285,369 138,369 C137.447715,369 137,369.447715 137,370 L137,370 L137,372 L136,372 C135.447715,372 135,372.447715 135,373 C135,373.552285 135.447715,374 136,374 L137,374 L137,376 C137,376.552285 137.447715,377 138,377 C138.552285,377 139,376.552285 139,376 L139,374 L140,374 C140.552285,374 141,373.552285 141,373 C141,372.447715 140.552285,372 140,372 L139,372 Z" id="Combined-Shape-Copy-26"></path>
                    <path d="M830,324 L830,322 C830,321.447715 829.552285,321 829,321 C828.447715,321 828,321.447715 828,322 L828,322 L828,324 L827,324 C826.447715,324 826,324.447715 826,325 C826,325.552285 826.447715,326 827,326 L828,326 L828,328 C828,328.552285 828.447715,329 829,329 C829.552285,329 830,328.552285 830,328 L830,326 L831,326 C831.552285,326 832,325.552285 832,325 C832,324.447715 831.552285,324 831,324 L830,324 Z" id="Combined-Shape-Copy-17"></path>
                    <path d="M1174,407 L1174,405 C1174,404.447715 1173.55228,404 1173,404 C1172.44772,404 1172,404.447715 1172,405 L1172,405 L1172,407 L1171,407 C1170.44772,407 1170,407.447715 1170,408 C1170,408.552285 1170.44772,409 1171,409 L1172,409 L1172,411 C1172,411.552285 1172.44772,412 1173,412 C1173.55228,412 1174,411.552285 1174,411 L1174,409 L1175,409 C1175.55228,409 1176,408.552285 1176,408 C1176,407.447715 1175.55228,407 1175,407 L1174,407 Z" id="Combined-Shape-Copy-11"></path>
                    <path d="M219,237 L219,235 C219,234.447715 218.552285,234 218,234 C217.447715,234 217,234.447715 217,235 L217,235 L217,237 L216,237 C215.447715,237 215,237.447715 215,238 C215,238.552285 215.447715,239 216,239 L217,239 L217,241 C217,241.552285 217.447715,242 218,242 C218.552285,242 219,241.552285 219,241 L219,239 L220,239 C220.552285,239 221,238.552285 221,238 C221,237.447715 220.552285,237 220,237 L219,237 Z" id="Combined-Shape-Copy-22"></path>
                    <path d="M1322,241 L1322,239 C1322,238.447715 1321.55228,238 1321,238 C1320.44772,238 1320,238.447715 1320,239 L1320,239 L1320,241 L1319,241 C1318.44772,241 1318,241.447715 1318,242 C1318,242.552285 1318.44772,243 1319,243 L1320,243 L1320,245 C1320,245.552285 1320.44772,246 1321,246 C1321.55228,246 1322,245.552285 1322,245 L1322,243 L1323,243 C1323.55228,243 1324,242.552285 1324,242 C1324,241.447715 1323.55228,241 1323,241 L1322,241 Z" id="Combined-Shape-Copy-5"></path>
                    <path d="M1281.66667,63.8333333 L1281.66667,61.1666667 C1281.66667,60.5223345 1281.14433,60 1280.5,60 C1279.85567,60 1279.33333,60.5223345 1279.33333,61.1666667 L1279.33333,61.1666667 L1279.33333,63.8333333 L1277.91667,63.8333333 C1277.27233,63.8333333 1276.75,64.3556678 1276.75,65 L1276.75,65 C1276.75,65.6443322 1277.27233,66.1666667 1277.91667,66.1666667 L1277.91667,66.1666667 L1279.33333,66.1666667 L1279.33333,68.8333333 C1279.33333,69.4776655 1279.85567,70 1280.5,70 L1280.5,70 C1281.14433,70 1281.66667,69.4776655 1281.66667,68.8333333 L1281.66667,68.8333333 L1281.66667,66.1666667 L1283.08333,66.1666667 C1283.72767,66.1666667 1284.25,65.6443322 1284.25,65 C1284.25,64.3556678 1283.72767,63.8333333 1283.08333,63.8333333 L1281.66667,63.8333333 Z" id="Combined-Shape-Copy-3"></path>
                    <path d="M822.666667,136.833333 L822.666667,134.166667 C822.666667,133.522334 822.144332,133 821.5,133 L821.5,133 L821.5,133 C820.855668,133 820.333333,133.522334 820.333333,134.166667 L820.333333,134.166667 L820.333333,136.833333 L818.916667,136.833333 C818.272334,136.833333 817.75,137.355668 817.75,138 L817.75,138 C817.75,138.644332 818.272334,139.166667 818.916667,139.166667 L818.916667,139.166667 L820.333333,139.166667 L820.333333,141.833333 C820.333333,142.477666 820.855668,143 821.5,143 L821.5,143 C822.144332,143 822.666667,142.477666 822.666667,141.833333 L822.666667,141.833333 L822.666667,139.166667 L824.083333,139.166667 C824.727666,139.166667 825.25,138.644332 825.25,138 C825.25,137.355668 824.727666,136.833333 824.083333,136.833333 L824.083333,136.833333 L822.666667,136.833333 Z" id="Combined-Shape-Copy-20"></path>
                    <path d="M1429.66667,397.833333 L1429.66667,395.166667 C1429.66667,394.522334 1429.14433,394 1428.5,394 C1427.85567,394 1427.33333,394.522334 1427.33333,395.166667 L1427.33333,395.166667 L1427.33333,397.833333 L1425.91667,397.833333 C1425.27233,397.833333 1424.75,398.355668 1424.75,399 L1424.75,399 C1424.75,399.644332 1425.27233,400.166667 1425.91667,400.166667 L1425.91667,400.166667 L1427.33333,400.166667 L1427.33333,402.833333 C1427.33333,403.477666 1427.85567,404 1428.5,404 L1428.5,404 C1429.14433,404 1429.66667,403.477666 1429.66667,402.833333 L1429.66667,402.833333 L1429.66667,400.166667 L1431.08333,400.166667 C1431.72767,400.166667 1432.25,399.644332 1432.25,399 C1432.25,398.355668 1431.72767,397.833333 1431.08333,397.833333 L1429.66667,397.833333 Z" id="Combined-Shape-Copy-6"></path>
                    <path d="M1365.66667,97.8333333 L1365.66667,95.1666667 C1365.66667,94.5223345 1365.14433,94 1364.5,94 C1363.85567,94 1363.33333,94.5223345 1363.33333,95.1666667 L1363.33333,95.1666667 L1363.33333,97.8333333 L1361.91667,97.8333333 C1361.27233,97.8333333 1360.75,98.3556678 1360.75,99 L1360.75,99 C1360.75,99.6443322 1361.27233,100.166667 1361.91667,100.166667 L1361.91667,100.166667 L1363.33333,100.166667 L1363.33333,102.833333 C1363.33333,103.477666 1363.85567,104 1364.5,104 L1364.5,104 C1365.14433,104 1365.66667,103.477666 1365.66667,102.833333 L1365.66667,102.833333 L1365.66667,100.166667 L1367.08333,100.166667 C1367.72767,100.166667 1368.25,99.6443322 1368.25,99 C1368.25,98.3556678 1367.72767,97.8333333 1367.08333,97.8333333 L1365.66667,97.8333333 Z" id="Combined-Shape-Copy-4"></path>
                    <path d="M680.666667,59.8333333 L680.666667,57.1666667 C680.666667,56.5223345 680.144332,56 679.5,56 C678.855668,56 678.333333,56.5223345 678.333333,57.1666667 L678.333333,57.1666667 L678.333333,59.8333333 L676.916667,59.8333333 C676.272334,59.8333333 675.75,60.3556678 675.75,61 L675.75,61 C675.75,61.6443322 676.272334,62.1666667 676.916667,62.1666667 L676.916667,62.1666667 L678.333333,62.1666667 L678.333333,64.8333333 C678.333333,65.4776655 678.855668,66 679.5,66 L679.5,66 C680.144332,66 680.666667,65.4776655 680.666667,64.8333333 L680.666667,64.8333333 L680.666667,62.1666667 L682.083333,62.1666667 C682.727666,62.1666667 683.25,61.6443322 683.25,61 C683.25,60.3556678 682.727666,59.8333333 682.083333,59.8333333 L682.083333,59.8333333 L680.666667,59.8333333 Z" id="Combined-Shape-Copy-19"></path>
                    <path d="M212.666667,92.8333333 L212.666667,90.1666667 C212.666667,89.5223345 212.144332,89 211.5,89 C210.855668,89 210.333333,89.5223345 210.333333,90.1666667 L210.333333,90.1666667 L210.333333,92.8333333 L208.916667,92.8333333 C208.272334,92.8333333 207.75,93.3556678 207.75,94 L207.75,94 C207.75,94.6443322 208.272334,95.1666667 208.916667,95.1666667 L208.916667,95.1666667 L210.333333,95.1666667 L210.333333,97.8333333 C210.333333,98.4776655 210.855668,99 211.5,99 L211.5,99 C212.144332,99 212.666667,98.4776655 212.666667,97.8333333 L212.666667,97.8333333 L212.666667,95.1666667 L214.083333,95.1666667 C214.727666,95.1666667 215.25,94.6443322 215.25,94 C215.25,93.3556678 214.727666,92.8333333 214.083333,92.8333333 L214.083333,92.8333333 L212.666667,92.8333333 Z" id="Combined-Shape-Copy-23"></path>
                    <path d="M952.666667,56.8333333 L952.666667,54.1666667 C952.666667,53.5223345 952.144332,53 951.5,53 L951.5,53 L951.5,53 C950.855668,53 950.333333,53.5223345 950.333333,54.1666667 L950.333333,54.1666667 L950.333333,56.8333333 L948.916667,56.8333333 C948.272334,56.8333333 947.75,57.3556678 947.75,58 L947.75,58 C947.75,58.6443322 948.272334,59.1666667 948.916667,59.1666667 L948.916667,59.1666667 L950.333333,59.1666667 L950.333333,61.8333333 C950.333333,62.4776655 950.855668,63 951.5,63 L951.5,63 C952.144332,63 952.666667,62.4776655 952.666667,61.8333333 L952.666667,61.8333333 L952.666667,59.1666667 L954.083333,59.1666667 C954.727666,59.1666667 955.25,58.6443322 955.25,58 C955.25,57.3556678 954.727666,56.8333333 954.083333,56.8333333 L954.083333,56.8333333 L952.666667,56.8333333 Z" id="Combined-Shape-Copy-12"></path>
                    <path d="M509.666667,265.833333 L509.666667,263.166667 C509.666667,262.522334 509.144332,262 508.5,262 C507.855668,262 507.333333,262.522334 507.333333,263.166667 L507.333333,263.166667 L507.333333,265.833333 L505.916667,265.833333 C505.272334,265.833333 504.75,266.355668 504.75,267 L504.75,267 C504.75,267.644332 505.272334,268.166667 505.916667,268.166667 L505.916667,268.166667 L507.333333,268.166667 L507.333333,270.833333 C507.333333,271.477666 507.855668,272 508.5,272 L508.5,272 C509.144332,272 509.666667,271.477666 509.666667,270.833333 L509.666667,270.833333 L509.666667,268.166667 L511.083333,268.166667 C511.727666,268.166667 512.25,267.644332 512.25,267 C512.25,266.355668 511.727666,265.833333 511.083333,265.833333 L509.666667,265.833333 Z" id="Combined-Shape-Copy-24"></path>
                    <path d="M363.666667,324.833333 L363.666667,322.166667 C363.666667,321.522334 363.144332,321 362.5,321 C361.855668,321 361.333333,321.522334 361.333333,322.166667 L361.333333,322.166667 L361.333333,324.833333 L359.916667,324.833333 C359.272334,324.833333 358.75,325.355668 358.75,326 L358.75,326 C358.75,326.644332 359.272334,327.166667 359.916667,327.166667 L359.916667,327.166667 L361.333333,327.166667 L361.333333,329.833333 C361.333333,330.477666 361.855668,331 362.5,331 L362.5,331 C363.144332,331 363.666667,330.477666 363.666667,329.833333 L363.666667,329.833333 L363.666667,327.166667 L365.083333,327.166667 C365.727666,327.166667 366.25,326.644332 366.25,326 C366.25,325.355668 365.727666,324.833333 365.083333,324.833333 L363.666667,324.833333 Z" id="Combined-Shape-Copy-27"></path>
                    <path d="M370.666667,341.833333 L370.666667,339.166667 C370.666667,338.522334 370.144332,338 369.5,338 C368.855668,338 368.333333,338.522334 368.333333,339.166667 L368.333333,339.166667 L368.333333,341.833333 L366.916667,341.833333 C366.272334,341.833333 365.75,342.355668 365.75,343 L365.75,343 C365.75,343.644332 366.272334,344.166667 366.916667,344.166667 L366.916667,344.166667 L368.333333,344.166667 L368.333333,346.833333 C368.333333,347.477666 368.855668,348 369.5,348 L369.5,348 C370.144332,348 370.666667,347.477666 370.666667,346.833333 L370.666667,346.833333 L370.666667,344.166667 L372.083333,344.166667 C372.727666,344.166667 373.25,343.644332 373.25,343 C373.25,342.355668 372.727666,341.833333 372.083333,341.833333 L370.666667,341.833333 Z" id="Combined-Shape-Copy-28"></path>
                    <path d="M5.66666667,334.833333 L5.66666667,332.166667 C5.66666667,331.522334 5.14433221,331 4.5,331 L4.5,331 L4.5,331 C3.85566779,331 3.33333333,331.522334 3.33333333,332.166667 L3.33333333,332.166667 L3.33333333,334.833333 L1.91666667,334.833333 C1.27233446,334.833333 0.75,335.355668 0.75,336 L0.75,336 C0.75,336.644332 1.27233446,337.166667 1.91666667,337.166667 L1.91666667,337.166667 L3.33333333,337.166667 L3.33333333,339.833333 C3.33333333,340.477666 3.85566779,341 4.5,341 L4.5,341 C5.14433221,341 5.66666667,340.477666 5.66666667,339.833333 L5.66666667,339.833333 L5.66666667,337.166667 L7.08333333,337.166667 C7.72766554,337.166667 8.25,336.644332 8.25,336 C8.25,335.355668 7.72766554,334.833333 7.08333333,334.833333 L7.08333333,334.833333 L5.66666667,334.833333 Z" id="Combined-Shape-Copy-31"></path>
                    <path d="M88.6666667,236.833333 L88.6666667,234.166667 C88.6666667,233.522334 88.1443322,233 87.5,233 C86.8556678,233 86.3333333,233.522334 86.3333333,234.166667 L86.3333333,234.166667 L86.3333333,236.833333 L84.9166667,236.833333 C84.2723345,236.833333 83.75,237.355668 83.75,238 L83.75,238 C83.75,238.644332 84.2723345,239.166667 84.9166667,239.166667 L84.9166667,239.166667 L86.3333333,239.166667 L86.3333333,241.833333 C86.3333333,242.477666 86.8556678,243 87.5,243 L87.5,243 C88.1443322,243 88.6666667,242.477666 88.6666667,241.833333 L88.6666667,241.833333 L88.6666667,239.166667 L90.0833333,239.166667 C90.7276655,239.166667 91.25,238.644332 91.25,238 C91.25,237.355668 90.7276655,236.833333 90.0833333,236.833333 L90.0833333,236.833333 L88.6666667,236.833333 Z" id="Combined-Shape-Copy-32"></path>
                    <path d="M212.666667,3.83333333 L212.666667,1.16666667 C212.666667,0.522334459 212.144332,-1.18361906e-16 211.5,0 C210.855668,1.18361906e-16 210.333333,0.522334459 210.333333,1.16666667 L210.333333,1.16666667 L210.333333,3.83333333 L208.916667,3.83333333 C208.272334,3.83333333 207.75,4.35566779 207.75,5 L207.75,5 C207.75,5.64433221 208.272334,6.16666667 208.916667,6.16666667 L208.916667,6.16666667 L210.333333,6.16666667 L210.333333,8.83333333 C210.333333,9.47766554 210.855668,10 211.5,10 L211.5,10 C212.144332,10 212.666667,9.47766554 212.666667,8.83333333 L212.666667,8.83333333 L212.666667,6.16666667 L214.083333,6.16666667 C214.727666,6.16666667 215.25,5.64433221 215.25,5 C215.25,4.35566779 214.727666,3.83333333 214.083333,3.83333333 L214.083333,3.83333333 L212.666667,3.83333333 Z" id="Combined-Shape-Copy-33"></path>
                    <path d="M254.666667,450.833333 L254.666667,448.166667 C254.666667,447.522334 254.144332,447 253.5,447 C252.855668,447 252.333333,447.522334 252.333333,448.166667 L252.333333,448.166667 L252.333333,450.833333 L250.916667,450.833333 C250.272334,450.833333 249.75,451.355668 249.75,452 L249.75,452 C249.75,452.644332 250.272334,453.166667 250.916667,453.166667 L250.916667,453.166667 L252.333333,453.166667 L252.333333,455.833333 C252.333333,456.477666 252.855668,457 253.5,457 L253.5,457 C254.144332,457 254.666667,456.477666 254.666667,455.833333 L254.666667,455.833333 L254.666667,453.166667 L256.083333,453.166667 C256.727666,453.166667 257.25,452.644332 257.25,452 C257.25,451.355668 256.727666,450.833333 256.083333,450.833333 L256.083333,450.833333 L254.666667,450.833333 Z" id="Combined-Shape-Copy-29"></path>
                    <path d="M302.666667,460.833333 L302.666667,458.166667 C302.666667,457.522334 302.144332,457 301.5,457 C300.855668,457 300.333333,457.522334 300.333333,458.166667 L300.333333,458.166667 L300.333333,460.833333 L298.916667,460.833333 C298.272334,460.833333 297.75,461.355668 297.75,462 L297.75,462 C297.75,462.644332 298.272334,463.166667 298.916667,463.166667 L298.916667,463.166667 L300.333333,463.166667 L300.333333,465.833333 C300.333333,466.477666 300.855668,467 301.5,467 L301.5,467 C302.144332,467 302.666667,466.477666 302.666667,465.833333 L302.666667,465.833333 L302.666667,463.166667 L304.083333,463.166667 C304.727666,463.166667 305.25,462.644332 305.25,462 C305.25,461.355668 304.727666,460.833333 304.083333,460.833333 L302.666667,460.833333 Z" id="Combined-Shape-Copy-30"></path>
                    <path d="M5.66666667,279.833333 L5.66666667,277.166667 C5.66666667,276.522334 5.14433221,276 4.5,276 L4.5,276 L4.5,276 C3.85566779,276 3.33333333,276.522334 3.33333333,277.166667 L3.33333333,277.166667 L3.33333333,279.833333 L1.91666667,279.833333 C1.27233446,279.833333 0.75,280.355668 0.75,281 L0.75,281 C0.75,281.644332 1.27233446,282.166667 1.91666667,282.166667 L1.91666667,282.166667 L3.33333333,282.166667 L3.33333333,284.833333 C3.33333333,285.477666 3.85566779,286 4.5,286 L4.5,286 C5.14433221,286 5.66666667,285.477666 5.66666667,284.833333 L5.66666667,284.833333 L5.66666667,282.166667 L7.08333333,282.166667 C7.72766554,282.166667 8.25,281.644332 8.25,281 C8.25,280.355668 7.72766554,279.833333 7.08333333,279.833333 L7.08333333,279.833333 L5.66666667,279.833333 Z" id="Combined-Shape-Copy-25"></path>
                    <path d="M1010.66667,53.8333333 L1010.66667,51.1666667 C1010.66667,50.5223345 1010.14433,50 1009.5,50 L1009.5,50 L1009.5,50 C1008.85567,50 1008.33333,50.5223345 1008.33333,51.1666667 L1008.33333,51.1666667 L1008.33333,53.8333333 L1006.91667,53.8333333 C1006.27233,53.8333333 1005.75,54.3556678 1005.75,55 L1005.75,55 C1005.75,55.6443322 1006.27233,56.1666667 1006.91667,56.1666667 L1006.91667,56.1666667 L1008.33333,56.1666667 L1008.33333,58.8333333 C1008.33333,59.4776655 1008.85567,60 1009.5,60 L1009.5,60 C1010.14433,60 1010.66667,59.4776655 1010.66667,58.8333333 L1010.66667,58.8333333 L1010.66667,56.1666667 L1012.08333,56.1666667 C1012.72767,56.1666667 1013.25,55.6443322 1013.25,55 C1013.25,54.3556678 1012.72767,53.8333333 1012.08333,53.8333333 L1012.08333,53.8333333 L1010.66667,53.8333333 Z" id="Combined-Shape-Copy-13"></path>
                    <path d="M959.666667,440.833333 L959.666667,438.166667 C959.666667,437.522334 959.144332,437 958.5,437 L958.5,437 L958.5,437 C957.855668,437 957.333333,437.522334 957.333333,438.166667 L957.333333,438.166667 L957.333333,440.833333 L955.916667,440.833333 C955.272334,440.833333 954.75,441.355668 954.75,442 L954.75,442 C954.75,442.644332 955.272334,443.166667 955.916667,443.166667 L955.916667,443.166667 L957.333333,443.166667 L957.333333,445.833333 C957.333333,446.477666 957.855668,447 958.5,447 L958.5,447 C959.144332,447 959.666667,446.477666 959.666667,445.833333 L959.666667,445.833333 L959.666667,443.166667 L961.083333,443.166667 C961.727666,443.166667 962.25,442.644332 962.25,442 C962.25,441.355668 961.727666,440.833333 961.083333,440.833333 L961.083333,440.833333 L959.666667,440.833333 Z" id="Combined-Shape-Copy-14"></path>
                    <path d="M815.666667,384.833333 L815.666667,382.166667 C815.666667,381.522334 815.144332,381 814.5,381 L814.5,381 L814.5,381 C813.855668,381 813.333333,381.522334 813.333333,382.166667 L813.333333,382.166667 L813.333333,384.833333 L811.916667,384.833333 C811.272334,384.833333 810.75,385.355668 810.75,386 L810.75,386 C810.75,386.644332 811.272334,387.166667 811.916667,387.166667 L811.916667,387.166667 L813.333333,387.166667 L813.333333,389.833333 C813.333333,390.477666 813.855668,391 814.5,391 L814.5,391 C815.144332,391 815.666667,390.477666 815.666667,389.833333 L815.666667,389.833333 L815.666667,387.166667 L817.083333,387.166667 C817.727666,387.166667 818.25,386.644332 818.25,386 C818.25,385.355668 817.727666,384.833333 817.083333,384.833333 L817.083333,384.833333 L815.666667,384.833333 Z" id="Combined-Shape-Copy-15"></path>
                    <path d="M691.666667,387.833333 L691.666667,385.166667 C691.666667,384.522334 691.144332,384 690.5,384 C689.855668,384 689.333333,384.522334 689.333333,385.166667 L689.333333,385.166667 L689.333333,387.833333 L687.916667,387.833333 C687.272334,387.833333 686.75,388.355668 686.75,389 L686.75,389 C686.75,389.644332 687.272334,390.166667 687.916667,390.166667 L687.916667,390.166667 L689.333333,390.166667 L689.333333,392.833333 C689.333333,393.477666 689.855668,394 690.5,394 L690.5,394 C691.144332,394 691.666667,393.477666 691.666667,392.833333 L691.666667,392.833333 L691.666667,390.166667 L693.083333,390.166667 C693.727666,390.166667 694.25,389.644332 694.25,389 C694.25,388.355668 693.727666,387.833333 693.083333,387.833333 L693.083333,387.833333 L691.666667,387.833333 Z" id="Combined-Shape-Copy-16"></path>
                    <path d="M705.666667,401.833333 L705.666667,399.166667 C705.666667,398.522334 705.144332,398 704.5,398 C703.855668,398 703.333333,398.522334 703.333333,399.166667 L703.333333,399.166667 L703.333333,401.833333 L701.916667,401.833333 C701.272334,401.833333 700.75,402.355668 700.75,403 L700.75,403 C700.75,403.644332 701.272334,404.166667 701.916667,404.166667 L701.916667,404.166667 L703.333333,404.166667 L703.333333,406.833333 C703.333333,407.477666 703.855668,408 704.5,408 L704.5,408 C705.144332,408 705.666667,407.477666 705.666667,406.833333 L705.666667,406.833333 L705.666667,404.166667 L707.083333,404.166667 C707.727666,404.166667 708.25,403.644332 708.25,403 C708.25,402.355668 707.727666,401.833333 707.083333,401.833333 L707.083333,401.833333 L705.666667,401.833333 Z" id="Combined-Shape-Copy-21"></path>
                    <path d="M1303.66667,141.833333 L1303.66667,139.166667 C1303.66667,138.522334 1303.14433,138 1302.5,138 C1301.85567,138 1301.33333,138.522334 1301.33333,139.166667 L1301.33333,139.166667 L1301.33333,141.833333 L1299.91667,141.833333 C1299.27233,141.833333 1298.75,142.355668 1298.75,143 L1298.75,143 C1298.75,143.644332 1299.27233,144.166667 1299.91667,144.166667 L1299.91667,144.166667 L1301.33333,144.166667 L1301.33333,146.833333 C1301.33333,147.477666 1301.85567,148 1302.5,148 L1302.5,148 C1303.14433,148 1303.66667,147.477666 1303.66667,146.833333 L1303.66667,146.833333 L1303.66667,144.166667 L1305.08333,144.166667 C1305.72767,144.166667 1306.25,143.644332 1306.25,143 C1306.25,142.355668 1305.72767,141.833333 1305.08333,141.833333 L1303.66667,141.833333 Z" id="Combined-Shape-Copy-8"></path>
                    <path d="M1422.66667,119.833333 L1422.66667,117.166667 C1422.66667,116.522334 1422.14433,116 1421.5,116 C1420.85567,116 1420.33333,116.522334 1420.33333,117.166667 L1420.33333,117.166667 L1420.33333,119.833333 L1418.91667,119.833333 C1418.27233,119.833333 1417.75,120.355668 1417.75,121 L1417.75,121 C1417.75,121.644332 1418.27233,122.166667 1418.91667,122.166667 L1418.91667,122.166667 L1420.33333,122.166667 L1420.33333,124.833333 C1420.33333,125.477666 1420.85567,126 1421.5,126 L1421.5,126 C1422.14433,126 1422.66667,125.477666 1422.66667,124.833333 L1422.66667,124.833333 L1422.66667,122.166667 L1424.08333,122.166667 C1424.72767,122.166667 1425.25,121.644332 1425.25,121 C1425.25,120.355668 1424.72767,119.833333 1424.08333,119.833333 L1422.66667,119.833333 Z" id="Combined-Shape-Copy-7"></path>
                </g>
            </g>
        </g>
    </g>
</svg>