<?xml version="1.0" encoding="UTF-8"?>
<svg width="14px" height="20px" viewBox="0 0 14 20" version="1.1" xmlns="http://www.w3.org/2000/svg" xmlns:xlink="http://www.w3.org/1999/xlink">
    <!-- Generator: Sketch 46.1 (44463) - http://www.bohemiancoding.com/sketch -->
    <title>拥有者</title>
    <desc>Created with Sketch.</desc>
    <defs></defs>
    <g id="Page-1" stroke="none" stroke-width="1" fill="none" fill-rule="evenodd">
        <g id="成员-项目成员" transform="translate(-378.000000, -237.000000)">
            <g id="Group-6" transform="translate(210.000000, 186.000000)">
                <g id="Group-27" transform="translate(0.000000, 40.000000)">
                    <g id="Group-16" transform="translate(54.000000, 11.000000)">
                        <g id="拥有者" transform="translate(114.000000, 0.000000)">
                            <path d="M14,19.8275862 C14,17.183908 12.2266667,15 10.08,15 L3.92,15 C1.77333332,15 0,17.183908 0,19.8275862 L1.86666668,20 L14,20 L14,19.8275862 Z" id="Shape" fill="#FAB727" fill-rule="nonzero"></path>
                            <path d="M3,10 C2.49118321,10 2,9.29329823 2,8.76268598 C2,8.19125742 2.49118319,8 3,8" id="Shape" fill="#F5D7B2" fill-rule="nonzero"></path>
                            <path d="M3.64102563,11 C2.71794871,11 2,10.0769231 2,9.24615384 C2,8.5076923 2.61538462,8 3.64102563,8 C3.84615385,8 4,8.13846154 4,8.32307693 C4,8.50769232 3.84615385,8.64615386 3.64102563,8.64615386 C3.02564102,8.64615386 2.76923077,8.83076925 2.76923077,9.20000001 C2.76923077,9.66153848 3.17948717,10.2615385 3.64102563,10.2615385 C3.84615385,10.2615385 4,10.4 4,10.5846154 C4,10.7692308 3.84615385,11 3.64102563,11 Z" id="Shape" fill="#F5D7B2" fill-rule="nonzero"></path>
                            <path d="M12,8 C12.4765914,8 13,8.17931509 13,8.75074366 C13,9.32217223 12.4765914,10 12,10" id="Shape" fill="#F5D7B2" fill-rule="nonzero"></path>
                            <path d="M11.3585113,11 C11.1536477,11 11,10.8571429 11,10.6666667 C11,10.4761905 11.1536477,10.3333333 11.3585113,10.3333333 C11.8194543,10.3333333 12.2291815,9.71428569 12.2291815,9.23809523 C12.2291815,8.85714286 11.9218861,8.66666666 11.3585113,8.66666666 C11.1536477,8.66666666 11,8.52380951 11,8.33333331 C11,8.14285711 11.1536477,7.99999997 11.3585113,8 C12.3828292,8 12.9974199,8.47619049 12.9974199,9.28571429 C13.0486358,10.0476191 12.3316133,11 11.3585113,11 Z" id="Shape" fill="#F5D7B2" fill-rule="nonzero"></path>
                            <path d="M3,4 L3,10.4029851 C3,12.391791 4.60946746,14.0410448 6.45562131,14.2835821 L6.45562131,16.3208955 C6.45562131,16.7089552 6.73964498,17 7.11834319,17 C7.49704141,17 7.78106507,16.7089552 7.7810651,16.3208955 L7.7810651,14.2350746 C9.67455623,13.8470149 11,12.2947761 11,10.4029851 L11,4 L3,4 Z" id="Shape" fill="#F5D7B2" fill-rule="nonzero"></path>
                            <rect id="Rectangle-15" fill="#F5D7B2" x="6" y="12" width="3" height="5" rx="1.5"></rect>
                            <path d="M7.67213114,17 C7.0819672,17 6.59016392,16.5053003 6.59016392,15.9116608 L6.59016392,14.1307421 C4.52459014,13.6855124 2.99999997,11.9045937 3,9.87632508 L3,3.34628973 C3,3.14840987 3.14754098,2.99999997 3.34426228,3 L11.6557377,3 C11.852459,3 12,3.14840989 12,3.34628973 L12,9.92579505 C12,11.9045937 10.6229508,13.5865724 8.65573769,14.1307421 L8.65573769,15.9611307 C8.70491802,16.5053003 8.26229507,17 7.67213114,17 L7.67213114,17 Z M3.73770492,3.6925795 L3.73770492,9.87632508 C3.73770492,11.6572438 5.16393442,13.1908127 7.03278687,13.4876325 C7.22950819,13.4876325 7.32786883,13.6855124 7.32786883,13.8339223 L7.32786883,15.9116608 C7.32786883,16.1095407 7.47540982,16.2579506 7.67213114,16.2579505 C7.86885246,16.2579505 8.01639344,16.1095406 8.01639344,15.9116608 L8.01639344,13.7844523 C8.01639344,13.5865724 8.16393443,13.4381625 8.31147541,13.4381625 C10.0819672,13.0918728 11.3606557,11.6572438 11.3606557,9.92579505 L11.3606557,3.6925795 L3.73770492,3.6925795 Z" id="Shape" fill-rule="nonzero"></path>
                            <path d="M3.06062383,5.26143792 C6.97337686,6.13071897 8.86070477,3.70588235 9.22896387,3.70588235 C9.59722297,3.70588235 9.59722297,5.30718953 10.8861299,5.49019608 L10.8861299,7 C12.1750367,6.22222223 11.9909072,4.48366012 11.9909072,4.48366012 C11.9909072,2.01307189 9.73532014,0 6.97337683,0 C4.21143352,0 2.00187887,2.01307189 2.00187887,4.48366012 C2.00187887,4.48366012 1.9098141,5.76470588 3.01459143,6.7254902 L3.06062383,5.26143792 Z" id="Shape" fill="#784916" fill-rule="nonzero"></path>
                            <path d="M11.4728407,8 C11.4253544,8 11.3303818,8 11.2828955,7.95238094 C11.187923,7.90476189 11.0929504,7.76190474 11.0929504,7.66666666 L11.0929504,6.38095237 C10.238197,6.09523809 9.90579295,5.33333331 9.71584778,4.85714286 C9.71584778,4.8095238 9.66836148,4.71428571 9.6208752,4.66666666 C9.57338889,4.71428571 9.47841631,4.76190474 9.43093001,4.8095238 C8.62366299,5.42857143 6.72421115,6.85714286 3.68508821,6.28571429 L3.68508821,7.38095237 C3.68508821,7.52380951 3.59011563,7.66666666 3.49514304,7.71428571 C3.40017046,7.71428571 3.25771157,7.71428571 3.16273896,7.6190476 C1.88060898,6.52380951 1.97558156,5.04761903 2.02306786,5 C2.02306786,2.23809523 4.49235525,0 7.48399189,0 C10.5231148,0 12.9924022,2.23809523 12.9924022,5.04761903 C12.9924022,5.09523809 13.1823474,7.04761903 11.6627859,7.95238094 C11.5678133,7.95238094 11.520327,8 11.4728407,8 L11.4728407,8 Z M9.71584778,3.85714286 C9.76333409,3.85714286 9.76333409,3.85714286 9.71584778,3.85714286 C10.0957381,3.85714286 10.238197,4.1904762 10.3806559,4.57142857 C10.5706011,5.04761906 10.8080326,5.66666666 11.520327,5.76190474 C11.7102722,5.8095238 11.8052448,5.95238094 11.8052448,6.09523809 L11.8052448,6.85714286 C12.327594,6.09523809 12.2326214,5.09523809 12.2326214,5.09523809 C12.2326214,2.66666666 10.0957381,0.761904743 7.43650558,0.761904743 C4.82475931,0.761904743 2.687876,2.71428569 2.687876,5.09523809 C2.687876,5.14285714 2.64038969,5.76190474 3.02028008,6.42857143 L3.02028008,5.90476189 C3.02028008,5.8095238 3.06776638,5.71428569 3.16273896,5.6190476 C3.25771155,5.57142854 3.35268416,5.52380951 3.44765674,5.57142857 C6.43929337,6.28571429 8.19628633,4.95238094 9.05103965,4.28571429 C9.38344373,4 9.52590262,3.85714286 9.71584778,3.85714286 L9.71584778,3.85714286 Z" id="Shape" fill-rule="nonzero"></path>
                        </g>
                    </g>
                </g>
            </g>
        </g>
    </g>
</svg>