<?xml version="1.0" encoding="UTF-8"?>
<svg width="15px" height="20px" viewBox="0 0 15 20" version="1.1" xmlns="http://www.w3.org/2000/svg" xmlns:xlink="http://www.w3.org/1999/xlink">
    <!-- Generator: Sketch 46.1 (44463) - http://www.bohemiancoding.com/sketch -->
    <title>管理员</title>
    <desc>Created with Sketch.</desc>
    <defs></defs>
    <g id="Page-1" stroke="none" stroke-width="1" fill="none" fill-rule="evenodd">
        <g id="成员-项目成员" transform="translate(-378.000000, -307.000000)">
            <g id="Group-6" transform="translate(210.000000, 186.000000)">
                <g id="Group-27-Copy" transform="translate(0.000000, 110.000000)">
                    <g id="Group-21" transform="translate(54.000000, 11.000000)">
                        <g id="拥有者" transform="translate(114.000000, 0.000000)">
                            <path d="M14.6654275,19.4374074 C14.6654275,16.8664646 12.8572491,14.7426422 10.6684015,14.7426422 L4.38736059,14.7426422 C2.198513,14.7426422 0.390334572,16.8664646 0.390334572,19.4374074 L2.29368031,19.6050776 L14.6654275,19.6050776 L14.6654275,19.4374074 Z" id="Shape" fill="#76D557" fill-rule="nonzero"></path>
                            <path d="M3.50776814,10.5211911 C2.84159715,10.5211911 2.198513,9.68763518 2.198513,9.06177715 C2.198513,8.38777622 2.84159712,8.16218778 3.50776814,8.16218778" id="Shape" fill="#F5D7B2" fill-rule="nonzero"></path>
                            <path d="M3.38810409,10.8430654 C2.53159851,10.8430654 1.86542752,9.88020688 1.86542752,9.01363422 C1.86542752,8.24334742 2.43643124,7.71377526 3.38810409,7.71377526 C3.57843867,7.71377526 3.7211896,7.85820403 3.7211896,8.05077574 C3.7211896,8.24334745 3.57843867,8.38777622 3.38810409,8.38777622 C2.81710037,8.38777622 2.57918217,8.58034793 2.57918217,8.96549131 C2.57918217,9.44692056 2.9598513,10.0727786 3.38810409,10.0727786 C3.57843867,10.0727786 3.7211896,10.2172073 3.7211896,10.409779 C3.7211896,10.6023507 3.57843867,10.8430654 3.38810409,10.8430654 Z" id="Shape" fill="#F5D7B2" fill-rule="nonzero"></path>
                            <path d="M11.5070504,8.12813084 C12.1732214,8.12813084 12.9048327,8.33963329 12.9048327,9.01363422 C12.9048327,9.68763515 12.1732214,10.4871341 11.5070504,10.4871341" id="Shape" fill="#F5D7B2" fill-rule="nonzero"></path>
                            <path d="M11.7152416,10.8430654 C11.5249071,10.8430654 11.3821561,10.6986366 11.3821561,10.5060649 C11.3821561,10.3134932 11.5249071,10.1690644 11.7152416,10.1690644 C12.1434944,10.1690644 12.5241636,9.54320638 12.5241636,9.06177715 C12.5241636,8.67663377 12.2386617,8.48406206 11.7152416,8.48406206 C11.5249071,8.48406206 11.3821561,8.33963329 11.3821561,8.14706158 C11.3821561,7.95448987 11.5249071,7.8100611 11.7152416,7.81006113 C12.6669145,7.81006113 13.2379182,8.29149038 13.2379182,9.10992008 C13.2855019,9.88020688 12.6193308,10.8430654 11.7152416,10.8430654 Z" id="Shape" fill="#F5D7B2" fill-rule="nonzero"></path>
                            <path d="M3.48327137,3.81419839 L3.48327137,10.1690644 C3.48327137,12.1429243 5.10111524,13.7797837 6.95687732,14.0204984 L6.95687732,16.0425012 C6.95687732,16.4276446 7.24237918,16.7165021 7.62304832,16.7165021 C8.00371745,16.7165021 8.28921931,16.4276446 8.28921934,16.0425012 L8.28921934,13.9723554 C10.1925651,13.587212 11.5249071,12.0466384 11.5249071,10.1690644 L11.5249071,3.81419839 L3.48327137,3.81419839 Z" id="Shape" fill="#F5D7B2" fill-rule="nonzero"></path>
                            <rect id="Rectangle-15" fill="#F5D7B2" x="6" y="12" width="3" height="5" rx="1.5"></rect>
                            <path d="M7.67063197,17.1016455 C7.09962825,17.1016455 6.62379181,16.6202162 6.62379181,16.0425012 L6.62379181,14.3093559 C4.6252788,13.8760696 3.15018586,12.1429243 3.15018588,10.1690644 L3.15018588,3.81419839 C3.15018588,3.62162669 3.29293681,3.47719791 3.48327137,3.47719794 L11.5249071,3.47719794 C11.7152416,3.47719794 11.8579926,3.62162671 11.8579926,3.81419839 L11.8579926,10.2172073 C11.8579926,12.1429243 10.5256506,13.7797837 8.62230482,14.3093559 L8.62230482,16.0906441 C8.66988848,16.6202162 8.24163569,17.1016455 7.67063197,17.1016455 L7.67063197,17.1016455 Z M3.86394053,4.15119887 L3.86394053,10.1690644 C3.86394053,11.9022097 5.24386617,13.3946403 7.0520446,13.6834979 C7.24237918,13.6834979 7.33754646,13.8760696 7.33754646,14.0204984 L7.33754646,16.0425012 C7.33754646,16.2350729 7.48029739,16.3795017 7.67063197,16.3795016 C7.86096655,16.3795016 8.00371748,16.2350729 8.00371748,16.0425012 L8.00371748,13.9723554 C8.00371748,13.7797837 8.14646841,13.635355 8.28921934,13.635355 C10.0022305,13.2983545 11.2394052,11.9022097 11.2394052,10.2172073 L11.2394052,4.15119887 L3.86394053,4.15119887 Z" id="Shape" fill-rule="nonzero"></path>
                            <path d="M3.43568774,5.93248708 C7.48029742,6.84720265 9.43122678,4.29562764 9.81189591,4.29562764 C10.192565,4.29562764 10.192565,5.98062999 11.5249071,6.17320169 L11.5249071,7.76191819 C12.8572491,6.94348849 12.6669145,5.11405735 12.6669145,5.11405735 C12.6669145,2.51433944 10.335316,0.396050776 7.48029739,0.396050776 C4.6252788,0.396050776 2.34126393,2.51433944 2.34126393,5.11405735 C2.34126393,5.11405735 2.24609665,6.46205924 3.38810409,7.47306065 L3.43568774,5.93248708 Z" id="Shape" fill="#784916" fill-rule="nonzero"></path>
                            <path d="M11.5724907,8.09891867 C11.5249071,8.09891867 11.4297398,8.09891867 11.3821561,8.05077574 C11.2869889,8.00263281 11.1918216,7.85820403 11.1918216,7.76191819 L11.1918216,6.46205924 C10.335316,6.17320169 10.0022305,5.40291489 9.81189591,4.92148567 C9.81189591,4.87334274 9.76431226,4.7770569 9.71672863,4.72891396 C9.66914498,4.7770569 9.5739777,4.8251998 9.52639405,4.87334274 C8.71747213,5.49920076 6.81412639,6.94348849 3.76877322,6.3657734 L3.76877322,7.47306065 C3.76877322,7.61748942 3.67360595,7.76191819 3.57843867,7.81006113 C3.48327139,7.81006113 3.34052046,7.81006113 3.24535316,7.71377526 C1.9605948,6.60648801 2.05576207,5.11405735 2.10334572,5.06591444 C2.10334572,2.27362482 4.57769518,0.0109073907 7.57546469,0.0109073907 C10.6208179,0.0109073907 13.0951673,2.27362482 13.0951673,5.11405735 C13.0951673,5.16220028 13.2855019,7.13606017 11.7628253,8.05077574 C11.667658,8.05077574 11.6200743,8.09891867 11.5724907,8.09891867 L11.5724907,8.09891867 Z M9.81189591,3.91048426 C9.85947956,3.91048426 9.85947956,3.91048426 9.81189591,3.91048426 C10.192565,3.91048426 10.335316,4.24748474 10.4780669,4.63262812 C10.6684015,5.11405738 10.9063197,5.73991537 11.6200743,5.83620121 C11.8104089,5.88434415 11.9055762,6.02877292 11.9055762,6.17320169 L11.9055762,6.94348849 C12.4289963,6.17320169 12.333829,5.16220028 12.333829,5.16220028 C12.333829,2.70691114 10.192565,0.781194161 7.52788104,0.781194161 C4.91078066,0.781194161 2.76951672,2.75505405 2.76951672,5.16220028 C2.76951672,5.21034322 2.72193307,5.83620121 3.10260223,6.51020217 L3.10260223,5.98062999 C3.10260223,5.88434415 3.15018588,5.78805828 3.24535316,5.69177244 C3.34052044,5.64362951 3.43568774,5.5954866 3.53085502,5.64362953 C6.52862454,6.3657734 8.28921934,5.01777151 9.14572492,4.34377058 C9.47881043,4.05491303 9.62156136,3.91048426 9.81189591,3.91048426 L9.81189591,3.91048426 Z" id="Shape" fill-rule="nonzero"></path>
                        </g>
                    </g>
                </g>
            </g>
        </g>
    </g>
</svg>