<?xml version="1.0" encoding="UTF-8"?>
<svg width="18px" height="18px" viewBox="0 0 18 18" version="1.1" xmlns="http://www.w3.org/2000/svg" xmlns:xlink="http://www.w3.org/1999/xlink">
    <!-- Generator: Sketch 46.1 (44463) - http://www.bohemiancoding.com/sketch -->
    <title>历史记录</title>
    <desc>Created with Sketch.</desc>
    <defs></defs>
    <g id="Page-1" stroke="none" stroke-width="1" fill="none" fill-rule="evenodd">
        <g id="成员-目录权限添加成员" transform="translate(-355.000000, -358.000000)">
            <g id="Group-54" transform="translate(320.000000, 237.000000)">
                <g id="Group-13" transform="translate(21.000000, 115.000000)">
                    <g id="Group-16" transform="translate(14.000000, 6.000000)">
                        <rect id="Rectangle-10" x="0" y="0" width="18" height="18"></rect>
                        <g id="历史记录" transform="translate(2.000000, 2.000000)" fill-rule="nonzero">
                            <path d="M9.56666667,12.7071038 L1.86666667,12.7071038 C0.843442623,12.7071038 0.00956284153,11.873224 0.00956284153,10.85 L0.00956284153,1.86666667 C0.00956284153,0.843442623 0.843442623,0.00956284153 1.86666667,0.00956284153 L9.56666667,0.00956284153 C10.5898907,0.00956284153 11.4237705,0.843442623 11.4237705,1.86666667 L11.4237705,10.85 C11.4237705,11.8751366 10.5918033,12.7071038 9.56666667,12.7071038 Z M1.86666667,1.15710383 C1.47459016,1.15710383 1.15710383,1.47459016 1.15710383,1.86666667 L1.15710383,10.85 C1.15710383,11.2420765 1.47459016,11.5595628 1.86666667,11.5595628 L9.56666667,11.5595628 C9.95874317,11.5595628 10.2762295,11.2420765 10.2762295,10.85 L10.2762295,1.86666667 C10.2762295,1.47459016 9.95874317,1.15710383 9.56666667,1.15710383 L1.86666667,1.15710383 Z" id="Shape" fill="#808080"></path>
                            <polygon id="Shape" fill="#FFFFFF" points="6.35737705 6.35737705 13.4166667 6.35737705 13.4166667 12.7740437 6.35737705 12.7740437"></polygon>
                            <path d="M10.2092896,13.9904372 C8.12459016,13.9904372 6.42622951,12.2939891 6.42622951,10.207377 C6.42622951,8.12076503 8.1226776,6.42622951 10.2092896,6.42622951 C12.2959016,6.42622951 13.9923497,8.1226776 13.9923497,10.2092896 C13.9923497,12.2959016 12.2939891,13.9904372 10.2092896,13.9904372 Z M10.2092896,7.57377049 C8.7557377,7.57377049 7.57377049,8.7557377 7.57377049,10.2092896 C7.57377049,11.6628415 8.7557377,12.8448087 10.2092896,12.8448087 C11.6628415,12.8448087 12.8448087,11.6628415 12.8448087,10.2092896 C12.8448087,8.7557377 11.660929,7.57377049 10.2092896,7.57377049 Z M8.50136612,4.07377049 L2.91666667,4.07377049 C2.59918033,4.07377049 2.34289617,3.81748634 2.34289617,3.5 C2.34289617,3.18251366 2.59918033,2.92622951 2.91666667,2.92622951 L8.50136612,2.92622951 C8.81885246,2.92622951 9.07513661,3.18251366 9.07513661,3.5 C9.07513661,3.81748634 8.81693989,4.07377049 8.50136612,4.07377049 Z M6.77240437,6.64043716 L2.91666667,6.64043716 C2.59918033,6.64043716 2.34289617,6.38415301 2.34289617,6.06666667 C2.34289617,5.74918033 2.59918033,5.49289617 2.91666667,5.49289617 L6.77240437,5.49289617 C7.08989071,5.49289617 7.34617486,5.74918033 7.34617486,6.06666667 C7.34617486,6.38415301 7.08989071,6.64043716 6.77240437,6.64043716 Z M4.75464481,9.20710383 L2.91666667,9.20710383 C2.59918033,9.20710383 2.34289617,8.95081967 2.34289617,8.63333333 C2.34289617,8.31584699 2.59918033,8.05956284 2.91666667,8.05956284 L4.75464481,8.05956284 C5.07213115,8.05956284 5.3284153,8.31584699 5.3284153,8.63333333 C5.3284153,8.95081967 5.07021858,9.20710383 4.75464481,9.20710383 Z" id="Shape" fill="#808080"></path>
                            <path d="M11.2459016,11.2210383 L9.66229508,11.2210383 L9.66229508,9.17459016 C9.66229508,8.85710383 9.91857923,8.60081967 10.2360656,8.60081967 C10.5535519,8.60081967 10.8098361,8.85710383 10.8098361,9.17459016 L10.8098361,10.0734973 L11.2459016,10.0734973 C11.563388,10.0734973 11.8196721,10.3297814 11.8196721,10.6472678 C11.8196721,10.9647541 11.563388,11.2210383 11.2459016,11.2210383 Z" id="Shape" fill="#808080"></path>
                        </g>
                    </g>
                </g>
            </g>
        </g>
    </g>
</svg>