<?xml version="1.0" encoding="UTF-8"?>
<svg width="30px" height="30px" viewBox="0 0 30 30" version="1.1" xmlns="http://www.w3.org/2000/svg" xmlns:xlink="http://www.w3.org/1999/xlink">
    <!-- Generator: Sketch 46.1 (44463) - http://www.bohemiancoding.com/sketch -->
    <title>成员页-修改-高亮</title>
    <desc>Created with Sketch.</desc>
    <defs></defs>
    <g id="Page-1" stroke="none" stroke-width="1" fill="none" fill-rule="evenodd">
        <g id="成员-项目成员勾选&amp;移动至ICON显示效果" transform="translate(-1229.000000, -457.000000)" fill-rule="nonzero" fill="#1891F0">
            <g id="Group-54" transform="translate(1208.000000, 411.000000)">
                <g id="Group-53" transform="translate(21.000000, 46.000000)">
                    <g id="Group-11">
                        <path d="M23.1427887,27.9999728 L5.87795383,27.9999728 C4.29111022,27.9999728 3,26.7473272 3,25.2077586 L3,6.59547322 C3,5.05590468 4.29111022,3.80325907 5.87795383,3.80325907 L19.3068068,3.80325907 C19.8370351,3.80325907 20.2658163,4.22019097 20.2658163,4.73369787 C20.2658163,5.24720477 19.8370351,5.66413667 19.3068068,5.66413667 L5.87795383,5.66413667 C5.34963218,5.66413667 4.91894432,6.08199353 4.91894432,6.59457548 L4.91894432,25.2068609 C4.91894432,25.7203678 5.34963218,26.1372997 5.87795383,26.1372997 L23.1437421,26.1372997 C23.6730171,26.1372997 24.1027516,25.7203678 24.1027516,25.2068609 L24.1027516,10.3181534 C24.1027516,9.80464648 24.5315327,9.38771457 25.0617611,9.38771457 C25.5919894,9.38771457 26.0207706,9.80464648 26.0207706,10.3181534 L26.0207706,25.2077858 C26.0207706,26.7473544 24.7296604,28 23.1428168,28 L23.1427887,27.9999728 Z M17.5074793,13.1103403 C17.2615161,13.1103403 17.0165063,13.0193422 16.8298749,12.837346 C16.4547054,12.4733535 16.4547054,11.8855518 16.8298749,11.5215593 L26.3624328,2.27299437 C26.7376023,1.90900188 27.3434534,1.90900188 27.7186229,2.27299437 C28.0937924,2.63698686 28.0937924,3.22478849 27.7186229,3.58878098 L18.186065,12.837346 C17.9994336,13.0193422 17.7534705,13.1103403 17.5074793,13.1103403 Z M13.5508991,13.1103403 L7.7959448,13.1103403 C7.26666981,13.1103403 6.8369353,12.6934084 6.8369353,12.1799015 C6.8369353,11.6663946 7.26666981,11.2494627 7.7959448,11.2494627 L13.5508991,11.2494627 C14.0801741,11.2494627 14.5099086,11.6663946 14.5099086,12.1799015 C14.5099086,12.6934084 14.0801741,13.1103403 13.5508991,13.1103403 Z M19.3067787,18.6938165 L7.79591677,18.6938165 C7.26664177,18.6938165 6.83690726,18.2778095 6.83690726,17.7633777 C6.83690726,17.2489458 7.26664177,16.8329389 7.79591677,16.8329389 L19.3057974,16.8329389 C19.8360257,16.8329389 20.2648069,17.2489458 20.2648069,17.7633777 C20.2657602,18.2778095 19.836979,18.6938165 19.3067787,18.6938165 Z" id="Shape"></path>
                    </g>
                </g>
            </g>
        </g>
    </g>
</svg>