<?xml version="1.0" encoding="UTF-8"?>
<svg width="30px" height="30px" viewBox="0 0 30 30" version="1.1" xmlns="http://www.w3.org/2000/svg" xmlns:xlink="http://www.w3.org/1999/xlink">
    <!-- Generator: Sketch 46.1 (44463) - http://www.bohemiancoding.com/sketch -->
    <title>成员页-删除</title>
    <desc>Created with Sketch.</desc>
    <defs></defs>
    <g id="Page-1" stroke="none" stroke-width="1" fill="none" fill-rule="evenodd">
        <g id="成员-项目成员勾选&amp;移动至ICON显示效果" transform="translate(-1278.000000, -457.000000)">
            <g id="Group-54" transform="translate(1208.000000, 411.000000)">
                <g id="Group-53" transform="translate(21.000000, 46.000000)">
                    <g id="Group-7" transform="translate(49.000000, 0.000000)">
                        <rect id="Rectangle-16" x="0" y="0" width="30" height="30"></rect>
                        <path d="M14.9991026,1.00000012 C11.2863098,1.00000012 7.72558323,2.47499587 5.10024223,5.10050514 C2.47490122,7.72601442 1,11.2869692 1,15 C1,18.7130308 2.47490122,22.2739856 5.10024223,24.8994949 C7.72558323,27.5250041 11.2863098,28.9999999 14.9991026,28.9999999 C18.7122064,29.000476 22.2733941,27.5256904 24.8991233,24.9001295 C27.5248524,22.2745686 29,18.7133418 29,15 C29,11.2866582 27.5248524,7.72543139 24.8991233,5.09987051 C22.2733941,2.47430963 18.7122064,0.999524046 14.9991026,1.00000012 Z M14.9991026,27.2051281 C11.7621629,27.2056043 8.65766314,25.9198634 6.36880109,23.6308547 C4.07993904,21.3418459 2.79428062,18.2371472 2.79475675,15 C2.79475675,8.25929388 8.25882851,2.7948719 14.9991026,2.7948719 C18.2358964,2.7948719 21.3401195,4.08076563 23.6288783,6.36967115 C25.9176372,8.65857668 27.2034485,11.7629988 27.2034485,15 C27.2034485,21.7433333 21.740209,27.2051281 14.9991026,27.2051281 Z M20.4551631,11.1141026 L16.5659253,15.0053846 L20.4515736,18.891282 C20.8839651,19.3254908 20.8839651,20.0275861 20.4515736,20.4617948 C20.0167782,20.8944216 19.3141621,20.8944216 18.8793667,20.4617948 L14.9955131,16.5758974 L11.1134543,20.4564102 C10.6786588,20.889037 9.9760428,20.889037 9.54124736,20.4564102 C9.10885585,20.0222015 9.10885585,19.3201061 9.54124736,18.8858974 L13.4215114,15.0053846 L9.53765784,11.1194872 C9.10505879,10.6846639 9.10505879,9.98200284 9.53765784,9.54717953 C9.97245328,9.11455275 10.6750693,9.11455275 11.1098648,9.54717953 L14.9955131,13.4330769 L18.884751,9.54358979 C19.3219939,9.13193295 20.0071992,9.14226837 20.431829,9.56692542 C20.8564588,9.99158247 20.8667936,10.6768317 20.4551631,11.1141026 L20.4551631,11.1141026 Z" id="Shape" fill="#F55471" fill-rule="nonzero"></path>
                    </g>
                </g>
            </g>
        </g>
    </g>
</svg>