<?xml version="1.0" encoding="UTF-8"?>
<svg width="54px" height="54px" viewBox="0 0 54 54" version="1.1" xmlns="http://www.w3.org/2000/svg" xmlns:xlink="http://www.w3.org/1999/xlink">
    <!-- Generator: Sketch 46.1 (44463) - http://www.bohemiancoding.com/sketch -->
    <title>项目成员@1x</title>
    <desc>Created with Sketch.</desc>
    <defs></defs>
    <g id="切图" stroke="none" stroke-width="1" fill="none" fill-rule="evenodd">
        <g id="首页" transform="translate(-120.000000, -1062.000000)">
            <g id="Group-32" transform="translate(120.000000, 780.000000)">
                <g id="Group-28" transform="translate(0.000000, 110.000000)">
                    <g id="Group-10-Copy-3" transform="translate(0.000000, 172.000000)">
                        <g id="Group-37">
                            <rect id="Rectangle-23" x="0" y="6" width="48" height="48"></rect>
                            <path d="M44.7502111,46 L13.25,46 C10.3492842,46 8,43.6507158 8,40.75 L8,9.25 C8,6.34928422 10.3494953,4 13.25,4 L44.75,4 C47.6507158,4 50,6.34928422 50,9.25 L50,40.75 C50.0002111,43.6507158 47.6507158,46 44.7502111,46 Z" id="Path" fill="#DEECF1"></path>
                            <path d="M39.7502111,51 L8.25,51 C5.34928422,51 3,48.6507158 3,45.75 L3,14.25 C3,11.3492842 5.34949534,9 8.25,9 L39.75,9 C42.6507158,9 45,11.3492842 45,14.25 L45,45.75 C45.0002111,48.6507158 42.6507158,51 39.7502111,51 Z" id="Shape" fill="#4F657B" fill-rule="nonzero"></path>
                            <path d="M42,21 L6,21 L6,45.5015885 C6,46.8819263 7.14993548,48 8.57218065,48 L39.4278194,48 C40.8498581,48 42,46.8819263 42,45.5015885 L42,21 Z" id="Path" fill="#4F657B"></path>
                            <path d="M37.9918253,40.9817239 C37.481709,37.2780546 35.2864681,32.1342319 32.2906021,30.5940867 C33.6039125,29.5932793 34.4091296,28.0913738 34.4091296,26.4759836 C34.4091296,23.9329323 32.4348129,21.7214156 29.7157763,21.2184348 C29.2025131,21.1243323 28.7167369,21.4435524 28.6188303,21.9315645 C28.5200245,22.4204715 28.8530484,22.8917864 29.3607885,22.985889 C31.2006241,23.3270838 32.5354489,24.7947 32.5354489,26.4759836 C32.5354489,27.9451122 31.500124,29.2787195 29.9571873,29.8016689 C29.5538724,29.8208968 29.1953844,30.0869084 29.0927575,30.4822377 C28.9683271,30.965003 29.2729969,31.45391 29.7752781,31.5743699 C32.7578823,32.2894439 35.139849,36.8914905 35.9415338,40.1990899 L11.9239987,40.1990899 C12.3293046,36.6131336 15.1187927,31.5805117 18.855172,30.8137415 C19.2946441,30.7236204 19.5958459,30.3507905 19.5961027,29.9357087 C19.6019148,29.5641443 19.3668618,29.2131348 18.983231,29.0770273 C17.0308782,28.3858724 15.7198477,26.5832339 15.7198477,24.5915264 C15.7198477,21.9499899 17.9558375,19.800879 20.7050584,19.800879 C23.4533802,19.800879 25.68937,21.94999 25.68937,24.5915264 C25.68937,26.572154 24.3927573,28.365626 22.4592858,29.0652066 C22.3897333,29.0873665 22.3231991,29.1173966 22.261,29.154371 C22.0900086,29.2702322 21.999905,29.368779 21.9346231,29.480381 C21.9055305,29.5339908 21.8991404,29.5471386 21.8930714,29.5604407 C21.8190875,29.7228748 21.7945547,29.9057096 21.8299411,30.0872789 C21.8436525,30.146907 21.8461251,30.1554253 21.8485976,30.1639436 C21.8695982,30.2274605 21.8704974,30.2304233 21.8716213,30.2333554 C21.8983697,30.2952365 21.9009707,30.3007611 21.9036681,30.3062548 C21.9408206,30.3744012 21.9428757,30.3777653 21.9449629,30.3811602 C21.9748262,30.4266837 21.9815374,30.4362205 21.9885055,30.445603 C22.0289012,30.4961881 22.0361262,30.504583 22.0435439,30.5127926 C22.092449,30.5628839 22.0978437,30.5680998 22.1033668,30.5731923 C22.1443405,30.6088086 22.1538454,30.6163702 22.1634466,30.6238083 C22.2482519,30.6887757 22.3398647,30.7380028 22.440565,30.77186 C22.4994888,30.7896681 22.5117552,30.7929088 22.5241822,30.7958717 C25.653823,31.4371822 28.1715873,33.6355511 29.1276301,36.5382227 C29.2538908,36.9216079 29.62259,37.166941 30.0205424,37.166941 C30.1138572,37.166941 30.2090023,37.1537623 30.3032483,37.1247199 C30.7963779,36.9752176 31.069932,36.4687184 30.9134869,35.9947801 C29.9786696,33.1545451 27.809503,30.8713327 25.0325059,29.6915177 C26.599269,28.4614879 27.563179,26.5961041 27.563179,24.5915265 C27.563179,20.9572072 24.4864252,18 20.7051867,18 C16.9230492,18 13.8462954,20.9572072 13.8462954,24.5915265 C13.8462954,26.6015978 14.8148293,28.4709321 16.3886889,29.7006532 C12.587317,31.3189753 10,36.9954076 10,41.0995604 C10,41.5972636 10.4190173,42 10.9368403,42 L36.3789187,42 C36.499881,42 36.6153525,41.9777784 36.7214474,41.9377485 C36.8278956,41.9779944 36.9430779,42 37.0623385,42 C37.1026057,42 37.1446712,41.9973458 37.1858376,41.992099 C37.6990688,41.9270081 38.0595476,41.4741803 37.9918253,40.9817239 Z" id="Shape" fill="#FFFFFF" fill-rule="nonzero"></path>
                        </g>
                    </g>
                </g>
            </g>
        </g>
    </g>
</svg>