<?xml version="1.0" encoding="UTF-8"?>
<svg width="16px" height="12px" viewBox="0 0 16 12" version="1.1" xmlns="http://www.w3.org/2000/svg" xmlns:xlink="http://www.w3.org/1999/xlink">
    <!-- Generator: Sketch 46.1 (44463) - http://www.bohemiancoding.com/sketch -->
    <title>消息未读</title>
    <desc>Created with Sketch.</desc>
    <defs></defs>
    <g id="Page-1" stroke="none" stroke-width="1" fill="none" fill-rule="evenodd">
        <g id="消息-" transform="translate(-255.000000, -189.000000)" fill-rule="nonzero" fill="#1891F0">
            <g id="Group-9" transform="translate(240.000000, 184.000000)">
                <g id="Group-9-Copy-7">
                    <g id="未读" transform="translate(15.000000, 5.000000)">
                        <path d="M13.6387018,11.9849297 L2.36129819,11.9849297 C1.0668388,11.9849297 0.0129101696,10.9520525 0.0129101696,9.68344893 L0.0129101696,2.31655107 C0.0129101696,1.33225866 0.651877349,0.457731959 1.6048198,0.137432057 C1.84718667,0.0564573557 2.10240631,0.0132708557 2.3631343,0.0132708557 L13.6387018,0.0132708557 C14.3143912,0.0132708557 14.9570307,0.301180887 15.4050421,0.801424562 C15.7814452,1.22069354 15.9870898,1.75872541 15.9870898,2.31475164 L15.9870898,9.68164948 C15.9870898,10.9520525 14.9331612,11.9849297 13.6387018,11.9849297 L13.6387018,11.9849297 Z M2.36129819,0.934582948 C2.20522862,0.934582948 2.05283127,0.959775077 1.90961449,1.00835989 C1.33674735,1.20089972 0.952999811,1.72633553 0.952999826,2.31655107 L0.952999826,9.68344893 C0.952999826,10.4446111 1.58462256,11.0654171 2.3631343,11.0654171 L13.6387018,11.0654171 C14.4153774,11.0654171 15.0488363,10.4464105 15.0488363,9.68344893 L15.0488363,2.31655107 C15.0488363,1.9836551 14.9239806,1.66155575 14.6999749,1.40963449 C14.4300663,1.10732896 14.0444827,0.934582948 13.6405379,0.934582948 L2.36129819,0.934582948 Z" id="Combined-Shape"></path>
                        <path d="M5.45610271,5.71122625 L6.12084892,6.36267666 L1.0509197,11.331338 L0.386191858,10.6798695 L5.45610271,5.71122625 Z M10.6249066,5.462382 L15.5001161,10.2401949 L14.8353698,10.8916634 L9.9601971,6.11386842 L10.6249066,5.462382 Z" id="Shape"></path>
                        <path d="M8,7.07066542 C7.15722432,7.07066542 6.36585979,6.74856608 5.77095929,6.16554827 L0.918113688,1.40963449 L1.58278645,0.758238046 L6.43379594,5.51415182 C7.29860499,6.35988753 8.70139501,6.35988753 9.56436794,5.51415182 L14.7201721,0.463130273 L15.3848449,1.11452671 L10.2290407,6.16554827 C9.63414023,6.75036552 8.8427757,7.07066542 8,7.07066542 Z" id="Shape"></path>
                    </g>
                </g>
            </g>
        </g>
    </g>
</svg>