<?xml version="1.0" encoding="UTF-8"?>
<svg width="15px" height="16px" viewBox="0 0 15 16" version="1.1" xmlns="http://www.w3.org/2000/svg" xmlns:xlink="http://www.w3.org/1999/xlink">
    <!-- Generator: Sketch 46.1 (44463) - http://www.bohemiancoding.com/sketch -->
    <title>消息已读</title>
    <desc>Created with Sketch.</desc>
    <defs></defs>
    <g id="Page-1" stroke="none" stroke-width="1" fill="none" fill-rule="evenodd">
        <g id="消息-" transform="translate(-255.000000, -340.000000)">
            <g id="Group-9" transform="translate(240.000000, 184.000000)">
                <g id="Group-9-Copy-2" transform="translate(0.000000, 137.000000)">
                    <g id="已读-(1)" transform="translate(15.000000, 19.000000)">
                        <path d="M14.8866667,5.35111508 C14.86,5.30534972 14.8244444,5.25958436 14.78,5.22297207 L7.80222222,0.0789452514 C7.71333333,0.014873743 7.60666667,-0.0125854749 7.5,0.014873743 C7.39333333,-0.00343240223 7.28666667,0.014873743 7.19777778,0.0789452514 L0.211111111,5.22297207 C0.166666667,5.25958436 0.122222222,5.30534972 0.0955555556,5.36026816 L0.0155555556,5.31450279 L0.0155555556,14.5041877 C0.0155555556,15.3096581 0.691111111,15.9961385 1.5,15.9961385 L13.5266667,15.9961385 C14.3266667,15.9961385 14.9844444,15.3279642 14.9844444,14.5041877 L14.9844444,5.28704358 L14.8866667,5.35111508 Z M7.5,0.856956425 L13.9533333,5.60740112 L7.50888889,10.7697341 L1.05555556,5.60740112 L7.5,0.856956425 Z" id="Shape" fill="#ACACAC" fill-rule="nonzero"></path>
                        <polygon id="Path" fill="#D6D6D6" points="0.806666667 6.44033073 5.34888889 10.0832536 0.806666667 13.7261765"></polygon>
                        <path d="M13.5266667,15.1815151 L1.5,15.1815151 C1.21555556,15.1815151 0.948888889,14.9893006 0.851111111,14.7238615 L5.99777778,10.5958257 L7.19777778,11.5568983 C7.26888889,11.6118168 7.34888889,11.639276 7.43777778,11.639276 C7.46444444,11.639276 7.49111111,11.639276 7.50888889,11.6301229 C7.52666667,11.639276 7.55333333,11.639276 7.58,11.639276 C7.66888889,11.639276 7.74888889,11.6118168 7.82,11.5568983 L9.02,10.5958257 L14.1577778,14.7147084 C14.0688889,14.9893006 13.8111111,15.1815151 13.5266667,15.1815151 L13.5266667,15.1815151 Z" id="Path" fill="#D6D6D6"></path>
                        <polygon id="Path" fill="#D6D6D6" points="14.1933333 13.7078704 9.66888889 10.0741006 14.1933333 6.4494838 14.1933333 13.7078704"></polygon>
                    </g>
                </g>
            </g>
        </g>
    </g>
</svg>