<?xml version="1.0" encoding="UTF-8"?>
<svg width="22px" height="22px" viewBox="0 0 22 22" version="1.1" xmlns="http://www.w3.org/2000/svg" xmlns:xlink="http://www.w3.org/1999/xlink">
    <!-- Generator: Sketch 52.2 (67145) - http://www.bohemiancoding.com/sketch -->
    <title>项目动态-亮</title>
    <desc>Created with Sketch.</desc>
    <g id="easydoc" stroke="none" stroke-width="1" fill="none" fill-rule="evenodd">
        <g id="项目列表切图" transform="translate(-299.000000, -383.000000)">
            <g id="Group-26-Copy" transform="translate(299.000000, 383.000000)">
                <g id="Group-24">
                    <g id="实时动态" transform="translate(1.000000, 4.000000)">
                        <path d="M9.12587473,14.9724215 L9.12587473,13.1138065 L0.586090713,13.1138065 C0.265399568,13.1138065 3.37507799e-14,12.8495484 3.37507799e-14,12.5302366 L3.37507799e-14,0.583569892 C3.37507799e-14,0.264258065 0.265399568,8.8817842e-16 0.586090713,8.8817842e-16 L19.3852268,8.8817842e-16 C19.7059179,8.8817842e-16 19.9713175,0.264258065 19.9713175,0.583569892 L19.9713175,12.5302366 C19.9602592,12.8495484 19.7059179,13.1138065 19.3852268,13.1138065 L10.8509719,13.1138065 L10.8509719,14.9724215 L12.161714,14.9724215 L12.161714,15.9964215 L7.82685443,15.9964215 L7.82685443,14.9724215 L9.12587473,14.9724215 Z" id="Combined-Shape" fill="#3883FD"></path>
                        <path d="M5.98531317,6.57341935 C6.61563715,6.57341935 7.12431965,7.07991398 7.12431965,7.70752688 C7.12431965,8.33513978 6.61563715,8.84163441 5.98531317,8.84163441 C5.3549892,8.84163441 4.8463067,8.33513978 4.8463067,7.70752688 C4.8463067,7.07991398 5.3549892,6.57341935 5.98531317,6.57341935 Z M9.40233261,4.3052043 C10.0326566,4.3052043 10.5413391,4.81169892 10.5413391,5.43931183 C10.5413391,6.06692473 10.0215983,6.57341935 9.40233261,6.57341935 C8.77200864,6.57341935 8.26332613,6.06692473 8.26332613,5.43931183 C8.26332613,4.81169892 8.77200864,4.3052043 9.40233261,4.3052043 Z M10.5413391,6.57341935 L10.5966307,6.57341935 C11.2269546,6.57341935 11.7356371,7.07991398 11.7356371,7.70752688 C11.7356371,8.33513978 11.2269546,8.84163441 10.5966307,8.84163441 L10.5413391,8.84163441 C9.93313175,8.8196129 9.45762419,8.31311828 9.45762419,7.70752688 C9.44656587,7.10193548 9.93313175,6.60645161 10.5413391,6.57341935 Z M13.9473002,4.3052043 L14.0025918,4.3052043 C14.6329158,4.3052043 15.1415983,4.81169892 15.1415983,5.43931183 C15.1415983,6.06692473 14.6329158,6.57341935 14.0025918,6.57341935 L13.9473002,6.57341935 C13.3390929,6.55139785 12.8635853,6.04490323 12.8635853,5.43931183 C12.8635853,4.83372043 13.3501512,4.33823656 13.9473002,4.3052043 Z" id="Shape" fill="#FFFFFF" fill-rule="nonzero"></path>
                        <polygon id="Path" fill="#FFFFFF" points="10.2317063 8.64344086 9.17010799 6.21006452 6.32812095 8.15896774 5.68673866 7.22305376 9.66773218 4.4923871 10.7293305 6.92576344 13.659784 4.94382796 14.3011663 5.87974194 10.2317063 8.64344086"></polygon>
                    </g>
                    <rect id="Rectangle" fill="#D8D8D8" fill-rule="nonzero" opacity="0" x="0" y="0" width="22" height="22"></rect>
                </g>
            </g>
        </g>
    </g>
</svg>