<?xml version="1.0" encoding="UTF-8"?>
<svg width="22px" height="22px" viewBox="0 0 22 22" version="1.1" xmlns="http://www.w3.org/2000/svg" xmlns:xlink="http://www.w3.org/1999/xlink">
    <!-- Generator: Sketch 52.2 (67145) - http://www.bohemiancoding.com/sketch -->
    <title>搜索</title>
    <desc>Created with Sketch.</desc>
    <g id="easydoc" stroke="none" stroke-width="1" fill="none" fill-rule="evenodd">
        <g id="项目列表切图" transform="translate(-1139.000000, -360.000000)">
            <g id="Group-27" transform="translate(1139.000000, 360.000000)">
                <rect id="搜索" x="0" y="0" width="22" height="22"></rect>
                <g id="搜索" transform="translate(3.000000, 3.000000)" fill="#ACACAC" fill-rule="nonzero">
                    <path d="M15.7565287,14.6961116 C15.4012918,14.3408748 15.1521792,14.0917622 15.0091909,13.9487739 C14.3449898,13.2845728 13.3486882,12.2882711 12.020286,10.9598689 C12.9436256,9.80540138 13.4990479,8.34376379 13.4990479,6.75047604 C13.4990479,3.02332076 10.4776313,0.00190414286 6.75047604,0.00190414286 C3.02332076,0.00190414286 0.00190414286,3.02332076 0.00190414286,6.75047604 C0.00190414286,10.4776313 3.02332076,13.4990479 6.75047604,13.4990479 C8.34374322,13.4990479 9.80540136,12.9436256 10.9598689,12.020286 C12.2882711,13.3486882 13.2845728,14.3449898 13.9487739,15.0091909 C14.0917622,15.1521792 14.3408748,15.4012918 14.6961116,15.7565287 L15.7565287,14.6961116 Z M6.75047604,11.9993584 C3.85162317,11.9993584 1.50159363,9.64932891 1.50159363,6.75047604 C1.50159363,3.85162317 3.85162317,1.50159363 6.75047604,1.50159363 C9.64932891,1.50159363 11.9993584,3.85160261 11.9993584,6.75047604 C11.9993584,9.64934946 9.64932891,11.9993584 6.75047604,11.9993584 Z" id="Shape"></path>
                </g>
            </g>
        </g>
    </g>
</svg>