<?xml version="1.0" encoding="UTF-8"?>
<svg width="22px" height="22px" viewBox="0 0 22 22" version="1.1" xmlns="http://www.w3.org/2000/svg" xmlns:xlink="http://www.w3.org/1999/xlink">
    <!-- Generator: Sketch 52.2 (67145) - http://www.bohemiancoding.com/sketch -->
    <title>项目列表-亮</title>
    <desc>Created with Sketch.</desc>
    <g id="easydoc" stroke="none" stroke-width="1" fill="none" fill-rule="evenodd">
        <g id="项目列表切图" transform="translate(-37.000000, -383.000000)" fill-rule="nonzero">
            <g id="Group-29-Copy" transform="translate(37.000000, 383.000000)">
                <g id="Group-25">
                    <g id="列表">
                        <g id="Group-22">
                            <rect id="Rectangle" fill="#D8D8D8" opacity="0" x="0" y="0" width="22" height="22"></rect>
                            <g id="Group-3" transform="translate(2.000000, 2.000000)" stroke="#3883FD">
                                <path d="M9.68833732,0.246540433 L17.1716582,4.13337456 C17.6617749,4.38794099 17.8527261,4.99162595 17.5981597,5.48174264 C17.5095346,5.65237248 17.3735977,5.79383501 17.2066324,5.88918469 L9.74056553,10.1528694 C9.28225772,10.4145975 8.72012389,10.416209 8.26032307,10.1571127 L0.69144946,5.89207654 C0.210296661,5.62094848 0.0400379753,5.01110434 0.311166042,4.52995154 C0.407424649,4.35912784 0.55177891,4.22037186 0.726274448,4.13094165 L8.31279367,0.242796585 C8.74489056,0.0213438547 9.25745229,0.0227389055 9.68833732,0.246540433 Z" id="Rectangle" fill="#3883FD"></path>
                                <path d="M0.350847521,9.21390617 L7.78404717,13.2567544 C8.4186711,13.6347171 9.20995133,13.6321202 9.84208068,13.25 L17.5,9" id="Path-6" stroke-width="1.5" stroke-linecap="round" stroke-linejoin="round"></path>
                                <path d="M0.350847521,13.2139062 L7.78404717,17.2567544 C8.4186711,17.6347171 9.20995133,17.6321202 9.84208068,17.25 L17.5,13" id="Path-6-Copy" stroke-width="1.5" stroke-linecap="round" stroke-linejoin="round"></path>
                            </g>
                        </g>
                    </g>
                </g>
            </g>
        </g>
    </g>
</svg>