<?xml version="1.0" encoding="UTF-8"?>
<svg width="40px" height="40px" viewBox="0 0 40 40" version="1.1" xmlns="http://www.w3.org/2000/svg" xmlns:xlink="http://www.w3.org/1999/xlink">
    <!-- Generator: Sketch 46.1 (44463) - http://www.bohemiancoding.com/sketch -->
    <title>手机</title>
    <desc>Created with Sketch.</desc>
    <defs></defs>
    <g id="Page-1" stroke="none" stroke-width="1" fill="none" fill-rule="evenodd">
        <g id="账号设置-账号绑定" transform="translate(-590.000000, -449.000000)">
            <g id="Group-7" transform="translate(560.000000, 84.000000)">
                <g id="Group-8-Copy" transform="translate(30.000000, 365.000000)">
                    <rect id="Rectangle-16-Copy-2" x="0" y="0" width="40" height="40"></rect>
                    <g id="手机" transform="translate(8.800000, 4.000000)" fill-rule="nonzero" fill="#0CBABA">
                        <path d="M9.60491733,26.9971313 C9.60491733,26.0837915 10.3191185,25.3365607 11.1999198,25.3365607 C12.0808412,25.3365607 12.7947623,26.0837915 12.7947623,26.9971313 C12.7947623,27.9212686 12.0805612,28.6681808 11.1999198,28.6681808 C10.3188385,28.6682206 9.60491733,27.9213085 9.60491733,26.9971313 L9.60491733,26.9971313 Z M4.61802955,3.33110209 L17.7824101,3.33110209 C18.5567714,3.33110209 19.1880523,3.98370391 19.1880523,4.80129894 L19.1880523,21.1990199 C19.1880523,22.0175313 18.5568114,22.6684198 17.7824101,22.6684198 L4.61802955,22.6684198 C3.84382833,22.6684198 3.21286736,22.0175313 3.21286736,21.1990198 L3.21286736,4.80129891 C3.21286736,3.98370388 3.84382833,3.33110209 4.61802955,3.33110209 L4.61802955,3.33110209 Z M0.0231823686,29.3321779 C0.0231823686,30.8022552 1.16582416,32 2.58162635,32 L19.8291733,32 C21.2340155,32 22.3768173,30.8022153 22.3768173,29.3321779 L22.3768173,2.66782212 C22.3768173,1.19718703 21.2340155,0 19.8291333,0 L2.58194638,0 C1.16614416,0 0.0235023686,1.19718703 0.0235023686,2.66782212 L0.0235023686,29.3321778 L0.0231823686,29.3321779 Z" id="Shape"></path>
                    </g>
                </g>
            </g>
        </g>
    </g>
</svg>