<?xml version="1.0" encoding="UTF-8"?>
<svg width="18px" height="18px" viewBox="0 0 18 18" version="1.1" xmlns="http://www.w3.org/2000/svg" xmlns:xlink="http://www.w3.org/1999/xlink">
    <!-- Generator: Sketch 46.1 (44463) - http://www.bohemiancoding.com/sketch -->
    <title>下拉选择项目-已选中钩</title>
    <desc>Created with Sketch.</desc>
    <defs></defs>
    <g id="Page-1" stroke="none" stroke-width="1" fill="none" fill-rule="evenodd">
        <g id="我的项目-项目快捷选择" transform="translate(-578.000000, -159.000000)">
            <g id="Group-18" transform="translate(570.000000, 56.000000)">
                <g id="Group-17">
                    <g id="Group-8" transform="translate(8.000000, 103.000000)">
                        <g id="Group-20">
                            <rect id="Rectangle-8" x="0" y="0" width="18" height="18"></rect>
                            <path d="M14.8670027,6.10467885 L13.9040436,5.13412955 C13.7267277,4.95529015 13.4394005,4.95529015 13.2620708,5.13412955 L7.48605879,10.9512694 L4.73780818,8.16336304 C4.56054767,7.98610421 4.27316509,7.98610421 4.09590457,8.16336304 L3.13294539,9.13391234 C2.95568487,9.31275174 2.95568487,9.60311792 3.13294539,9.78043221 L6.18837562,12.881623 C6.19295481,12.8861983 6.1944766,12.8922571 6.19747867,12.8953073 L6.8639384,13.5663259 L7.01835828,13.7237306 L7.01835828,13.7222055 L7.16202882,13.8658705 C7.33934469,14.0447098 7.62667191,14.0447098 7.80400161,13.8658705 L14.8670027,6.75114326 C15.0443324,6.57237319 15.0443324,6.28346278 14.8670027,6.10467885 Z" id="Shape" fill="#464646" fill-rule="nonzero"></path>
                        </g>
                    </g>
                </g>
            </g>
        </g>
    </g>
</svg>