<?xml version="1.0" encoding="UTF-8"?>
<svg width="16px" height="16px" viewBox="0 0 16 16" version="1.1" xmlns="http://www.w3.org/2000/svg" xmlns:xlink="http://www.w3.org/1999/xlink">
    <!-- Generator: Sketch 46.1 (44463) - http://www.bohemiancoding.com/sketch -->
    <title>项目成员-灰</title>
    <desc>Created with Sketch.</desc>
    <defs></defs>
    <g id="Page-1" stroke="none" stroke-width="1" fill="none" fill-rule="evenodd">
        <g id="成员-项目权限勾选&amp;移动至ICON显示效果" transform="translate(-210.000000, -86.000000)">
            <g id="Group-19" transform="translate(210.000000, 84.000000)">
                <g id="Group-13">
                    <g id="Group-14">
                        <g id="项目成员-灰" transform="translate(0.000000, 2.000000)">
                            <rect id="Rectangle-9" x="0" y="0" width="16" height="16"></rect>
                            <path d="M9.4050254,2.00595296 C7.47885335,2.00595296 5.91260126,3.53868084 5.91260126,5.42150948 C5.91260126,6.72260738 6.66156946,7.85737524 7.75855171,8.4332468 C5.47258559,9.12214064 3.80846986,11.2078782 3.80846986,13.6685087 C3.80846986,13.8483642 3.95700716,13.9938448 4.1429271,13.9938448 C4.32673448,13.9938448 4.47527178,13.8483642 4.47527176,13.6685087 C4.47527176,11.0088298 6.68689229,8.84474594 9.38163326,8.84281569 C9.41691733,8.8466625 9.45204752,8.84474594 9.48537292,8.83707969 C11.3743162,8.7950112 12.8977293,7.27955975 12.8977293,5.42164638 C12.8975754,3.53868084 11.3311974,2.00595296 9.4050254,2.00595296 L9.4050254,2.00595296 Z M9.4050254,8.18627065 C7.84856668,8.18627065 6.57937518,6.94640685 6.57937518,5.42137259 C6.57937518,3.89632464 7.846608,2.65647453 9.4050254,2.65647454 C10.9635687,2.65647454 12.2308015,3.89631096 12.2308015,5.42137259 C12.2308015,6.94642054 10.9635687,8.18627065 9.4050254,8.18627065 L9.4050254,8.18627065 Z M10.1188354,8.28968276 C9.98977293,8.16147857 9.38736936,8.14229928 9.25647411,8.27051715 C9.12545293,8.39668157 9.12545293,8.62256186 9.25647411,8.75062915 C9.27397624,8.76802878 9.0414399,8.81391671 9.65924704,8.82913967 C10.1520209,8.84063902 11.0867692,9.12761652 11.6479987,9.37830258 C12.5064426,9.76088904 13.0853142,10.4593794 13.1166669,10.4937679 C13.9046966,11.3740303 14.3349049,12.489482 14.3349049,13.6682349 C14.3349049,13.8480904 14.4835821,13.993571 14.6673895,13.993571 C14.8511969,13.993571 14.9997342,13.8480904 14.9997342,13.6682349 C14.9997342,12.2961969 14.4874855,10.9989595 13.5488339,9.99061616 C13.5213845,9.95993751 12.797907,9.21555925 11.927711,8.83295909 C10.9246471,8.3910414 10.1286428,8.32214107 10.0954713,8.28954586 L10.1188354,8.28954586 L10.1188354,8.28968276 L10.1188354,8.28968276 Z M5.87926186,8.27064036 C5.87926186,8.2685869 5.87730318,8.2685869 5.87926186,8.27064036 L5.87926186,8.2685869 C5.87926186,8.08873142 5.73073855,7.94340142 5.54483261,7.9434014 C4.33444325,7.9434014 3.35071421,6.91394852 3.35071421,5.65109969 C3.35071421,4.38632062 4.33430334,3.35879798 5.54483261,3.35879798 C5.72863999,3.35879798 5.87926186,3.21346796 5.87926186,3.03359881 C5.87926186,2.85374333 5.73073855,2.70635987 5.54483261,2.70635985 C3.96668859,2.70635985 2.68389832,4.02852622 2.68389832,5.65111339 C2.68389832,6.73219018 3.25297648,7.67750607 4.09769577,8.19039125 C2.29878144,8.81202752 1.00033578,10.5704851 1.00033577,12.6352501 C1.00033577,12.8151055 1.14901296,12.9605861 1.33282035,12.9605861 C1.51662773,12.9605861 1.66516502,12.8151055 1.66516502,12.6352501 C1.66516502,10.4080293 3.40557103,8.59586692 5.54299985,8.59586692 C5.7287659,8.59585323 5.87926186,8.45050953 5.87926186,8.27064036 L5.87926186,8.27064036 Z" id="Shape" stroke="#808080" stroke-width="0.5" fill="#808080" fill-rule="nonzero"></path>
                        </g>
                    </g>
                </g>
            </g>
        </g>
    </g>
</svg>