<?xml version="1.0" encoding="UTF-8"?>
<svg width="22px" height="22px" viewBox="0 0 22 22" version="1.1" xmlns="http://www.w3.org/2000/svg" xmlns:xlink="http://www.w3.org/1999/xlink">
    <!-- Generator: Sketch 46.1 (44463) - http://www.bohemiancoding.com/sketch -->
    <title>项目搜索</title>
    <desc>Created with Sketch.</desc>
    <defs></defs>
    <g id="Page-2" stroke="none" stroke-width="1" fill="none" fill-rule="evenodd">
        <g id="我的项目-显示2" transform="translate(-1289.000000, -103.000000)">
            <g id="Group-7" transform="translate(955.000000, 94.000000)">
                <g id="Group-27" transform="translate(334.000000, 9.000000)">
                    <rect id="Rectangle-8" x="0" y="0" width="22" height="22"></rect>
                    <g id="搜索" transform="translate(2.000000, 2.000000)" fill-rule="nonzero" fill="#FFFFFF">
                        <path d="M17.9980959,16.9376788 L12.020286,10.9598689 C12.9436256,9.80540138 13.4990479,8.34376379 13.4990479,6.75047604 C13.4990479,3.02332076 10.4776313,0.00190414286 6.75047604,0.00190414286 C3.02332076,0.00190414286 0.00190414286,3.02332076 0.00190414286,6.75047604 C0.00190414286,10.4776313 3.02332076,13.4990479 6.75047604,13.4990479 C8.34374322,13.4990479 9.80540136,12.9436256 10.9598689,12.020286 L16.9376788,17.9980959 L17.9980959,16.9376788 Z M6.75047604,11.9993584 C3.85162317,11.9993584 1.50159363,9.64932891 1.50159363,6.75047604 C1.50159363,3.85162317 3.85162317,1.50159363 6.75047604,1.50159363 C9.64932891,1.50159363 11.9993584,3.85160261 11.9993584,6.75047604 C11.9993584,9.64934946 9.64932891,11.9993584 6.75047604,11.9993584 Z" id="Shape"></path>
                    </g>
                </g>
            </g>
        </g>
    </g>
</svg>