<?xml version="1.0" encoding="UTF-8"?>
<svg width="54px" height="54px" viewBox="0 0 54 54" version="1.1" xmlns="http://www.w3.org/2000/svg" xmlns:xlink="http://www.w3.org/1999/xlink">
    <!-- Generator: Sketch 46.1 (44463) - http://www.bohemiancoding.com/sketch -->
    <title>项目管理@1x</title>
    <desc>Created with Sketch.</desc>
    <defs></defs>
    <g id="切图" stroke="none" stroke-width="1" fill="none" fill-rule="evenodd">
        <g id="首页" transform="translate(-757.000000, -890.000000)">
            <g id="Group-32" transform="translate(120.000000, 780.000000)">
                <g id="Group-28" transform="translate(0.000000, 110.000000)">
                    <g id="Group-10-Copy-2" transform="translate(637.000000, 0.000000)">
                        <g id="Group-37">
                            <rect id="Rectangle-23" x="0" y="6" width="48" height="48"></rect>
                            <path d="M44.7502111,46 L13.25,46 C10.3492842,46 8,43.6507158 8,40.75 L8,9.25 C8,6.34928422 10.3494953,4 13.25,4 L44.75,4 C47.6507158,4 50,6.34928422 50,9.25 L50,40.75 C50.0002111,43.6507158 47.6507158,46 44.7502111,46 Z" id="Path" fill="#DEECF1"></path>
                            <path d="M39.7502111,51 L8.25,51 C5.34928422,51 3,48.6507158 3,45.75 L3,14.25 C3,11.3492842 5.34949534,9 8.25,9 L39.75,9 C42.6507158,9 45,11.3492842 45,14.25 L45,45.75 C45.0002111,48.6507158 42.6507158,51 39.7502111,51 Z" id="Shape" fill="#4F657B" fill-rule="nonzero"></path>
                            <path d="M33.7460866,33.1482458 L29.516421,33.1482458 C27.1804189,33.1482458 25.286713,35.0646669 25.286713,37.4287423 L25.286713,38.7556962 L24.3965799,38.7556962 C22.7613912,38.7556962 21.435814,37.4141886 21.435814,35.7593487 L21.435814,30.3320643 C21.4506601,30.1249311 21.4506601,29.9169418 21.435814,29.7097657 L21.435814,24.4112815 C21.435814,22.7564416 22.7613912,21.414934 24.3965799,21.414934 L25.2738972,21.414934 L25.2738972,22.5947672 C25.2739818,24.9587999 27.1676453,26.875221 29.5035628,26.8752637 L33.7332707,26.8752637 C36.0692304,26.8752637 37.9629363,24.9587999 37.9629363,22.5947672 L37.9629363,18.3142707 C37.9629363,15.9501953 36.0692727,14.0337742 33.7332707,14.0337742 L29.5036051,14.0337742 C27.167603,14.0337742 25.2738972,15.9501953 25.2738972,18.3142707 L25.2738972,19.2747285 L23.5506468,19.2747285 C21.2146448,19.2747285 19.3209812,21.1911496 19.3209812,23.555225 L19.3209812,23.7739584 L19.3209812,26.0963418 L17.2173147,23.967394 C15.5655034,22.2957317 12.8874483,22.2957317 11.2356793,23.967394 L8.24484038,26.9941331 C6.59307135,28.6657954 6.59307135,31.3760346 8.24484038,33.0476969 L11.2356793,36.0744788 C12.8874483,37.7460555 15.5655456,37.7460555 17.2173147,36.0744788 L19.3209812,33.9455311 L19.3209812,36.3967574 L19.3209812,36.6154479 C19.3209812,38.9795233 21.2146448,40.8959444 23.5506468,40.8959444 L25.286713,40.8959444 L25.286713,41.7092388 C25.2867977,44.0732714 27.1804612,45.9896925 29.5163787,45.9897353 L33.7460443,45.9897353 C36.0820463,45.9896925 37.9757522,44.0732714 37.9757522,41.7092388 L37.9757522,37.4287423 C37.9757522,35.0646241 36.0820463,33.1482458 33.7460866,33.1482458 Z M27.3887723,19.17037 C27.3887723,17.5154445 28.7143072,16.1739796 30.3495382,16.1740224 L32.8873376,16.1740224 C34.5225263,16.1740224 35.8481035,17.51553 35.8481035,19.17037 L35.8481035,21.7386679 C35.8481035,23.3934651 34.5225263,24.7349727 32.8873376,24.7350155 L30.3495382,24.7350155 C28.7143494,24.7350155 27.3887723,23.3935079 27.3887723,21.7386679 L27.3887723,19.17037 Z M18.1145536,32.1396324 L16.3200757,33.9557187 C15.163812,35.1258352 13.2891819,35.1258352 12.1329182,33.9557187 L10.338398,32.1396752 C9.18213431,30.969473 9.18213431,29.0723142 10.338398,27.9021549 L12.1329182,26.0861114 C13.2891396,24.9159521 15.1638121,24.9159521 16.3200757,26.0861114 L18.114596,27.9021549 C19.2708173,29.0723142 19.2708173,30.969473 18.1145536,32.1396324 Z M35.8609194,40.8531395 C35.8609194,42.5078939 34.5353422,43.8494443 32.9001957,43.8494443 L30.3623541,43.8494871 C28.7271653,43.8494443 27.4015881,42.5079367 27.4015881,40.8531395 L27.4015881,38.2848844 C27.4015881,36.6299589 28.7271653,35.2884512 30.3623541,35.2884941 L32.9001535,35.2884941 C34.5353422,35.2884513 35.8609194,36.6299589 35.8609194,38.2848416 L35.8609194,40.8531395 Z" id="Shape" fill="#FFFFFF" fill-rule="nonzero"></path>
                        </g>
                    </g>
                </g>
            </g>
        </g>
    </g>
</svg>