<?xml version="1.0" encoding="UTF-8"?>
<svg width="40px" height="40px" viewBox="0 0 40 40" version="1.1" xmlns="http://www.w3.org/2000/svg" xmlns:xlink="http://www.w3.org/1999/xlink">
    <!-- Generator: Sketch 46.1 (44463) - http://www.bohemiancoding.com/sketch -->
    <title>QQ</title>
    <desc>Created with Sketch.</desc>
    <defs></defs>
    <g id="Page-1" stroke="none" stroke-width="1" fill="none" fill-rule="evenodd">
        <g id="账号设置-账号绑定" transform="translate(-590.000000, -378.000000)">
            <g id="Group-7" transform="translate(560.000000, 84.000000)">
                <g id="Group-8" transform="translate(30.000000, 294.000000)">
                    <rect id="Rectangle-16-Copy-2" x="0" y="0" width="40" height="40"></rect>
                    <path d="M33.5618866,25.0910542 C32.9332829,21.3925902 30.2933144,18.9696427 30.2933144,18.9696427 C30.6705099,15.6116249 29.2877487,15.0160889 29.2877487,15.0160889 C28.9967921,4.62655111 20.1752147,4.80841067 19.9898542,4.813376 C19.8045939,4.80837689 10.9817816,4.62655111 10.6920265,15.0160551 C10.6920265,15.0160551 9.30916515,15.6115573 9.68629399,18.9696089 C9.68629399,18.9696089 7.04652564,21.3925902 6.41795534,25.0910204 C6.41795534,25.0910204 6.08224393,31.3401458 9.43485252,25.856256 C9.43485252,25.856256 10.1892771,27.9388587 11.5718714,29.8098098 C11.5718714,29.8098098 9.09937472,30.6604356 9.30919853,32.8704142 C9.30919853,32.8704142 9.22502871,35.335584 14.5889355,35.1660196 C14.5889355,35.1660196 18.3600569,34.8688427 19.4914768,33.253184 L20.4883652,33.253184 C21.619785,34.8688427 25.3908064,35.1660196 25.3908064,35.1660196 C30.7536118,35.335584 30.6705767,32.8704142 30.6705767,32.8704142 C30.8792991,30.6604356 28.4078704,29.8098098 28.4078704,29.8098098 C29.7906317,27.9388587 30.5448893,25.856256 30.5448893,25.856256 C33.8963298,31.3401458 33.5619534,25.0910542 33.5619534,25.0910542 L33.5618866,25.0910542 Z" id="Shape" fill="#13B7F5" fill-rule="nonzero"></path>
                </g>
            </g>
        </g>
    </g>
</svg>