<?xml version="1.0" encoding="UTF-8"?>
<svg width="13px" height="14px" viewBox="0 0 13 14" version="1.1" xmlns="http://www.w3.org/2000/svg" xmlns:xlink="http://www.w3.org/1999/xlink">
    <!-- Generator: Sketch 46.1 (44463) - http://www.bohemiancoding.com/sketch -->
    <title>修改</title>
    <desc>Created with Sketch.</desc>
    <defs></defs>
    <g id="z'z" stroke="none" stroke-width="1" fill="none" fill-rule="evenodd">
        <g id="提交记录-显示2" transform="translate(-284.000000, -508.000000)" fill-rule="nonzero" fill="#90C17F">
            <g id="修改" transform="translate(284.000000, 508.000000)">
                <path d="M8.82978723,12.8153846 L1.17021277,12.8153846 L1.17021277,4.09230769 L4.04255319,4.09230769 L4.04255319,1.18461538 L8.82978723,1.18461538 L8.82978723,2.36923077 L9.89361702,1.29230769 L10,1.18461538 L10,0 L2.87234043,0 L0,2.90769231 L0,14 L10,14 L10,8.72307692 L8.82978723,9.90769231 L8.82978723,12.8153846 L8.82978723,12.8153846 Z M4.98780488,7.81707317 L4,11 L7.18292683,10.0121951 L13,4.19512195 L10.804878,2 L4.98780488,7.81707317 Z M7,9.4 L5,10 L5.6,8 L7,9.4 L7,9.4 Z" id="Shape"></path>
            </g>
        </g>
    </g>
</svg>