<?xml version="1.0" encoding="UTF-8"?>
<svg width="22px" height="22px" viewBox="0 0 22 22" version="1.1" xmlns="http://www.w3.org/2000/svg" xmlns:xlink="http://www.w3.org/1999/xlink">
    <!-- Generator: Sketch 46.1 (44463) - http://www.bohemiancoding.com/sketch -->
    <title>下拉选择项目-搜索</title>
    <desc>Created with Sketch.</desc>
    <defs></defs>
    <g id="Page-2" stroke="none" stroke-width="1" fill="none" fill-rule="evenodd">
        <g id="我的项目-项目快捷选择" transform="translate(-832.000000, -68.000000)">
            <g id="Group-18" transform="translate(570.000000, 56.000000)">
                <g id="Group-17">
                    <g id="Group-21" transform="translate(262.000000, 12.000000)">
                        <rect id="Rectangle-15" x="0" y="0" width="22" height="22"></rect>
                        <g id="搜索" transform="translate(3.000000, 3.000000)" fill-rule="nonzero" fill="#A3A3A3">
                            <path d="M16,14.9230672 C15.6392304,14.5622976 15.3862379,14.3093051 15.2410226,14.1640898 C14.5664767,13.4895438 13.5546578,12.477725 12.205566,11.1286331 C13.1432865,9.95618497 13.7073594,8.47178263 13.7073594,6.8536797 C13.7073594,3.06847465 10.6388848,0 6.8536797,0 C3.06847465,0 0,3.06847465 0,6.8536797 C0,10.6388848 3.06847465,13.7073594 6.8536797,13.7073594 C8.47176174,13.7073594 9.95618495,13.1432865 11.1286331,12.205566 C12.477725,13.5546578 13.4895438,14.5664767 14.1640898,15.2410226 C14.3093051,15.3862379 14.5622976,15.6392304 14.9230672,16 L16,14.9230672 Z M6.8536797,12.1843125 C3.90967771,12.1843125 1.52304688,9.79768169 1.52304688,6.8536797 C1.52304688,3.90967771 3.90967771,1.52304688 6.8536797,1.52304688 C9.79768169,1.52304688 12.1843125,3.90965684 12.1843125,6.8536797 C12.1843125,9.79770256 9.79768169,12.1843125 6.8536797,12.1843125 Z" id="Shape"></path>
                        </g>
                    </g>
                </g>
            </g>
        </g>
    </g>
</svg>