<?xml version="1.0" encoding="UTF-8"?>
<svg width="20px" height="20px" viewBox="0 0 20 20" version="1.1" xmlns="http://www.w3.org/2000/svg" xmlns:xlink="http://www.w3.org/1999/xlink">
    <!-- Generator: Sketch 46.1 (44463) - http://www.bohemiancoding.com/sketch -->
    <title>已选勾</title>
    <desc>Created with Sketch.</desc>
    <defs></defs>
    <g id="Page-2" stroke="none" stroke-width="1" fill="none" fill-rule="evenodd">
        <g id="创建项目" transform="translate(-561.000000, -587.000000)" fill-rule="nonzero" fill="#F1A127">
            <g id="Group-6" transform="translate(540.000000, 221.000000)">
                <g id="Group-10" transform="translate(21.000000, 366.000000)">
                    <g id="Group-17">
                        <path d="M10,1 C5.029444,1 1,5.029444 1,10 C1,14.970592 5.029444,19 10,19 C14.970592,19 19,14.970592 19,10 C19,5.029444 14.970556,1 10,1 Z M15.162184,7.665508 L9.341416,13.486312 C9.341416,13.486312 9.34134399,13.486384 9.341236,13.486492 C9.072892,13.754908 8.663716,13.796812 8.35134401,13.612312 C8.29349202,13.578112 8.23895202,13.536136 8.18927201,13.486492 C8.18923601,13.48642 8.18916401,13.486384 8.18916401,13.486384 L4.837852,10.135072 C4.51975601,9.81697599 4.51975601,9.30116799 4.837852,8.98299999 C5.155948,8.66490399 5.671756,8.66490399 5.989852,8.98299999 L8.765308,11.758456 L14.01022,6.51354399 C14.328352,6.19544799 14.84416,6.19544799 15.162256,6.51354399 C15.48028,6.83164 15.48028,7.347412 15.162184,7.665508 Z" id="Shape"></path>
                    </g>
                </g>
            </g>
        </g>
    </g>
</svg>