<?xml version="1.0" encoding="UTF-8"?>
<svg width="16px" height="16px" viewBox="0 0 16 16" version="1.1" xmlns="http://www.w3.org/2000/svg" xmlns:xlink="http://www.w3.org/1999/xlink">
    <!-- Generator: Sketch 46.1 (44463) - http://www.bohemiancoding.com/sketch -->
    <title>IP白名单-高亮</title>
    <desc>Created with Sketch.</desc>
    <defs></defs>
    <g id="z'z" stroke="none" stroke-width="1" fill="none" fill-rule="evenodd">
        <g id="设置-项目信息" transform="translate(-332.000000, -133.000000)">
            <g id="Group-13" transform="translate(210.000000, 131.000000)">
                <g id="Group-14-Copy" transform="translate(122.000000, 0.000000)">
                    <g id="Group-15" transform="translate(0.000000, 2.000000)">
                        <rect id="Rectangle-9" x="0" y="0" width="16" height="16"></rect>
                        <g id="ip" transform="translate(1.000000, 1.000000)" fill="#1891F0">
                            <path d="M12.4829073,3.04676679 L12.7770359,3.04676679 L12.7770359,10.9547065 L12.1747727,10.9547065 L12.1747727,3.04676679 L12.4829073,3.04676679 L12.4829073,3.04676679 Z M3.04978494,12.1686138 L10.9492371,12.1686138 L10.9492371,12.7720591 L3.04978494,12.7720591 L3.04978494,12.1686138 Z M6.83143757,9.25663956 L6.83143757,4.90622022 L7.98694253,4.90622022 C8.26706495,4.89218661 8.55419043,4.91323702 8.83431284,4.96937147 C9.05841077,5.04655633 9.24049034,5.20092604 9.35954238,5.3973966 C9.50660665,5.6570184 9.57663725,5.95172423 9.56263112,6.24643005 C9.56963418,6.52008545 9.51360971,6.79374087 9.38755462,7.03932906 C9.28951177,7.22878281 9.13544445,7.39016934 8.93935875,7.4884046 C8.64523021,7.59365669 8.33009249,7.63575752 8.02195784,7.6217239 L7.55275279,7.6217239 L7.55275279,9.26365636 L6.83143757,9.26365636 L6.83143757,9.25663956 Z M7.94492417,6.87794253 C8.12700374,6.89197614 8.31608637,6.87092573 8.49116289,6.8218081 C8.58920574,6.77970727 8.67324246,6.70953921 8.72926695,6.61832073 C8.79229449,6.51306865 8.8273098,6.38676616 8.82030672,6.26046366 C8.82730978,6.13416117 8.79229448,6.00084186 8.72226387,5.89558978 C8.66623938,5.80437131 8.58920572,5.73420326 8.48415983,5.69911923 C8.28807414,5.6570184 8.09198844,5.63596798 7.8888997,5.65000158 L7.53874667,5.65000158 L7.53874667,6.87794253 L7.94492417,6.87794253 Z M4.98262962,9.25663956 L4.98262962,4.90622022 L5.70394484,4.90622022 L5.70394484,9.25663956 L4.98262962,9.25663956 Z M3.04978494,1.21538058 L10.9492371,1.21538058 L10.9492371,1.83285946 L3.04978494,1.83285946 L3.04978494,1.21538058 L3.04978494,1.21538058 Z M1.53712388,3.04676679 L1.83125242,3.04676679 L1.83125242,10.9547065 L1.22898923,10.9547065 L1.22898923,3.04676679 L1.53712388,3.04676679 L1.53712388,3.04676679 Z" id="Shape" stroke="#1891F0" stroke-width="0.5" fill-rule="nonzero"></path>
                            <path d="M12.4829073,3.04676679 L12.4618981,3.04676679 C11.6215309,3.03974999 10.9492371,2.35210306 10.9562402,1.51008641 C10.9632432,0.668069764 11.6495431,-0.00554354661 12.4899104,0.00147325613 C13.3302776,0.00849005888 14.0025714,0.696136989 13.9955684,1.53815363 C13.9815623,2.36613668 13.3092685,3.03974999 12.4829073,3.04676679 L12.4829073,3.04676679 Z" id="Path"></path>
                            <path d="M1.53012083,14 C0.689753577,14 0.0104567111,13.3193699 0.0104567248,12.4773532 C0.0104567385,11.6353366 0.689753591,10.9547065 1.53012083,10.9547065 C2.37048806,10.9547065 3.04978494,11.6353366 3.04978494,12.4773532 C3.04278188,13.3193699 2.36348502,14 1.53012083,14 Z" id="Path"></path>
                            <path d="M1.53712388,3.04676679 L1.51611471,3.04676679 C0.675747461,3.03974999 0.00345366699,2.35210306 0.0104567248,1.51008641 C0.0174597826,0.668069764 0.703759706,-0.00554354661 1.54412696,0.00147325613 C2.38449421,0.00849005888 3.056788,0.696136989 3.04978494,1.53815363 C3.04278188,2.36613668 2.37048808,3.03974999 1.53712388,3.04676679 L1.53712388,3.04676679 Z" id="Path"></path>
                            <path d="M12.4689012,10.9547065 C13.3092685,10.9547065 13.9885653,11.6353366 13.9885653,12.4773532 C13.9885653,13.3193699 13.3092685,14 12.4689012,14 C11.628534,14 10.9492371,13.3193699 10.9492371,12.4773532 C10.9492371,11.6353366 11.628534,10.9547065 12.4689012,10.9547065 Z" id="Path"></path>
                        </g>
                    </g>
                </g>
            </g>
        </g>
    </g>
</svg>