<?xml version="1.0" encoding="UTF-8"?>
<svg width="16px" height="16px" viewBox="0 0 16 16" version="1.1" xmlns="http://www.w3.org/2000/svg" xmlns:xlink="http://www.w3.org/1999/xlink">
    <!-- Generator: Sketch 46.1 (44463) - http://www.bohemiancoding.com/sketch -->
    <title>更多-高亮</title>
    <desc>Created with Sketch.</desc>
    <defs></defs>
    <g id="z'z" stroke="none" stroke-width="1" fill="none" fill-rule="evenodd">
        <g id="设置-项目信息" transform="translate(-460.000000, -133.000000)">
            <g id="Group-13" transform="translate(210.000000, 131.000000)">
                <g id="Group-14-Copy-2" transform="translate(250.000000, 0.000000)">
                    <g id="Group-15" transform="translate(0.000000, 2.000000)">
                        <rect id="Rectangle-9" x="0" y="0" width="16" height="16"></rect>
                        <g id="Group-16" transform="translate(1.000000, 1.000000)" stroke="#1891F0" fill="#1891F0" fill-rule="nonzero">
                            <path d="M7.1250081,5.98190698 C6.88968623,5.98190698 6.65990486,6.07741557 6.4944413,6.24268352 C6.32897773,6.40797978 6.23340081,6.63936906 6.23340081,6.87261274 C6.23340081,7.10769666 6.32900607,7.3372457 6.4944413,7.50254196 C6.65990486,7.66783822 6.89152834,7.7633185 7.1250081,7.7633185 C7.36032996,7.7633185 7.59011134,7.66780991 7.7555749,7.50254196 C7.92103846,7.3372457 8.01661538,7.10585642 8.01661538,6.87261274 C8.01661538,6.63752882 7.92101012,6.40797978 7.7555749,6.24268352 C7.59011134,6.07738726 7.36032996,5.98190698 7.1250081,5.98190698 L7.1250081,5.98190698 Z M4.13393927,5.98190698 C3.89861741,5.98190698 3.66883603,6.07741557 3.50337247,6.24268352 C3.33790891,6.40795147 3.24233198,6.63936906 3.24233198,6.87261274 C3.24233198,7.10769666 3.33793725,7.3372457 3.50337247,7.50254196 C3.66883603,7.66783822 3.90045951,7.7633185 4.13393927,7.7633185 C4.36926113,7.7633185 4.59904251,7.66780991 4.76450607,7.50254196 C4.92996964,7.3372457 5.02554656,7.10585642 5.02554656,6.87261274 C5.02554656,6.63752882 4.9299413,6.40797978 4.76450607,6.24268352 C4.59904251,6.07738726 4.36926113,5.98190698 4.13393927,5.98190698 L4.13393927,5.98190698 Z M10.1160769,5.98190698 C9.88075506,5.98190698 9.65097368,6.07741557 9.48551012,6.24268352 C9.32004656,6.40795147 9.22446964,6.63936906 9.22446964,6.87261274 C9.22446964,7.10769666 9.3200749,7.3372457 9.48551012,7.50254196 C9.65097368,7.66783822 9.88259717,7.7633185 10.1160769,7.7633185 C10.3513988,7.7633185 10.5811802,7.66780991 10.7466437,7.50254196 C10.9121073,7.3372457 11.0076842,7.10585642 11.0076842,6.87261274 C11.0076842,6.63752882 10.9120789,6.40797978 10.7466437,6.24268352 C10.5811802,6.07738726 10.3513988,5.98190698 10.1160769,5.98190698 L10.1160769,5.98190698 Z" id="Shape" stroke-width="0.3"></path>
                            <path d="M13.4490972,4.27760162 C13.0961215,3.44565622 12.5924049,2.69633771 11.9489575,2.05539535 C11.3055101,1.41445298 10.5572895,0.909391304 9.72450202,0.556772497 C8.86229757,0.191300303 7.94494332,0.00765824065 7,0.00765824065 C6.05505668,0.00765824065 5.13770243,0.193154702 4.27549798,0.556772497 C3.44271053,0.909391304 2.6926336,1.41259858 2.05104251,2.05539535 C1.40760931,2.69817796 0.903878543,3.44565622 0.550902834,4.27760162 C0.185060729,5.13893428 0.00123279352,6.05536097 0.00123279352,6.99934884 C0.00123279352,7.9433367 0.186917004,8.8597634 0.550902834,9.72109606 C0.903878543,10.5530415 1.40759514,11.30236 2.05104251,11.9433023 C2.69447571,12.5860849 3.44271053,13.0893064 4.27549798,13.4419252 C5.13770243,13.8055713 6.05505668,13.9910394 7,13.9910394 C7.94494332,13.9910394 8.86229757,13.805543 9.72450202,13.4419252 C10.5572895,13.0893064 11.3073664,12.5860991 11.9489575,11.9433023 C12.5905486,11.3005056 13.0961215,10.5530415 13.4490972,9.72109606 C13.8149393,8.8597634 13.9987672,7.9433367 13.9987672,6.99934884 C13.9987672,6.05536097 13.8149251,5.13893428 13.4490972,4.27760162 Z M7,13.2031749 C3.57507287,13.2031749 0.789894737,10.4189727 0.789894737,6.99934884 C0.789894737,3.57788473 3.57691498,0.79552275 7,0.79552275 C10.4249271,0.79552275 13.2101053,3.57972497 13.2101053,6.99934884 C13.2101053,10.4208129 10.4249271,13.2031749 7,13.2031749 Z" id="Shape" stroke-width="0.4"></path>
                        </g>
                    </g>
                </g>
            </g>
        </g>
    </g>
</svg>