<?xml version="1.0" encoding="UTF-8"?>
<svg width="16px" height="16px" viewBox="0 0 16 16" version="1.1" xmlns="http://www.w3.org/2000/svg" xmlns:xlink="http://www.w3.org/1999/xlink">
    <!-- Generator: Sketch 46.1 (44463) - http://www.bohemiancoding.com/sketch -->
    <title>项目信息-高亮</title>
    <desc>Created with Sketch.</desc>
    <defs></defs>
    <g id="z'z" stroke="none" stroke-width="1" fill="none" fill-rule="evenodd">
        <g id="设置-项目信息" transform="translate(-218.000000, -133.000000)" fill="#1891F0">
            <g id="Group-13" transform="translate(210.000000, 131.000000)">
                <g id="Group-14" transform="translate(8.000000, 0.000000)">
                    <g id="Group-15" transform="translate(0.000000, 2.000000)">
                        <g id="项目信息-主色">
                            <path d="M14.7756565,7.44217173 L13.5645696,6.79785847 L12.7787395,7.29082298 L13.7985296,7.83279566 L8.46837135,10.8871577 L3.20014368,7.83711991 L4.28736935,7.26343606 L3.50429162,6.76470588 L2.22439305,7.43784748 C2.08814578,7.50991832 2.00144297,7.65261857 2.00006674,7.81261583 C1.99731427,7.97117167 2.07988837,8.11963759 2.21338317,8.19459126 L8.27294598,11.6539914 C8.33487656,11.6885854 8.40093584,11.7058824 8.46837135,11.7058824 C8.53443063,11.7058824 8.60048992,11.6885854 8.66242049,11.6539914 L14.7852901,8.19603267 C14.9201611,8.121079 15.001359,7.97261308 14.9999828,7.81405724 C14.9958541,7.65838424 14.9105275,7.51424257 14.7756565,7.44217173 L14.7756565,7.44217173 Z M14.7756565,10.6597972 L13.6278765,10.0588235 L12.8324126,10.5308078 L13.7985296,11.0570262 L8.46837135,14.1630342 L3.20014368,11.0628894 L4.25846841,10.5557262 L3.42859869,10.0690841 L2.22439305,10.6597972 C2.08814578,10.7330867 2.00144297,10.8781999 2.00006674,11.0409025 C1.99731427,11.2021394 2.07988837,11.3531157 2.21338317,11.4308025 L8.27294598,14.9472316 C8.33487656,14.9824105 8.40093584,15 8.46837135,15 C8.53443063,15 8.60048992,14.9824105 8.66242049,14.9472316 L14.7852901,11.4308025 C14.9201611,11.3545815 15.001359,11.2050709 14.9999828,11.0423683 C14.9958541,10.8796657 14.9105275,10.7330867 14.7756565,10.6597972 L14.7756565,10.6597972 Z" id="Shape" stroke="#1891F0" stroke-width="0.2" fill-rule="nonzero"></path>
                            <path d="M2.2120529,4.96064183 L8.27152193,8.36074194 C8.33346562,8.39475712 8.39953888,8.41176471 8.46698867,8.41176471 C8.53306194,8.41176471 8.59913521,8.39475712 8.66107889,8.36074194 L14.7852447,4.96064183 C14.9201442,4.88694229 15.0013593,4.7423778 14.9999828,4.58505762 C14.9986063,4.42915474 14.9118851,4.28600755 14.7769855,4.2151426 L8.71751647,1.04464492 C8.60188826,0.985118361 8.46561215,0.985118361 8.34860741,1.04464492 L2.22444163,4.2165599 C2.08816553,4.28742485 2.00144436,4.42773744 2.00006784,4.58647492 C1.99731479,4.7409605 2.07852984,4.88694229 2.2120529,4.96064183 L2.2120529,4.96064183 Z" id="Path"></path>
                        </g>
                    </g>
                </g>
            </g>
        </g>
    </g>
</svg>