<?xml version="1.0" encoding="UTF-8"?>
<svg width="16px" height="16px" viewBox="0 0 16 16" version="1.1" xmlns="http://www.w3.org/2000/svg" xmlns:xlink="http://www.w3.org/1999/xlink">
    <!-- Generator: Sketch 46.1 (44463) - http://www.bohemiancoding.com/sketch -->
    <title>反馈建议</title>
    <desc>Created with Sketch.</desc>
    <defs></defs>
    <g id="Page-1" stroke="none" stroke-width="1" fill="none" fill-rule="evenodd">
        <g id="头像下拉菜单" transform="translate(-1295.000000, -194.000000)">
            <g id="Group-18" transform="translate(1258.000000, 69.000000)">
                <g id="Group-15" transform="translate(37.000000, 123.000000)">
                    <g id="Group-13" transform="translate(0.000000, 2.000000)">
                        <rect id="Rectangle-9" x="0" y="0" width="16" height="16"></rect>
                        <g id="Group-11" transform="translate(1.000000, 2.000000)" stroke="#474747" fill="#000000" fill-rule="nonzero">
                            <path d="M9.66110056,0.00172428387 L4.33889944,0.00172428387 C1.95363471,0.00172428387 0.0130658568,1.94544805 0.0130658568,4.33455236 L0.0130658568,5.2353024 C0.0130658568,7.45094772 1.46330308,9.14011169 3.70738464,9.53856 C3.75924959,9.54727312 3.79744336,9.5927783 3.7978787,9.64637729 L3.7978787,11.6283128 C3.79784896,11.7592248 3.86553473,11.8804462 3.97595196,11.9472319 C4.08636919,12.0140176 4.22314375,12.0164637 4.33578967,11.9536673 L8.05304295,9.88317894 C8.07100182,9.87334854 8.09028234,9.86819551 8.10878542,9.86819551 L9.66110056,9.86819551 C11.9654338,9.86819551 13.9867009,7.70328774 13.9867009,5.2353024 L13.9867009,4.33455236 C13.9867009,1.94544805 12.0462875,0.00172428387 9.66110056,0.00172428387 Z M13.259561,5.2353024 C13.259561,7.30824836 11.5780352,9.12663453 9.66117831,9.12663453 L8.10886317,9.12663453 C7.97110074,9.12663453 7.83302733,9.16215081 7.70715974,9.23088434 L4.52517414,11.0032103 L4.52517414,9.64629801 C4.52516745,9.23223649 4.23278625,8.878328 3.83263028,8.80801858 C1.95417892,8.4744192 0.740439046,7.07208093 0.740439046,5.23522312 L0.740439046,4.33455236 C0.740439046,2.3542817 2.35471618,0.743285265 4.33897718,0.743285265 L9.66117831,0.743285265 C11.6452838,0.743285265 13.259561,2.3542817 13.259561,4.33455236 L13.259561,5.2353024 L13.259561,5.2353024 Z" id="Shape" stroke-width="0.3"></path>
                            <path d="M3.30163852,5.00119618 C3.30163852,5.32283131 3.55733214,5.5835681 3.8727462,5.5835681 C4.18816027,5.5835681 4.44385388,5.32283131 4.44385388,5.00119618 C4.44385389,4.79313473 4.33500138,4.60087801 4.15830005,4.49684729 C3.98159871,4.39281656 3.76389369,4.39281656 3.58719236,4.49684729 C3.41049103,4.60087801 3.30163852,4.79313473 3.30163852,5.00119618 L3.30163852,5.00119618 Z" id="Shape" stroke-width="0.5"></path>
                            <path d="M6.42881458,5.00119618 C6.42881457,5.20925763 6.53766708,5.40151435 6.71436841,5.50554508 C6.89106974,5.60957581 7.10877477,5.60957581 7.2854761,5.50554508 C7.46217744,5.40151435 7.57102994,5.20925763 7.57102993,5.00119618 C7.57102994,4.79313473 7.46217744,4.60087801 7.2854761,4.49684728 C7.10877477,4.39281655 6.89106974,4.39281655 6.71436841,4.49684728 C6.53766708,4.60087801 6.42881457,4.79313473 6.42881458,5.00119618 Z" id="Shape" stroke-width="0.5"></path>
                            <path d="M9.55599063,5.00119618 C9.55599063,5.32283131 9.81168425,5.5835681 10.1270983,5.5835681 C10.4425124,5.5835681 10.698206,5.32283131 10.698206,5.00119618 C10.698206,4.79313472 10.5893535,4.600878 10.4126522,4.49684727 C10.2359508,4.39281654 10.0182458,4.39281654 9.84154446,4.49684727 C9.66484312,4.600878 9.55599062,4.79313472 9.55599063,5.00119618 L9.55599063,5.00119618 Z" id="Shape" stroke-width="0.5"></path>
                        </g>
                    </g>
                </g>
            </g>
        </g>
    </g>
</svg>