<?xml version="1.0" standalone="no"?><!DOCTYPE svg PUBLIC "-//W3C//DTD SVG 1.1//EN" "http://www.w3.org/Graphics/SVG/1.1/DTD/svg11.dtd"><svg t="1551510974723" class="icon" style="" viewBox="0 0 1024 1024" version="1.1" xmlns="http://www.w3.org/2000/svg" p-id="3656" xmlns:xlink="http://www.w3.org/1999/xlink" width="64" height="64"><defs><style type="text/css"></style></defs><path d="M39.2 414.5c0-22.6 18.3-41 41-41h859.3c22.6 0 41 18.3 41 41 0 22.6-18.3 41-41 41H80.2c-22.6-0.1-41-18.4-41-41zM39.2 614.4c0-22.6 18.3-41 41-41h859.3c22.6 0 41 18.3 41 41 0 22.6-18.3 41-41 41H80.2c-22.6 0-41-18.4-41-41z" fill="#1296db" p-id="3657"></path><path d="M715.1 838.8c-16-16-16-41.9 0-57.9l195.4-195.4c16-16 41.9-16 57.9 0s16 41.9 0 57.9L773 838.8c-16 16-41.9 16-57.9 0zM51.2 443.4c-16-16-16-41.9 0-57.9l195.4-195.4c16-16 41.9-16 57.9 0s16 41.9 0 57.9L109.1 443.4c-16 16-41.9 16-57.9 0z" fill="#1296db" p-id="3658"></path></svg>