<?xml version="1.0" encoding="UTF-8"?>
<svg width="18px" height="18px" viewBox="0 0 18 18" version="1.1" xmlns="http://www.w3.org/2000/svg" xmlns:xlink="http://www.w3.org/1999/xlink">
    <!-- Generator: Sketch 46.1 (44463) - http://www.bohemiancoding.com/sketch -->
    <title>系统消息</title>
    <desc>Created with Sketch.</desc>
    <defs></defs>
    <g id="Page-1" stroke="none" stroke-width="1" fill="none" fill-rule="evenodd">
        <g id="消息-" transform="translate(-255.000000, -131.000000)">
            <g id="Group-6" transform="translate(255.000000, 130.000000)">
                <g id="Group-3" transform="translate(0.000000, 1.000000)">
                    <rect id="Rectangle-2" x="0" y="0" width="18" height="18"></rect>
                    <g id="通知-(2)" transform="translate(1.636364, 0.818182)" fill="#808080">
                        <path d="M11.9726564,10.0462147 L11.9726564,6.50714503 C11.9726564,5.19185163 11.4488076,3.95682578 10.4968477,3.02827607 C10.0524793,2.59410155 9.53766234,2.25296443 8.97949233,2.01216175 C8.96865407,0.904834296 8.07449823,0.00729705078 6.97622196,0.00729705078 C5.88336482,0.00729705078 4.99101535,0.895712983 4.97295159,1.99574339 C4.40033058,2.23654606 3.87286895,2.58498024 3.41766234,3.02827607 C2.46570248,3.95682578 1.9418536,5.19185163 1.9418536,6.50714503 L1.9418536,10.0316206 C1.87321133,10.1173609 1.79192444,10.2158711 1.70341204,10.3253268 C0.579846517,11.7062937 0.00903187721,12.5144421 0.00903187721,13.1000304 C0.00903187721,13.5342049 0.195088548,13.798723 0.350436836,13.944664 C0.643069658,14.2201277 1.01157025,14.2529644 1.17595041,14.2529644 L1.2211098,14.2529644 L3.66524203,14.2493159 C3.8585242,15.444208 4.88635183,17.1763454 6.94190083,17.1763454 C8.99744982,17.1763454 10.0252774,15.444208 10.2185596,14.2493159 L12.682562,14.2529644 L12.7277214,14.2529644 C12.8921015,14.2529644 13.2606021,14.2183034 13.5532349,13.944664 C13.7085832,13.798723 13.8946399,13.5323807 13.8946399,13.1000304 C13.8928335,12.5144421 13.3220189,11.7062937 12.1984534,10.3253268 C12.1153601,10.2231681 12.037686,10.1283065 11.9726564,10.0462147 Z M6.97622196,1.17482517 C7.31040142,1.17482517 7.60122786,1.37184555 7.7385124,1.65643053 C7.48200708,1.61812101 7.22188902,1.59805412 6.95815821,1.59805412 C6.70887839,1.59805412 6.46140496,1.61629675 6.21754427,1.65095774 C6.35663518,1.36819702 6.64384888,1.17482517 6.97622196,1.17482517 L6.97622196,1.17482517 Z M6.94190083,15.1888112 C6.34579693,15.1888112 5.84001181,14.7911219 5.66840614,14.2456674 L6.9509327,14.2438431 L8.21539551,14.2456674 C8.04378985,14.7911219 7.53800472,15.1888112 6.94190083,15.1888112 Z" id="Shape" fill-rule="nonzero"></path>
                        <path d="M12.7168831,13.083612 L12.6952066,13.083612 L8.15397875,13.0781393 C8.13410862,13.076315 8.11423849,13.0744907 8.09436836,13.0744907 L6.9509327,13.076315 L5.80749705,13.0744907 C5.78762692,13.0744907 5.76775679,13.076315 5.74788666,13.0781393 L1.2066588,13.083612 C1.18678867,13.083612 1.18859504,13.0817878 1.17414404,13.083612 C1.20123967,13.0015202 1.29878394,12.7734874 1.65825266,12.2699909 C1.95449823,11.8558832 2.31216057,11.4180602 2.59756789,11.0659775 C2.75291617,10.8744299 2.88839433,10.708422 2.98051948,10.5880207 C3.074451,10.4639708 3.11057851,10.3143813 3.09612751,10.1702645 C3.09793388,10.1483734 3.09974026,10.124658 3.09974026,10.1027668 L3.09974026,6.50532077 C3.09974026,4.44207966 4.83024793,2.76375798 6.95815821,2.76375798 C9.08606848,2.76375798 10.8165762,4.44207966 10.8165762,6.50532077 L10.8165762,10.1155366 C10.7840614,10.2760718 10.8183825,10.4475524 10.9231523,10.5880207 C11.0152774,10.708422 11.1489492,10.8744299 11.3061039,11.0659775 C11.5933176,11.4180602 11.9491736,11.8558832 12.2454191,12.2699909 C12.6048878,12.7734874 12.7042385,13.0033445 12.7295277,13.083612 L12.7168831,13.083612 Z" id="Path"></path>
                    </g>
                </g>
            </g>
        </g>
    </g>
</svg>