<?xml version="1.0" encoding="UTF-8"?>
<svg width="16px" height="16px" viewBox="0 0 16 16" version="1.1" xmlns="http://www.w3.org/2000/svg" xmlns:xlink="http://www.w3.org/1999/xlink">
    <!-- Generator: Sketch 46.1 (44463) - http://www.bohemiancoding.com/sketch -->
    <title>使用帮助</title>
    <desc>Created with Sketch.</desc>
    <defs></defs>
    <g id="Page-1" stroke="none" stroke-width="1" fill="none" fill-rule="evenodd">
        <g id="帮助下拉" transform="translate(-1099.000000, -88.000000)">
            <g id="Group-18-Copy" transform="translate(1062.000000, 69.000000)">
                <g id="Group-14" transform="translate(37.000000, 17.000000)">
                    <g id="Group-47" transform="translate(0.000000, 2.000000)">
                        <rect id="Rectangle-30" x="0" y="0" width="16" height="16"></rect>
                        <g id="帮助-(5)" transform="translate(1.000000, 1.000000)" fill-rule="nonzero" fill="#474747">
                            <path d="M7,0 C3.134,0 0,3.134 0,7 C0,10.866 3.134,14 7,14 C10.866,14 14,10.866 14,7 C14,3.134 10.866,0 7,0 Z M7,13 C3.68629688,13 1,10.3137031 1,7 C1,3.68629688 3.68629688,1 7,1 C10.3137031,1 13,3.68629688 13,7 C13,10.3137031 10.3137031,13 7,13 Z" id="Shape"></path>
                            <path d="M6.99101563,3.42857812 C5.86648438,3.42857812 4.94642188,4.347 4.94642188,5.46934375 L5.96871875,5.46934375 C5.96871875,4.908125 6.42875,4.44892187 6.99103125,4.44892187 C7.55339063,4.44892187 8.0134375,4.90810937 8.0134375,5.46934375 C8.0134375,5.77545313 7.91114062,6.03060937 7.70671875,6.1836875 L7.0933125,6.84689063 C6.68435937,7.20404687 6.47992187,7.71432812 6.47992187,8.27554687 L6.47992187,8.53060937 L7.50221875,8.53060937 C7.50221875,7.76526562 7.70670312,7.45915625 8.11560937,7.10204687 L8.5756875,6.64292187 C8.83123437,6.33675 9.03571875,5.92851562 9.03571875,5.46934375 C9.03571875,4.347 8.11559375,3.42857812 6.99101562,3.42857812 L6.99101563,3.42857812 Z M7.0009375,9.55357812 L6.99907812,9.55357812 C6.71729687,9.55357812 6.48885937,9.7819375 6.48885937,10.0637812 C6.48885937,10.3455469 6.71732812,10.5739844 6.99907812,10.5739844 L7.0009375,10.5739844 C7.28271875,10.5739844 7.51115625,10.3456094 7.51115625,10.0637812 C7.51115625,9.782 7.2826875,9.55357812 7.0009375,9.55357812 Z" id="Shape"></path>
                        </g>
                    </g>
                </g>
            </g>
        </g>
    </g>
</svg>