<?xml version="1.0" encoding="UTF-8"?>
<svg width="16px" height="16px" viewBox="0 0 16 16" version="1.1" xmlns="http://www.w3.org/2000/svg" xmlns:xlink="http://www.w3.org/1999/xlink">
    <!-- Generator: Sketch 46.1 (44463) - http://www.bohemiancoding.com/sketch -->
    <title>修改密码-高亮</title>
    <desc>Created with Sketch.</desc>
    <defs></defs>
    <g id="z'z" stroke="none" stroke-width="1" fill="none" fill-rule="evenodd">
        <g id="账号设置-个人信息" transform="translate(-269.000000, -228.000000)" fill-rule="nonzero" stroke="#1891F0" fill="#1891F0">
            <g id="Group-4" transform="translate(240.000000, 84.000000)">
                <g id="Group-48">
                    <g id="Group-6-Copy-2" transform="translate(5.000000, 131.000000)">
                        <g id="Group-42">
                            <g id="Group-16" transform="translate(24.000000, 13.000000)">
                                <path d="M8.1250081,6.98190698 C7.88968623,6.98190698 7.65990486,7.07741557 7.4944413,7.24268352 C7.32897773,7.40797978 7.23340081,7.63936906 7.23340081,7.87261274 C7.23340081,8.10769666 7.32900607,8.3372457 7.4944413,8.50254196 C7.65990486,8.66783822 7.89152834,8.7633185 8.1250081,8.7633185 C8.36032996,8.7633185 8.59011134,8.66780991 8.7555749,8.50254196 C8.92103846,8.3372457 9.01661538,8.10585642 9.01661538,7.87261274 C9.01661538,7.63752882 8.92101012,7.40797978 8.7555749,7.24268352 C8.59011134,7.07738726 8.36032996,6.98190698 8.1250081,6.98190698 L8.1250081,6.98190698 Z M5.13393927,6.98190698 C4.89861741,6.98190698 4.66883603,7.07741557 4.50337247,7.24268352 C4.33790891,7.40795147 4.24233198,7.63936906 4.24233198,7.87261274 C4.24233198,8.10769666 4.33793725,8.3372457 4.50337247,8.50254196 C4.66883603,8.66783822 4.90045951,8.7633185 5.13393927,8.7633185 C5.36926113,8.7633185 5.59904251,8.66780991 5.76450607,8.50254196 C5.92996964,8.3372457 6.02554656,8.10585642 6.02554656,7.87261274 C6.02554656,7.63752882 5.9299413,7.40797978 5.76450607,7.24268352 C5.59904251,7.07738726 5.36926113,6.98190698 5.13393927,6.98190698 L5.13393927,6.98190698 Z M11.1160769,6.98190698 C10.8807551,6.98190698 10.6509737,7.07741557 10.4855101,7.24268352 C10.3200466,7.40795147 10.2244696,7.63936906 10.2244696,7.87261274 C10.2244696,8.10769666 10.3200749,8.3372457 10.4855101,8.50254196 C10.6509737,8.66783822 10.8825972,8.7633185 11.1160769,8.7633185 C11.3513988,8.7633185 11.5811802,8.66780991 11.7466437,8.50254196 C11.9121073,8.3372457 12.0076842,8.10585642 12.0076842,7.87261274 C12.0076842,7.63752882 11.9120789,7.40797978 11.7466437,7.24268352 C11.5811802,7.07738726 11.3513988,6.98190698 11.1160769,6.98190698 L11.1160769,6.98190698 Z" id="Shape" stroke-width="0.3"></path>
                                <path d="M14.4490972,5.27760162 C14.0961215,4.44565622 13.5924049,3.69633771 12.9489575,3.05539535 C12.3055101,2.41445298 11.5572895,1.9093913 10.724502,1.5567725 C9.86229757,1.1913003 8.94494332,1.00765824 8,1.00765824 C7.05505668,1.00765824 6.13770243,1.1931547 5.27549798,1.5567725 C4.44271053,1.9093913 3.6926336,2.41259858 3.05104251,3.05539535 C2.40760931,3.69817796 1.90387854,4.44565622 1.55090283,5.27760162 C1.18506073,6.13893428 1.00123279,7.05536097 1.00123279,7.99934884 C1.00123279,8.9433367 1.186917,9.8597634 1.55090283,10.7210961 C1.90387854,11.5530415 2.40759514,12.30236 3.05104251,12.9433023 C3.69447571,13.5860849 4.44271053,14.0893064 5.27549798,14.4419252 C6.13770243,14.8055713 7.05505668,14.9910394 8,14.9910394 C8.94494332,14.9910394 9.86229757,14.805543 10.724502,14.4419252 C11.5572895,14.0893064 12.3073664,13.5860991 12.9489575,12.9433023 C13.5905486,12.3005056 14.0961215,11.5530415 14.4490972,10.7210961 C14.8149393,9.8597634 14.9987672,8.9433367 14.9987672,7.99934884 C14.9987672,7.05536097 14.8149251,6.13893428 14.4490972,5.27760162 Z M8,14.2031749 C4.57507287,14.2031749 1.78989474,11.4189727 1.78989474,7.99934884 C1.78989474,4.57788473 4.57691498,1.79552275 8,1.79552275 C11.4249271,1.79552275 14.2101053,4.57972497 14.2101053,7.99934884 C14.2101053,11.4208129 11.4249271,14.2031749 8,14.2031749 Z" id="Shape" stroke-width="0.4"></path>
                            </g>
                        </g>
                    </g>
                </g>
            </g>
        </g>
    </g>
</svg>