<?xml version="1.0" encoding="UTF-8"?>
<svg width="16px" height="16px" viewBox="0 0 16 16" version="1.1" xmlns="http://www.w3.org/2000/svg" xmlns:xlink="http://www.w3.org/1999/xlink">
    <!-- Generator: Sketch 46.1 (44463) - http://www.bohemiancoding.com/sketch -->
    <title>个人信息-灰</title>
    <desc>Created with Sketch.</desc>
    <defs></defs>
    <g id="z'z" stroke="none" stroke-width="1" fill="none" fill-rule="evenodd">
        <g id="账号设置-个人信息" transform="translate(-269.000000, -102.000000)">
            <g id="Group-4" transform="translate(240.000000, 84.000000)">
                <g id="Group-48">
                    <g id="Group-14" transform="translate(29.000000, 16.000000)">
                        <g id="Group-15" transform="translate(0.000000, 2.000000)">
                            <rect id="Rectangle-9" x="0" y="0" width="16" height="16"></rect>
                            <path d="M11.1819538,5.0526357 C11.1819538,2.81828603 9.36927136,1 7.14094839,1 C4.91328568,1 3.09994302,2.81828603 3.09994302,5.0526357 C3.09994302,6.57655675 3.94375294,7.90532111 5.18663256,8.59708353 C2.74852464,9.47564907 1,11.8162441 1,14.5600825 C1,14.8028999 1.19656368,15 1.43810544,15 C1.68116096,14.9967714 1.87695166,14.8042321 1.87695166,14.5672136 C1.87695166,14.5647216 1.87693556,14.5621983 1.87688725,14.5597063 C1.87688725,11.5521588 4.31697594,9.10461315 7.31565914,9.10461315 C7.35376214,9.1042335 7.39164166,9.09889398 7.42828952,9.08873669 C9.51948815,8.94553507 11.1819538,7.19229081 11.1819538,5.0526357 Z M7.14091619,8.22607895 C5.3963853,8.22607895 3.97745832,6.8026357 3.97745832,5.05326261 C3.97745832,3.30388952 5.3963853,1.88044627 7.14091619,1.88044627 C8.88544707,1.88044627 10.3050343,3.30388952 10.3050343,5.05326261 C10.3050343,6.8026357 8.88610733,8.22607895 7.14091619,8.22607895 Z M8.98208508,10.523574 C8.98208508,10.7663914 9.17864876,10.9634915 9.42088299,10.9634915 L14.5611699,10.9634915 C14.804322,10.9599025 15,10.7672064 15,10.5300782 C15,10.52779 14.9999839,10.5255174 14.9999517,10.5232449 C14.9999839,10.5216619 15,10.5193894 15,10.5170855 C15,10.2799259 14.804322,10.0872612 14.5615242,10.0836722 L9.42089909,10.0836722 C9.17774695,10.0872612 8.98206897,10.2799573 8.98206897,10.5170855 C8.98206897,10.5193737 8.98208508,10.5216463 8.98211729,10.5239188 L8.98208508,10.523574 Z M14.5611538,11.8819598 L9.42086688,11.8819598 C9.17771474,11.8855489 8.98203677,12.0782449 8.98203677,12.3153731 C8.98203677,12.3176614 8.98205287,12.3199339 8.98208508,12.3222064 C8.98208508,12.5646947 9.17863266,12.7617792 9.42085078,12.7617792 L14.5611377,12.7617792 C14.8041932,12.7585506 14.9999839,12.5660112 14.9999839,12.3289927 C14.9999839,12.3265008 14.9999678,12.3239775 14.9999195,12.3214855 C14.9999517,12.3199339 14.9999678,12.3176614 14.9999678,12.3153731 C14.9999678,12.0782136 14.8042898,11.8855489 14.561492,11.8819598 L14.5611538,11.8819598 Z M14.5611538,13.9005432 L9.42086688,13.9005432 C9.17864876,13.9005432 8.98206897,14.096985 8.98206897,14.3404607 C8.98206897,14.5839364 9.17863266,14.7803782 9.42086688,14.7803782 L14.5611538,14.7803782 C14.8040483,14.7803782 14.9999517,14.5839364 14.9999517,14.3404607 C14.9999517,14.096985 14.803388,13.9005432 14.5611538,13.9005432 Z" id="Shape" stroke="#4F657B" stroke-width="0.2" fill="#4F657B" fill-rule="nonzero"></path>
                        </g>
                    </g>
                </g>
            </g>
        </g>
    </g>
</svg>