<?xml version="1.0" encoding="UTF-8"?>
<svg width="16px" height="16px" viewBox="0 0 16 16" version="1.1" xmlns="http://www.w3.org/2000/svg" xmlns:xlink="http://www.w3.org/1999/xlink">
    <!-- Generator: Sketch 46.1 (44463) - http://www.bohemiancoding.com/sketch -->
    <title>账号状态-高亮</title>
    <desc>Created with Sketch.</desc>
    <defs></defs>
    <g id="z'z" stroke="none" stroke-width="1" fill="none" fill-rule="evenodd">
        <g id="账号设置-个人信息" transform="translate(-269.000000, -144.000000)">
            <g id="Group-4" transform="translate(240.000000, 84.000000)">
                <g id="Group-48">
                    <g id="Group-6" transform="translate(5.000000, 47.000000)">
                        <g id="Group-14-Copy" transform="translate(24.000000, 11.000000)">
                            <g id="Group-15" transform="translate(0.000000, 2.000000)">
                                <rect id="Rectangle-9" x="0" y="0" width="16" height="16"></rect>
                                <g id="账号状态" transform="translate(1.000000, 2.000000)" stroke="#1891F0" stroke-width="0.4" fill="#1891F0" fill-rule="nonzero">
                                    <path d="M6.9998515,7.17156344 C5.74752439,7.17156344 4.7287332,6.17426737 4.7287332,4.94858067 C4.7287332,3.72311625 5.74752437,2.72621346 6.9998515,2.72621346 C8.25221356,2.72621346 9.27102221,3.72311625 9.27102221,4.94858067 C9.27102219,6.17426737 8.25221356,7.17156344 6.9998515,7.17156344 Z M6.9998515,3.36745816 C6.10882635,3.36745816 5.38391623,4.07670537 5.38391623,4.94859776 C5.38391623,5.82088342 6.10882635,6.53037002 6.9998515,6.53037002 C7.8909116,6.53037002 8.61585664,5.82088342 8.61585664,4.94859776 C8.61585664,4.07670537 7.8909116,3.36745816 6.9998515,3.36745816 Z" id="Shape"></path>
                                    <path d="M10.010643,10.1204991 C9.82978232,10.1204991 9.68306019,9.97690213 9.68306019,9.79989383 C9.68306019,8.35192083 8.47937256,7.17387179 6.9998515,7.17387179 C5.52038285,7.17387179 4.31690488,8.35192083 4.31690488,9.79989383 C4.31690488,9.97690213 4.17018275,10.1204991 3.98932211,10.1204991 C3.80846147,10.1204991 3.66172185,9.97690213 3.66172185,9.79989383 C3.66172185,7.99833171 5.15911582,6.53264418 6.9998515,6.53264418 C8.84065705,6.53264418 10.3382607,7.99833171 10.3382607,9.79989383 C10.3382607,9.97690213 10.1915036,10.1204991 10.010643,10.1204991 Z" id="Shape"></path>
                                    <path d="M13.0557651,12.8320695 L0.943763185,12.8320695 C0.431056824,12.8320695 0.0141094732,12.4236269 0.0141094732,11.9216189 L0.0141094732,0.924922613 C0.0141094732,0.42291463 0.431056824,0.0146259859 0.943763185,0.0146259859 L13.0557651,0.0146259859 C13.5686986,0.0146259859 13.9858556,0.42291463 13.9858556,0.924922613 L13.9858556,11.9216019 C13.9858556,12.4236269 13.5686986,12.8320695 13.0557651,12.8320695 Z M0.943763185,0.655870686 C0.79234132,0.655870686 0.669292502,0.776503752 0.669292502,0.924922613 L0.669292502,11.9216019 C0.669292502,12.0700207 0.792341337,12.1908761 0.943763185,12.1908761 L13.0557651,12.1908761 C13.2074141,12.1908761 13.3306551,12.0700207 13.3306551,11.9216019 L13.3306551,0.924922613 C13.3306551,0.776486658 13.2073966,0.655870686 13.0557651,0.655870686 L0.943763185,0.655870686 Z" id="Shape"></path>
                                </g>
                            </g>
                        </g>
                    </g>
                </g>
            </g>
        </g>
    </g>
</svg>