<?xml version="1.0" encoding="UTF-8"?>
<svg width="14px" height="14px" viewBox="0 0 14 14" version="1.1" xmlns="http://www.w3.org/2000/svg" xmlns:xlink="http://www.w3.org/1999/xlink">
    <!-- Generator: Sketch 46.1 (44463) - http://www.bohemiancoding.com/sketch -->
    <title>钩</title>
    <desc>Created with Sketch.</desc>
    <defs></defs>
    <g id="Page-1" stroke="none" stroke-width="1" fill="none" fill-rule="evenodd">
        <g id="账号设置-账号状态" transform="translate(-596.000000, -210.000000)">
            <g id="Group-54" transform="translate(470.000000, 156.000000)">
                <g id="Group-16" transform="translate(126.000000, 54.000000)">
                    <rect id="Rectangle-12" x="0" y="0" width="14" height="14"></rect>
                    <path d="M12.8670027,4.10467885 L11.9040436,3.13412955 C11.7267277,2.95529015 11.4394005,2.95529015 11.2620708,3.13412955 L5.48605879,8.95126942 L2.73780818,6.16336304 C2.56054767,5.98610421 2.27316509,5.98610421 2.09590457,6.16336304 L1.13294539,7.13391234 C0.95568487,7.31275174 0.95568487,7.60311792 1.13294539,7.78043221 L4.18837562,10.881623 C4.19295481,10.8861983 4.1944766,10.8922571 4.19747867,10.8953073 L4.8639384,11.5663259 L5.01835828,11.7237306 L5.01835828,11.7222055 L5.16202882,11.8658705 C5.33934469,12.0447098 5.62667191,12.0447098 5.80400161,11.8658705 L12.8670027,4.75114326 C13.0443324,4.57237319 13.0443324,4.28346278 12.8670027,4.10467885 Z" id="Shape" fill="#80C22E" fill-rule="nonzero"></path>
                </g>
            </g>
        </g>
    </g>
</svg>