<?xml version="1.0" encoding="UTF-8"?>
<svg width="20px" height="20px" viewBox="0 0 20 20" version="1.1" xmlns="http://www.w3.org/2000/svg" xmlns:xlink="http://www.w3.org/1999/xlink">
    <!-- Generator: Sketch 46.1 (44463) - http://www.bohemiancoding.com/sketch -->
    <title>提示-未知错误</title>
    <desc>Created with Sketch.</desc>
    <defs></defs>
    <g id="Page-1" stroke="none" stroke-width="1" fill="none" fill-rule="evenodd">
        <g id="账号设置-接触账号绑定-成功或错误" transform="translate(-666.000000, -274.000000)" fill-rule="nonzero" fill="#F55471">
            <g id="Group-6" transform="translate(636.000000, 258.000000)">
                <g id="Group-8" transform="translate(30.000000, 15.000000)">
                    <g id="删除" transform="translate(0.000000, 1.000000)">
                        <path d="M10,20 C7.32873294,20 4.81745516,18.9588216 2.92893627,17.0703028 C1.04041738,15.1817839 0,12.6712671 0,10 C0,7.32873291 1.0404174,4.81745516 2.92893627,2.92893627 C4.81745514,1.04041738 7.32873294,0 10,0 C12.6712671,0 15.1817839,1.04041738 17.0703028,2.92893627 L17.0703028,2.92893627 L17.0703028,2.92893627 C18.9588216,4.81745516 19.9999848,7.32871771 20,10 C20.0000152,12.6712823 18.9588369,15.1817991 17.070318,17.070318 C15.1817991,18.9588368 12.6712671,20 10,20 Z M10,1.53846624 C7.73963388,1.53846624 5.61522515,2.41811814 4.01667165,4.01667165 C2.41811814,5.61522515 1.53845101,7.73961867 1.53846624,10 C1.53846624,12.2596051 2.41811814,14.3840138 4.01667165,15.9825674 C5.61522515,17.5811209 7.73963388,18.4615338 10,18.4615338 C12.2596051,18.4615338 14.3840138,17.5811209 15.9825674,15.9825674 C17.5811209,14.3840138 18.4615338,12.2596051 18.4615338,10 C18.4615338,7.73963388 17.5811209,5.61522518 15.9825674,4.01667165 L15.9825674,4.01667165 C14.3840139,2.41811812 12.2596051,1.53846624 10,1.53846624 Z" id="Shape"></path>
                        <path d="M13.2369549,14 C13.0417182,14 12.8464967,13.9254954 12.6974574,13.776456 L6.22354762,7.30254326 C5.92548413,7.00447962 5.92548413,6.52161137 6.22354762,6.22354773 C6.52161112,5.92548409 7.00447914,5.92548409 7.30254264,6.22354773 L13.7764524,12.6974605 C14.0745159,12.9955242 14.0745159,13.4783924 13.7764524,13.776456 C13.627398,13.9254803 13.4321764,13.9999849 13.2369549,14 Z" id="Shape"></path>
                        <path d="M6.76304514,14 C6.56780849,14 6.37258694,13.9254954 6.22354762,13.776456 C5.92548413,13.4783924 5.92548413,12.9955242 6.22354762,12.6974605 L12.6974574,6.22354773 C12.9955209,5.92548409 13.4783889,5.92548409 13.7764524,6.22354773 C14.0745159,6.52161137 14.0745159,7.00447961 13.7764524,7.30254325 L7.30254264,13.776456 C7.15348826,13.9254803 6.95826669,13.9999849 6.76304514,14 Z" id="Shape"></path>
                    </g>
                </g>
            </g>
        </g>
    </g>
</svg>