<?xml version="1.0" encoding="UTF-8"?>
<svg width="18px" height="18px" viewBox="0 0 18 18" version="1.1" xmlns="http://www.w3.org/2000/svg" xmlns:xlink="http://www.w3.org/1999/xlink">
    <!-- Generator: Sketch 46.1 (44463) - http://www.bohemiancoding.com/sketch -->
    <title>普通会员</title>
    <desc>Created with Sketch.</desc>
    <defs></defs>
    <g id="Page-1" stroke="none" stroke-width="1" fill="none" fill-rule="evenodd">
        <g id="头像下拉菜单" transform="translate(-925.000000, -88.000000)" fill-rule="nonzero">
            <g id="Group-18-Copy-2" transform="translate(890.000000, 69.000000)">
                <g id="Group-9" transform="translate(35.000000, 18.000000)">
                    <g id="Group-19" transform="translate(0.000000, 1.000000)">
                        <path d="M0.912634839,8.82684524 C0.912634839,13.2513364 4.53132945,16.8380952 8.99521548,16.8380952 C13.4591015,16.8380952 17.0777961,13.2513364 17.0777961,8.82684524 C17.0777961,4.40235404 13.4591015,0.815595238 8.99521548,0.815595238 C4.53132945,0.815595238 0.912634839,4.40235404 0.912634839,8.82684524 Z" id="Shape" fill="#EEEEEE"></path>
                        <path d="M5.78912512,14.3309492 C7.77306074,15.4662663 10.2173702,15.4662663 12.2013058,14.3309492 C14.1852415,13.1956321 15.4073962,11.0974795 15.4073961,8.82684524 C15.4073961,5.31674888 12.5365651,2.47125357 8.99521548,2.47125357 C5.4538659,2.47125357 2.58303484,5.31674888 2.58303484,8.82684524 C2.58303479,11.0974795 3.80518951,13.1956321 5.78912512,14.3309492 Z" id="Shape" fill="#F1F1F1"></path>
                        <path d="M7.88167095,12.4666667 L6.18973689,12.4666667 L6.18973689,6.23470449 L5.625,6.23470449 L5.625,5.6696832 L5.625,5.66969205 L7.88167095,5.66969205 L7.88167095,6.20930277 L7.88167095,8.94526857 L10.6782304,5.66666667 L13.5,5.66969205 L7.88167095,12.466656 Z" id="Combined-Shape" fill="#FFFFFF"></path>
                    </g>
                </g>
            </g>
        </g>
    </g>
</svg>