<?xml version="1.0" encoding="UTF-8"?>
<svg width="20px" height="20px" viewBox="0 0 20 20" version="1.1" xmlns="http://www.w3.org/2000/svg" xmlns:xlink="http://www.w3.org/1999/xlink">
    <!-- Generator: Sketch 46.1 (44463) - http://www.bohemiancoding.com/sketch -->
    <title>提示-成功</title>
    <desc>Created with Sketch.</desc>
    <defs></defs>
    <g id="Page-1" stroke="none" stroke-width="1" fill="none" fill-rule="evenodd">
        <g id="账号设置-接触账号绑定-成功或错误" transform="translate(-666.000000, -344.000000)" fill-rule="nonzero" fill="#1891F0">
            <g id="Group-6-Copy-3" transform="translate(636.000000, 328.000000)">
                <g id="Group-9" transform="translate(30.000000, 16.000000)">
                    <g id="成功-(1)">
                        <path d="M10,0 C4.47722381,0 0,4.47699965 0,10 C0,15.5230004 4.47722381,20 10,20 C15.5227762,20 20,15.5227762 20,10 C20,4.47722381 15.5230004,0 10,0 Z M10,18.5482425 C5.27887375,18.5482425 1.45175754,14.7211263 1.45175754,10 C1.45175754,5.27887375 5.27909791,1.45175754 10,1.45175754 C14.7209021,1.45175754 18.5482425,5.27887375 18.5482425,10 C18.5482425,14.7211263 14.7211263,18.5482425 10,18.5482425 Z" id="Shape"></path>
                        <path d="M15.1111908,7.60177547 C14.8285103,7.31826042 14.3699623,7.31615745 14.0846933,7.59706779 L8.89055775,12.7441266 L6.3829358,10.4422973 C6.08689302,10.1727061 5.62872257,10.1927354 5.357335,10.4871323 C5.08774379,10.7831751 5.1077731,11.2413456 5.40217002,11.5127331 L8.38638809,14.2523762 C8.38862984,14.254618 8.39042324,14.2570839 8.392665,14.2593257 C8.46910052,14.3362977 8.56199702,14.3949329 8.66436514,14.4308196 L8.66817611,14.4321646 C8.68775407,14.4388899 8.70748147,14.4447932 8.72735832,14.4498745 L8.74013629,14.4530129 C8.75717359,14.4570481 8.77436035,14.4604854 8.79169656,14.463325 L8.81411406,14.4664634 C8.82905906,14.4684063 8.84355572,14.469826 8.85760402,14.4707227 L8.88786766,14.472292 L8.92306313,14.472292 C8.93584109,14.472292 8.94884326,14.472292 8.96162123,14.4707227 L8.98852225,14.4682568 C9.00346725,14.4666129 9.01893532,14.4644458 9.03492646,14.4617557 L9.05353301,14.4583931 C9.07176591,14.4548063 9.08977464,14.450547 9.10755918,14.4456151 L9.11742289,14.4427009 C9.13819645,14.4365734 9.15867109,14.4295493 9.17884684,14.4216284 C9.28053638,14.3817573 9.3717784,14.3191914 9.44561514,14.2387016 C9.44785689,14.2362357 9.44965029,14.2335455 9.45189203,14.2310796 L15.1064831,8.62670373 C15.3899982,8.34402325 15.3921011,7.88547527 15.1111908,7.60020625 L15.1111908,7.60177547 Z" id="Shape"></path>
                    </g>
                </g>
            </g>
        </g>
    </g>
</svg>