<?xml version="1.0" encoding="UTF-8"?>
<svg width="16px" height="16px" viewBox="0 0 16 16" version="1.1" xmlns="http://www.w3.org/2000/svg" xmlns:xlink="http://www.w3.org/1999/xlink">
    <!-- Generator: Sketch 46.1 (44463) - http://www.bohemiancoding.com/sketch -->
    <title>账号绑定-高亮</title>
    <desc>Created with Sketch.</desc>
    <defs></defs>
    <g id="z'z" stroke="none" stroke-width="1" fill="none" fill-rule="evenodd">
        <g id="账号设置-个人信息" transform="translate(-269.000000, -186.000000)">
            <g id="Group-4" transform="translate(240.000000, 84.000000)">
                <g id="Group-48">
                    <g id="Group-6-Copy" transform="translate(5.000000, 89.000000)">
                        <g id="Group-40" transform="translate(24.000000, 13.000000)">
                            <rect id="Rectangle-25" x="0" y="0" width="16" height="16"></rect>
                            <path d="M14.5679989,3.94191176 L12.0908061,1.43458822 C11.5227894,0.860356189 10.5989504,0.856511381 10.0272014,1.42704219 L7.53005967,3.91434403 C6.95829471,4.48481103 6.95454637,5.41284492 7.52248358,5.98714076 L8.00714726,6.47774428 L8.76820345,5.71904136 L8.69627024,5.64670798 C8.31762425,5.2635516 8.32051493,4.64456986 8.70198805,4.26524233 L10.3660768,2.60607325 C10.7475975,2.22574064 11.3638026,2.22856442 11.7414956,2.61173676 L13.3933069,4.28330175 C13.7719529,4.66647408 13.7691417,5.28545581 13.3876685,5.66478335 L11.7235163,7.32395243 C11.3420432,7.70428503 10.7258063,7.70146126 10.3480816,7.31828891 L10.2761484,7.24510998 L9.51509217,8.00475415 L9.99975586,8.49542149 C10.5676931,9.06965352 11.4916115,9.07349833 12.0633606,8.50398854 L14.5595016,6.01568164 C15.1321878,5.44518275 15.1360156,4.5162076 14.5679989,3.94191176 L14.5679989,3.94191176 Z M8.47662699,10.0129071 L7.99485398,9.52512735 L7.23379779,10.2838303 L7.30284032,10.3532601 C7.68150219,10.7364325 7.67867506,11.3554142 7.29720192,11.7348055 L5.63304965,13.3939746 C5.25157653,13.7743232 4.63533972,13.7714037 4.25769435,13.3882313 L2.60588301,11.7167461 C2.22723702,11.3335738 2.23004827,10.7145761 2.61152141,10.3351848 L4.27568956,8.67601569 C4.65716268,8.29568309 5.27341538,8.29850686 5.65102898,8.68175897 L5.72015094,8.75110904 L6.48120713,7.99240612 L5.99941824,7.50462637 C5.43148103,6.93031457 4.50757847,6.92654953 3.93581352,7.49605932 L1.4396248,9.98532343 C0.867939257,10.5557904 0.864111499,11.4837445 1.43211224,12.0580563 L3.90932099,14.5653639 C4.4772582,15.1396757 5.40117663,15.1434408 5.9729416,14.5729738 L8.4691303,12.0846669 C9.04081584,11.5151571 9.0446436,10.5871391 8.47662699,10.0129071 L8.47662699,10.0129071 Z M6.46892972,10.2781827 C6.2578314,10.488259 5.91803476,10.4863765 5.70881061,10.2752792 L5.70881061,10.2752792 C5.49960236,10.0641658 5.50053944,9.72193033 5.71163776,9.51271548 L9.52930729,5.70849607 C9.74040561,5.49841974 10.0802022,5.50031821 10.2894105,5.71141557 L10.2894105,5.71141557 C10.4985711,5.92345419 10.4966811,6.2647644 10.2865198,6.47490456 L6.46892972,10.2781827 L6.46892972,10.2781827 Z" id="Shape" fill="#1891F0" fill-rule="nonzero"></path>
                        </g>
                    </g>
                </g>
            </g>
        </g>
    </g>
</svg>