<?xml version="1.0" standalone="no"?><!DOCTYPE svg PUBLIC "-//W3C//DTD SVG 1.1//EN" "http://www.w3.org/Graphics/SVG/1.1/DTD/svg11.dtd"><svg t="1551427317931" class="icon" style="" viewBox="0 0 1024 1024" version="1.1" xmlns="http://www.w3.org/2000/svg" p-id="8956" xmlns:xlink="http://www.w3.org/1999/xlink" width="16" height="16"><defs><style type="text/css"></style></defs><path d="M892.0064 872.8576h-757.76a122.88 122.88 0 0 1-122.88-122.88V256a122.88 122.88 0 0 1 122.88-122.88h757.76a122.88 122.88 0 0 1 122.88 122.88v493.8752a122.88 122.88 0 0 1-122.88 122.9824zM129.4336 192.8192a60.2112 60.2112 0 0 0-60.0064 60.1088v500.224a60.2112 60.2112 0 0 0 60.0064 60.1088h768a60.2112 60.2112 0 0 0 60.0064-60.1088V252.928a60.2112 60.2112 0 0 0-60.0064-60.1088z" p-id="8957" fill="#8a8a8a"></path><path d="M178.7904 277.2992H351.232v63.6928H178.7904zM178.7904 486.4h668.8768v63.6928H178.7904z" p-id="8958" fill="#8a8a8a"></path></svg>