<?xml version="1.0" encoding="UTF-8"?>
<svg width="50px" height="50px" viewBox="0 0 50 50" version="1.1" xmlns="http://www.w3.org/2000/svg" xmlns:xlink="http://www.w3.org/1999/xlink">
    <!-- Generator: Sketch 46.1 (44463) - http://www.bohemiancoding.com/sketch -->
    <title>微信</title>
    <desc>Created with Sketch.</desc>
    <defs></defs>
    <g id="Page-1" stroke="none" stroke-width="1" fill="none" fill-rule="evenodd">
        <g id="账号设置-账号绑定" transform="translate(-475.000000, -231.000000)">
            <g id="Group-53" transform="translate(475.000000, 231.000000)">
                <rect id="Rectangle-16-Copy" x="0" y="0" width="50" height="50"></rect>
                <g id="微信" transform="translate(5.000000, 9.000000)" fill-rule="nonzero" fill="#00C800">
                    <path d="M27.075,9.99726316 C27.535,9.99726316 27.9875,10.0326316 28.4425,10.0831579 C27.2175,4.31810526 21.12,0.036 14.1575,0.036 C6.375,0.036 0,5.39431579 0,12.2027368 C0,16.1311579 2.12,19.3572632 5.665,21.8633684 L4.25,26.1656842 L9.2,23.6595789 C10.97,24.0107368 12.39,24.3745263 14.1575,24.3745263 C14.6025,24.3745263 15.0425,24.3543158 15.4775,24.3214737 C15.2025,23.364 15.04,22.3635789 15.04,21.3202105 C15.0425,15.0701053 20.3525,9.99726316 27.075,9.99726316 L27.075,9.99726316 Z M19.465,6.11936842 C20.535,6.11936842 21.2375,6.82926316 21.2375,7.90547368 C21.2375,8.97663158 20.535,9.69410526 19.465,9.69410526 C18.4075,9.69410526 17.3425,8.97663158 17.3425,7.90547368 C17.3425,6.82673684 18.405,6.11936842 19.465,6.11936842 Z M9.5575,9.69410526 C8.495,9.69410526 7.425,8.97663158 7.425,7.90547368 C7.425,6.82926316 8.495,6.11936842 9.5575,6.11936842 C10.62,6.11936842 11.325,6.82673684 11.325,7.90547368 C11.325,8.97663158 10.62,9.69410526 9.5575,9.69410526 L9.5575,9.69410526 Z" id="Shape"></path>
                    <path d="M40,21.1484211 C40,15.4288421 34.335,10.7677895 27.9725,10.7677895 C21.235,10.7677895 15.9325,15.4313684 15.9325,21.1484211 C15.9325,26.8831579 21.2375,31.5290526 27.9725,31.5290526 C29.3825,31.5290526 30.805,31.1728421 32.22,30.8141053 L36.1025,32.9665263 L35.0375,29.3892632 C37.88,27.2317895 40,24.3745263 40,21.1484211 Z M24.0675,19.3572632 C23.365,19.3572632 22.6525,18.6498947 22.6525,17.9273684 C22.6525,17.2149474 23.365,16.4974737 24.0675,16.4974737 C25.1425,16.4974737 25.84,17.2149474 25.84,17.9273684 C25.84,18.6498947 25.1425,19.3572632 24.0675,19.3572632 Z M31.855,19.3572632 C31.1575,19.3572632 30.4475,18.6498947 30.4475,17.9273684 C30.4475,17.2149474 31.155,16.4974737 31.855,16.4974737 C32.92,16.4974737 33.6275,17.2149474 33.6275,17.9273684 C33.6275,18.6498947 32.92,19.3572632 31.855,19.3572632 Z" id="Shape"></path>
                </g>
            </g>
        </g>
    </g>
</svg>