<?xml version="1.0" encoding="UTF-8"?>
<svg width="505px" height="351px" viewBox="0 0 505 351" version="1.1" xmlns="http://www.w3.org/2000/svg" xmlns:xlink="http://www.w3.org/1999/xlink">
    <!-- Generator: Sketch 46.1 (44463) - http://www.bohemiancoding.com/sketch -->
    <title>工作图</title>
    <desc>Created with Sketch.</desc>
    <defs>
        <rect id="path-1" x="279.6" y="246.6" width="38.4" height="34.2"></rect>
        <rect id="path-2" x="109.8" y="286.2" width="394.8" height="22.8"></rect>
        <rect id="path-3" x="393" y="306.6" width="24" height="43.2"></rect>
        <polygon id="path-4" points="451.2 306.6 475.2 306.6 475.2 349.8 451.2 349.8"></polygon>
        <rect id="path-5" x="96" y="156" width="20.4" height="10.8" rx="1.8"></rect>
        <rect id="path-6" x="73.8" y="174.6" width="20.4" height="27.6"></rect>
        <rect id="path-7" x="23.4" y="0" width="11.4" height="46.2" rx="5.7"></rect>
        <rect id="path-8" x="32.4" y="23.4" width="10.2" height="22.8" rx="5.1"></rect>
        <path d="M53.4,58.1628637 C55.7677869,57.8676049 57.6,55.8477706 57.6,53.4 L57.6,43.8 C57.6,41.1490332 55.4509668,39 52.8,39 L52.8,39 L28.2,39 L28.2,39 C25.5490332,39 23.4,41.1490332 23.4,43.8 L23.4,43.8 L23.4,52.2 L23.4,85.2 C23.4,89.1764502 20.1764502,92.4 16.2,92.4 L0,92.4 L0,122.4 L15,122.4 C36.2077344,122.4 53.4,105.207734 53.4,84 L53.4,58.1628637 Z" id="path-9"></path>
        <rect id="path-10" x="40.8" y="23.4" width="10.2" height="22.8" rx="5.1"></rect>
        <rect id="path-11" x="48.6" y="23.4" width="10.2" height="22.8" rx="5.1"></rect>
        <path d="M23.4,49.2 L23.4,39 L23.4,39 L41.1,39 L41.1,39 C43.9166522,39 46.2,41.2833478 46.2,44.1 L46.2,44.1 L46.2,44.1 C46.2,46.9166522 43.9166522,49.2 41.1,49.2 L34.8,49.2" id="path-12"></path>
        <rect id="path-13" x="87.6" y="203.4" width="39.6" height="33.6"></rect>
        <path d="M63,312.6 L180.6,312.6 L180.6,312.6 C190.872496,312.6 199.2,320.927504 199.2,331.2 L199.2,350.079295 L40.8,350.079295 L40.8,334.8 L40.8,334.8 C40.8,322.539279 50.7392786,312.6 63,312.6 Z" id="path-14"></path>
        <path d="M255.6,278.6 L339,278.6 L339,278.6 C344.964675,278.6 349.8,283.435325 349.8,289.4 L349.8,289.4 L244.8,289.4 L244.8,289.4 L244.8,289.4 C244.8,283.435325 249.635325,278.6 255.6,278.6 Z" id="path-15"></path>
        <path d="M78.9,192.6 L78.9,192.6 L78.9,192.6 C100.936162,192.6 118.8,210.463838 118.8,232.5 L118.8,328.046336 L95.5691676,349.2 L39,349.2 L39,232.5 L39,232.5 C39,210.463838 56.8638385,192.6 78.9,192.6 Z" id="path-16"></path>
        <path d="M0,262.2 L70.2,262.2 L70.2,262.2 C81.135238,262.2 90,271.064762 90,282 L90,349.8 L0,349.8 L0,262.2 Z" id="path-17"></path>
        <path d="M0,262.2 L58.8,262.2 L58.8,262.2 C69.735238,262.2 78.6,271.064762 78.6,282 L78.6,349.8 L0,349.8 L0,262.2 Z" id="path-18"></path>
        <path d="M22.8,300 L46.8,300 L46.8,300 C50.4450793,300 53.4,302.954921 53.4,306.6 L53.4,349.547791 L16.2,349.547791 L16.2,306.6 L16.2,306.6 C16.2,302.954921 19.1549207,300 22.8,300 Z" id="path-19"></path>
        <path d="M22.8,300 L40.8,300 L40.8,300 C44.4450793,300 47.4,302.954921 47.4,306.6 L47.4,349.547791 L16.2,349.547791 L16.2,306.6 L16.2,306.6 C16.2,302.954921 19.1549207,300 22.8,300 Z" id="path-20"></path>
        <path d="M288.6,289.8 C288.6,280.521616 281.078384,273 271.8,273 C262.521616,273 255,280.521616 255,289.8" id="path-21"></path>
        <path d="M228,295.8 L145.2,295.8 L145.2,295.8 C112.062915,295.8 85.2,268.937085 85.2,235.8 L85.2,228.6 L118.8,228.6 L118.8,230.4 C118.8,250.613622 135.186378,267 155.4,267 L237.3,267 L267,267 C269.982338,267 272.4,269.417662 272.4,272.4 C272.4,275.186716 270.289101,277.480405 267.579054,277.769317 C267.976999,278.595421 268.2,279.521668 268.2,280.5 C268.2,283.979394 265.379394,286.8 261.9,286.8 L250.624992,286.8 C251.480064,287.755362 252,289.016962 252,290.4 C252,293.382338 249.582338,295.8 246.6,295.8 L228,295.8 Z" id="path-22"></path>
        <path d="M118.8,228.6 L118.8,230.4 C118.8,242.563398 124.733413,253.340974 133.863759,259.996247 C139.950657,264.433097 140.517615,264.869543 135.564634,261.305587 L114.702654,287.48217 L114.702654,287.48217 C114.091998,287.115515 113.636014,286.837577 113.334703,286.648355 C96.434326,276.035004 85.2,257.229461 85.2,235.8 L85.2,228.6" id="path-23"></path>
        <path d="M108.955675,102.688193 L135.400558,147.358782 L135.400558,147.358782 C136.07579,148.499382 135.698536,149.971404 134.557936,150.646637 C134.352255,150.768399 134.129538,150.858754 133.897159,150.914708 L120.347464,154.177352 L120.347464,154.177352 C120.077903,154.24226 119.887924,154.483414 119.887924,154.760679 L119.887924,160.401172 L99.8011803,160.401172 L99.8011803,160.401243 C99.4698482,160.401243 99.2012505,160.66984 99.2012505,161.001172 C99.2012505,161.021755 99.2023097,161.042324 99.2044239,161.062797 C100.069457,169.439549 106.125269,173.805763 117.371861,174.161437 C117.379466,176.199098 117.379466,178.913055 117.371861,182.30331 C117.011121,185.032739 115.782616,186.54448 113.686347,186.838532 C111.590078,187.132585 105.579758,187.279611 95.6553862,187.279611 C83.7764801,186.867404 74.4641891,181.899825 67.7185135,172.376873 C60.9728378,162.853921 57.6,156.063013 57.6,152.004148 L64.8290605,103.799858 L89.4997785,98.4 L108.955675,102.688193 Z" id="path-24"></path>
        <rect id="path-25" x="201" y="135" width="195" height="117.6" rx="10.2"></rect>
        <rect id="path-26" x="211.2" y="144.6" width="174" height="90" rx="3"></rect>
        <rect id="path-27" x="473" y="248" width="28.2" height="24.6" rx="12.3"></rect>
        <path d="M450.2,240 L484.8,240 L484.8,240 C485.462742,240 486,240.537258 486,241.2 L486,275.6 L486,275.6 C486,281.896046 480.896046,287 474.6,287 L460.4,287 L460.4,287 C454.103954,287 449,281.896046 449,275.6 L449,241.2 L449,241.2 C449,240.537258 449.537258,240 450.2,240 Z" id="path-28"></path>
        <path d="M264.823567,146.69831 C277.832759,140.376811 286.8,127.035611 286.8,111.6 C286.8,90.0608948 269.339105,72.6 247.8,72.6 C226.260895,72.6 208.8,90.0608948 208.8,111.6 C208.8,133.139105 226.260895,150.6 247.8,150.6 C250.506796,150.6 253.149186,150.324246 255.70061,149.799297 L263.410741,158.399555 L264.823567,146.69831 Z" id="path-29"></path>
        <path d="M390.086351,155.34339 C406.825471,147.209424 418.363752,130.043105 418.363752,110.181876 C418.363752,82.4671912 395.896561,60 368.181876,60 C340.467191,60 318,82.4671912 318,110.181876 C318,137.896561 340.467191,160.363752 368.181876,160.363752 C371.664751,160.363752 375.064753,160.008935 378.347708,159.333476 L388.268448,170.399555 L390.086351,155.34339 Z" id="path-30"></path>
        <rect id="path-31" x="229.8" y="98.4" width="25.8" height="36"></rect>
        <rect id="path-32" x="191.4" y="260.4" width="25.2" height="20.4" rx="5.7"></rect>
        <rect id="path-33" x="195.6" y="278.4" width="16.2" height="19.8"></rect>
        <path d="M0,5.6 C0,2.506 2.20396667,0 4.93333333,0 L32.0666667,0 C34.7923333,0 37,2.5144 37,5.6 L37,50.4 C37,53.494 34.7960333,56 32.0666667,56 L4.93333333,56 C2.20766667,56 0,53.4856 0,50.4 L0,5.6 Z" id="path-34"></path>
        <path d="M403.928817,235.229344 C403.608966,235.991252 402.493937,238.456994 401,239.647341 L402.424043,239.934699 L407.348643,238.951557 C408.745345,239.796626 410.347617,240.243536 411.982195,240.241493 L426.773875,240.241493 C431.734814,240.241493 435.755379,236.209921 435.755379,231.239644 L435.755038,231.239644 L435.755038,226.005612 C435.755038,221.030888 431.734131,217 426.773534,217 L411.981854,217 C407.022963,217 403.000008,221.030888 403.000008,226.005612 L403.000008,231.239644 C402.99816,232.590446 403.300957,233.924199 403.885768,235.14122 C403.899964,235.170684 403.914314,235.200059 403.928817,235.229344 Z" id="path-35"></path>
    </defs>
    <g id="切图" stroke="none" stroke-width="1" fill="none" fill-rule="evenodd">
        <g id="首页" transform="translate(-130.000000, -5280.000000)">
            <g id="Group" transform="translate(0.000000, 5011.000000)">
                <g id="Group-49" transform="translate(130.000000, 269.000000)">
                    <g id="Group-34-Copy">
                        <g id="Rectangle-78">
                            <use fill="#FFFFFF" fill-rule="evenodd" xlink:href="#path-1"></use>
                            <rect stroke="#202545" stroke-width="2.4" x="280.8" y="247.8" width="36" height="31.8"></rect>
                        </g>
                        <g id="Rectangle-85">
                            <use fill="#5CC7FF" fill-rule="evenodd" xlink:href="#path-2"></use>
                            <rect stroke="#202545" stroke-width="2.4" x="111" y="287.4" width="392.4" height="20.4"></rect>
                        </g>
                        <g id="Rectangle-86">
                            <use fill="#5CC7FF" fill-rule="evenodd" xlink:href="#path-3"></use>
                            <rect stroke="#202545" stroke-width="2.4" x="394.2" y="307.8" width="21.6" height="40.8"></rect>
                        </g>
                        <g id="Rectangle-86-Copy">
                            <use fill="#4492CB" fill-rule="evenodd" xlink:href="#path-4"></use>
                            <path stroke="#202545" stroke-width="2.4" d="M452.4,307.8 L452.4,348.6 L474,348.6 L474,307.8 L452.4,307.8 Z"></path>
                        </g>
                        <g id="Rectangle-73">
                            <use fill="#FFFFFF" fill-rule="evenodd" xlink:href="#path-5"></use>
                            <rect stroke="#68407E" stroke-width="2.4" x="97.2" y="157.2" width="18" height="8.4" rx="1.8"></rect>
                        </g>
                        <g id="Rectangle-74">
                            <use fill="#FEC967" fill-rule="evenodd" xlink:href="#path-6"></use>
                            <rect stroke="#202545" stroke-width="2.4" x="75" y="175.8" width="18" height="25.2"></rect>
                        </g>
                        <g id="Group-33" transform="translate(124.200000, 112.200000)">
                            <g id="Rectangle-69-Copy-4">
                                <use fill="#FEC967" fill-rule="evenodd" xlink:href="#path-7"></use>
                                <rect stroke="#202545" stroke-width="2.4" x="24.6" y="1.2" width="9" height="43.8" rx="4.5"></rect>
                            </g>
                            <g id="Rectangle-69-Copy-5">
                                <use fill="#FEC967" fill-rule="evenodd" xlink:href="#path-8"></use>
                                <rect stroke="#202545" stroke-width="2.4" x="33.6" y="24.6" width="7.8" height="20.4" rx="3.9"></rect>
                            </g>
                            <g id="Combined-Shape-Copy-34">
                                <use fill="#FEC967" fill-rule="evenodd" xlink:href="#path-9"></use>
                                <path stroke="#202545" stroke-width="2.4" d="M1.2,93.6 L1.2,121.2 L15,121.2 C35.5449927,121.2 52.2,104.544993 52.2,84 L52.2,57.1032078 L53.2515121,56.9720861 C55.0405936,56.7489908 56.4,55.2204568 56.4,53.4 L56.4,43.8 C56.4,41.8117749 54.7882251,40.2 52.8,40.2 L28.2,40.2 C26.2117749,40.2 24.6,41.8117749 24.6,43.8 L24.6,85.2 C24.6,89.8391919 20.8391919,93.6 16.2,93.6 L1.2,93.6 Z"></path>
                            </g>
                            <g id="Rectangle-69-Copy-6">
                                <use fill="#FEC967" fill-rule="evenodd" xlink:href="#path-10"></use>
                                <rect stroke="#202545" stroke-width="2.4" x="42" y="24.6" width="7.8" height="20.4" rx="3.9"></rect>
                            </g>
                            <g id="Rectangle-69-Copy-7">
                                <use fill="#FEC967" fill-rule="evenodd" xlink:href="#path-11"></use>
                                <rect stroke="#202545" stroke-width="2.4" x="49.8" y="24.6" width="7.8" height="20.4" rx="3.9"></rect>
                            </g>
                            <path d="M33.3469994,48.3662817 C37.1536107,48.8503404 39.6398953,50.0339024 40.8058533,51.9169676 C41.9718112,53.8000329 42.4001862,55.7066034 42.0909783,57.6366792" id="Path-5" stroke="#68407E" stroke-width="2.4" stroke-linecap="round" stroke-linejoin="round"></path>
                            <g id="Rectangle-71-Copy">
                                <use fill="#FEC967" fill-rule="evenodd" xlink:href="#path-12"></use>
                                <path stroke="#202545" stroke-width="2.4" d="M24.6,48 L41.1,48 C43.2539105,48 45,46.2539105 45,44.1 C45,41.9460895 43.2539105,40.2 41.1,40.2 L24.6,40.2 L24.6,48 Z"></path>
                            </g>
                        </g>
                        <g id="Rectangle-68-Copy">
                            <use fill="#FFFFFF" fill-rule="evenodd" xlink:href="#path-13"></use>
                            <rect stroke="#202545" stroke-width="2.4" x="88.8" y="204.6" width="37.2" height="31.2"></rect>
                        </g>
                        <g id="Rectangle-62-Copy">
                            <use fill="#4492CB" fill-rule="evenodd" xlink:href="#path-14"></use>
                            <path stroke="#202545" stroke-width="2.4" d="M198,348.879295 L199.2,348.879295 L198,350.079295 L198,348.879295 Z M42,348.879295 L198,348.879295 L198,331.2 C198,321.590245 190.209755,313.8 180.6,313.8 L63,313.8 C51.4020203,313.8 42,323.20202 42,334.8 L42,348.879295 Z"></path>
                        </g>
                        <g id="Rectangle-79">
                            <use fill="#4492CB" fill-rule="evenodd" xlink:href="#path-15"></use>
                            <path stroke="#202545" stroke-width="2.4" d="M246.074273,288.2 L348.525727,288.2 C347.93521,283.464426 343.895541,279.8 339,279.8 L255.6,279.8 C250.704459,279.8 246.66479,283.464426 246.074273,288.2 Z"></path>
                        </g>
                        <g id="Rectangle-61-Copy">
                            <use fill="#FFFFFF" fill-rule="evenodd" xlink:href="#path-16"></use>
                            <path stroke="#202545" stroke-width="2.4" d="M40.2,348 L95.1046752,348 L117.6,327.516079 L117.6,232.5 C117.6,211.12658 100.27342,193.8 78.9,193.8 C57.5265802,193.8 40.2,211.12658 40.2,232.5 L40.2,348 Z"></path>
                        </g>
                        <g id="Rectangle-59-Copy-2">
                            <use fill="#4492CB" fill-rule="evenodd" xlink:href="#path-17"></use>
                            <path stroke="#202545" stroke-width="2.4" d="M1.2,263.4 L1.2,348.6 L88.8,348.6 L88.8,282 C88.8,271.727504 80.4724963,263.4 70.2,263.4 L1.2,263.4 Z"></path>
                        </g>
                        <g id="Rectangle-59-Copy-3">
                            <use fill="#5CC7FF" fill-rule="evenodd" xlink:href="#path-18"></use>
                            <path stroke="#202545" stroke-width="2.4" d="M1.2,263.4 L1.2,348.6 L77.4,348.6 L77.4,282 C77.4,271.727504 69.0724963,263.4 58.8,263.4 L1.2,263.4 Z"></path>
                        </g>
                        <g id="Rectangle-60-Copy-2">
                            <use fill="#4492CB" fill-rule="evenodd" xlink:href="#path-19"></use>
                            <path stroke="#202545" stroke-width="2.4" d="M17.4,348.347791 L52.2,348.347791 L52.2,306.6 C52.2,303.617662 49.7823376,301.2 46.8,301.2 L22.8,301.2 C19.8176624,301.2 17.4,303.617662 17.4,306.6 L17.4,348.347791 Z"></path>
                        </g>
                        <g id="Rectangle-60-Copy-3">
                            <use fill="#5CC7FF" fill-rule="evenodd" xlink:href="#path-20"></use>
                            <path stroke="#202545" stroke-width="2.4" d="M17.4,348.347791 L46.2,348.347791 L46.2,306.6 C46.2,303.617662 43.7823376,301.2 40.8,301.2 L22.8,301.2 C19.8176624,301.2 17.4,303.617662 17.4,306.6 L17.4,348.347791 Z"></path>
                        </g>
                        <g id="Oval-25">
                            <use fill="#FFFFFF" fill-rule="evenodd" xlink:href="#path-21"></use>
                            <path stroke="#202545" stroke-width="2.4" d="M287.354532,288.6 C286.741783,280.545063 280.011876,274.2 271.8,274.2 C263.588124,274.2 256.858217,280.545063 256.245468,288.6 L287.354532,288.6 Z"></path>
                        </g>
                        <g id="Combined-Shape-Copy-35">
                            <use fill="#FEC967" fill-rule="evenodd" xlink:href="#path-22"></use>
                            <path stroke="#202545" stroke-width="2.4" d="M117.6,229.8 L86.4,229.8 L86.4,235.8 C86.4,268.274343 112.725657,294.6 145.2,294.6 L246.6,294.6 C248.919596,294.6 250.8,292.719596 250.8,290.4 C250.8,289.35132 250.415783,288.365587 249.73083,287.600297 L247.940516,285.6 L261.9,285.6 C264.716652,285.6 267,283.316652 267,280.5 C267,279.722989 266.826923,278.973023 266.49795,278.290098 L265.759209,276.756527 L267.451845,276.576079 C269.573367,276.349908 271.2,274.5517 271.2,272.4 C271.2,270.080404 269.319596,268.2 267,268.2 L155.4,268.2 C134.523636,268.2 117.6,251.276364 117.6,230.4 L117.6,229.8 Z"></path>
                        </g>
                        <g id="Combined-Shape-Copy-35">
                            <use fill="#FFFFFF" fill-rule="evenodd" xlink:href="#path-23"></use>
                            <path stroke="#202545" stroke-width="2.4" d="M133.880416,261.493468 C136.44644,263.364771 137.874352,264.411344 138.122156,264.602105 C138.137192,264.613878 138.137192,264.613878 138.119366,264.599317 C138.101197,264.587251 138.101197,264.587251 137.962957,264.438981 C137.882955,264.35261 137.882955,264.35261 137.723489,263.933634 L137.698606,263.73019 L137.838966,263.122195 L138.348042,262.620228 L138.790691,262.491707 C139.39964,262.581297 139.39964,262.581297 139.446839,262.62019 C139.509847,262.652762 139.466871,262.623964 139.491712,262.641186 C139.395761,262.574665 139.211029,262.443928 138.941075,262.251434 C138.394567,261.861739 137.502467,261.2216 136.265516,260.331542 L135.338214,259.664295 L133.880416,261.493468 Z M114.421524,285.909526 L113.764227,286.734271 L114.702654,287.48217 L115.320373,286.453373 C114.968165,286.241898 114.668382,286.060508 114.421524,285.909526 Z M86.4,229.8 L86.4,228.6 L85.2,229.8 L86.4,229.8 Z M117.6,229.8 L118.8,229.8 L117.6,228.6 L117.6,229.8 Z M117.6,229.8 L117.6,230.4 C117.6,242.635343 123.45551,253.894446 133.15691,260.965971 C133.407352,261.148523 133.648531,261.324363 133.880416,261.493468 L114.421524,285.909526 C114.244791,285.801434 114.095184,285.708928 113.972889,285.632127 C96.9494117,274.94147 86.4,256.276858 86.4,235.8 L86.4,229.8 L117.6,229.8 Z"></path>
                        </g>
                        <rect id="Rectangle-67-Copy-2" stroke="#202545" stroke-width="1.2" fill="#202545" x="234" y="276" width="31.2" height="1.2" rx="0.6"></rect>
                        <rect id="Rectangle-67-Copy-3" stroke="#202545" stroke-width="1.2" fill="#202545" x="235.2" y="285" width="28.2" height="1.2" rx="0.6"></rect>
                        <g id="Path-7">
                            <use fill="#FEC967" fill-rule="evenodd" xlink:href="#path-24"></use>
                            <path stroke="#202545" stroke-width="2.4" d="M108.188511,103.747908 L89.4988827,99.6286042 L65.893188,104.795352 L58.8005736,152.089803 C58.8503766,155.830273 62.1433591,162.430349 68.6977307,171.683235 C75.2257329,180.898895 84.1904179,185.681046 95.6553862,186.079611 C105.508704,186.079611 111.50364,185.932961 113.51965,185.650167 C115.010982,185.440971 115.867355,184.405413 116.172042,182.220928 C116.178141,179.467352 116.179188,177.163333 116.175186,175.309128 C105.107856,174.667029 98.9139489,169.932197 98.0107715,161.186061 C98.0028394,161.09378 98.0028394,161.09378 98.0012505,161.001172 C98.0012505,160.007174 98.806976,159.201383 99.8011803,159.201172 L118.687924,159.201172 L118.687924,154.760679 C118.687924,153.928884 119.257862,153.20542 120.066544,153.010697 L133.61624,149.748053 C133.732429,149.720076 133.843787,149.674899 133.946628,149.614018 C134.516928,149.276401 134.705555,148.54039 134.367939,147.97009 L108.188511,103.747908 Z"></path>
                        </g>
                        <path d="M77.1,133.2 C72.2951227,133.2 68.4,137.095123 68.4,141.9 C68.4,146.704877 72.2951227,150.6 77.1,150.6 L77.1,150.6" id="Oval-20" stroke="#202545" stroke-width="3" fill="#F88562" stroke-linecap="round" stroke-linejoin="round"></path>
                        <path d="M116.4,137.1 C116.4,129.312785 110.087215,123 102.3,123 C94.512785,123 88.2,129.312785 88.2,137.1" id="Oval-21" stroke="#202545" stroke-width="3" fill="#FFFFFF" stroke-linecap="round" stroke-linejoin="round"></path>
                        <path d="M85.8,125.013997 C90.715004,119.846832 96.1899155,117.380599 102.224734,117.615295" id="Path-8" stroke="#979797" stroke-width="0.6"></path>
                        <circle id="Oval-22" fill="#683F7D" cx="107.7" cy="134.1" r="2.7"></circle>
                        <rect id="Rectangle-72" fill="#FFA400" x="89.4" y="141" width="12.6" height="3" rx="1.5"></rect>
                        <path d="M51.812956,166.916452 C40.8091201,157.421817 36.0585808,141.349536 37.5613379,118.69961 C38.9254287,100.0522 58.9123549,85.7224177 69.6590036,85.3741392 C76.823436,85.1419536 96.2554312,85.1419536 127.954989,85.3741392 C127.652666,99.1449584 122.661493,106.636862 112.981468,107.849851 C103.270647,108.093705 94.206544,108.093705 85.7891585,107.849851 C82.8427908,108.221917 81.3284407,109.773349 81.2461084,112.504144 C81.163776,115.234939 81.163776,120.506709 81.2461084,128.319453 C70.7179099,127.617496 64.7635823,131.439997 63.3831254,139.786956 C62.6312327,148.303741 67.4140524,153.455485 77.7315844,155.242188 C78.4415098,156.72054 78.0605517,157.42377 76.5887102,157.35188 C75.1168686,157.279989 72.8069664,156.826313 69.6590036,155.990852 L69.6590036,166.916452 L51.812956,166.916452 Z" id="Path-6" stroke="#202545" stroke-width="2.4" fill="#202545"></path>
                        <g id="灯泡" transform="translate(62.400000, 0.600000)" fill-rule="nonzero">
                            <path d="M31.812766,56.9664 L16.187234,56.9664 C15.3446809,56.9664 14.6170213,57.6576 14.6170213,58.5408 C14.6170213,59.424 15.306383,60.1152 16.187234,60.1152 L31.812766,60.1152 C32.6553191,60.1152 33.3829787,59.424 33.3829787,58.5408 C33.3829787,57.6576 32.693617,56.9664 31.812766,56.9664 Z M29.4765957,61.6512 L18.5234043,61.6512 C17.6808511,61.6512 16.9531915,62.3424 16.9531915,63.2256 C16.9531915,64.1088 17.6425532,64.8 18.5234043,64.8 L29.4765957,64.8 C30.3191489,64.8 31.0468085,64.1088 31.0468085,63.2256 C31.0468085,62.3424 30.3191489,61.6512 29.4765957,61.6512 Z M24,0.5184 C11.0170213,0.5184 0.561702128,11.0016 0.561702128,24.0192 C0.561702128,32.3904 4.92765957,39.7632 11.5148936,43.9104 L11.5148936,52.2048 C11.5148936,53.9328 12.9319149,55.3536 14.6553191,55.3536 L33.4212766,55.3536 C35.1446809,55.3536 36.5617021,53.9328 36.5617021,52.2048 L36.5617021,43.9488 C43.1106383,39.8016 47.5148936,32.4288 47.5148936,24.0576 C47.4382979,11.04 36.9829787,0.5184 24,0.5184 Z M34.8765957,41.2992 C33.9574468,41.8368 33.3829787,42.8736 33.3829787,43.9488 L33.3829787,52.2432 L25.5702128,52.2432 L25.5702128,38.688 L33,31.3152 C33.5361702,30.7776 33.5361702,29.8176 33,29.2032 C32.4638298,28.6656 31.4297872,28.6656 30.893617,29.2032 L24,36.0384 L17.106383,29.2032 C16.5702128,28.6656 15.5361702,28.6656 15,29.2032 C14.4638298,29.7408 14.4638298,30.7008 15,31.3152 L22.4297872,38.688 L22.4297872,52.2432 L14.6170213,52.2432 L14.6170213,43.9488 C14.6170213,42.8352 14.0808511,41.9136 13.1234043,41.2992 C7.18723404,37.536 3.66382979,31.1232 3.66382979,24.0576 C3.66382979,12.8448 12.8170213,3.6672 24,3.6672 C35.1829787,3.6672 44.3361702,12.8448 44.3361702,24.0576 C44.3361702,31.0848 40.812766,37.536 34.8765957,41.2992 Z" id="Shape" fill="#202545"></path>
                            <path d="M44.3361702,24.0576 C44.3361702,12.8448 35.1829787,3.6672 24,3.6672 C12.8170213,3.6672 3.66382979,12.8448 3.66382979,24.0576 C3.66382979,31.1232 7.18723404,37.536 13.1234043,41.2992 C14.0425532,41.9136 14.6170213,42.8736 14.6170213,43.9488 L14.6170213,52.2432 L22.4297872,52.2432 L22.4297872,38.688 L15,31.3152 C14.4638298,30.7008 14.4638298,29.7408 15,29.2032 C15.5361702,28.6656 16.5702128,28.6656 17.106383,29.2032 L24,36.0384 L30.893617,29.2032 C31.4297872,28.6656 32.4638298,28.6656 33,29.2032 C33.5361702,29.8176 33.5361702,30.7776 33,31.3152 L25.5702128,38.688 L25.5702128,52.2432 L33.3829787,52.2432 L33.3829787,43.9488 C33.3829787,42.8352 33.9191489,41.8368 34.8765957,41.2992 C40.812766,37.536 44.3361702,31.0848 44.3361702,24.0576 L44.3361702,24.0576 Z M17.4510638,11.7696 C13.8510638,14.1888 11.2468085,17.8368 10.0212766,21.9456 C9.79148936,22.7904 9.02553191,23.328 8.18297872,23.328 C7.99148936,23.328 7.83829787,23.2896 7.64680851,23.2512 C6.61276596,22.944 6.03829787,21.9072 6.34468085,20.8704 C7.8,15.8784 10.9787234,11.5008 15.306383,8.5824 C16.187234,8.0064 17.3744681,8.2368 17.9489362,9.0816 C18.5617021,10.0032 18.3319149,11.1936 17.4510638,11.7696 L17.4510638,11.7696 Z" id="Shape" fill="#FEC967"></path>
                        </g>
                        <path d="M51.9799709,22.2 L23.7702128,22.2 C22.9276596,22.2 22.2,22.8912 22.2,23.7744 C22.2,24.6576 22.8893617,25.3488 23.7702128,25.3488 L51.9799709,25.3488 C52.8225241,25.3488 53.5501837,24.6576 53.5501837,23.7744 C53.5501837,22.8912 52.860822,22.2 51.9799709,22.2 Z" id="Path" fill="#FEC346"></path>
                        <path d="M140.480314,22.2 L117.669686,22.2 C116.988391,22.2 116.4,22.8912 116.4,23.7744 C116.4,24.6576 116.957423,25.3488 117.669686,25.3488 L140.480314,25.3488 C141.161609,25.3488 141.75,24.6576 141.75,23.7744 C141.75,22.8912 141.192577,22.2 140.480314,22.2 Z" id="Path-Copy-2" fill="#FEC346"></path>
                        <polyline id="Path-9" stroke="#386A9B" stroke-width="2.4" stroke-linecap="round" stroke-linejoin="round" points="42 118.467757 48.7468687 112.2 55.4168119 118.467757 62.3961294 112.2 69.4189266 118.467757 76.3071041 112.2"></polyline>
                        <rect id="Rectangle-75" fill="#386A9B" x="102" y="88.8" width="20.4" height="3" rx="1.5"></rect>
                        <path d="M52.7200868,2.12137212 L38.142881,2.12137212 C37.7074972,2.12137212 37.3314839,2.81257212 37.3314839,3.69577212 C37.3314839,4.57897212 37.687707,5.27017212 38.142881,5.27017212 L52.7200868,5.27017212 C53.1554706,5.27017212 53.5314839,4.57897212 53.5314839,3.69577212 C53.5314839,2.81257212 53.1752608,2.12137212 52.7200868,2.12137212 Z" id="Path" fill="#FEC346" transform="translate(45.431484, 3.695772) rotate(-345.000000) translate(-45.431484, -3.695772) "></path>
                        <g id="Rectangle-76">
                            <use fill="#FFFFFF" fill-rule="evenodd" xlink:href="#path-25"></use>
                            <rect stroke="#202545" stroke-width="2.4" x="202.2" y="136.2" width="192.6" height="115.2" rx="10.2"></rect>
                        </g>
                        <g id="Rectangle-77">
                            <use fill="#345F8D" fill-rule="evenodd" xlink:href="#path-26"></use>
                            <rect stroke="#202545" stroke-width="2.4" x="212.4" y="145.8" width="171.6" height="87.6" rx="3"></rect>
                        </g>
                        <rect id="Rectangle-91" fill="#FFFFFF" x="234" y="155.4" width="126.6" height="69.6"></rect>
                        <text id="SVNBuckets" font-family="HiraKakuStd-W8, Hiragino Kaku Gothic Std" font-size="11.4" font-weight="600" fill="#0CBABA">
                            <tspan x="255.6" y="178">SVNBuckets</tspan>
                        </text>
                        <rect id="Rectangle-92" fill="#0CBABA" x="249" y="187.2" width="95.4" height="2.4"></rect>
                        <rect id="Rectangle-92-Copy" fill="#0CBABA" x="249" y="193.8" width="69" height="2.4"></rect>
                        <rect id="Rectangle-92-Copy-2" fill="#0CBABA" x="249" y="200.4" width="95.4" height="2.4"></rect>
                        <rect id="Rectangle-92-Copy-3" fill="#0CBABA" x="249" y="207" width="49.2" height="2.4"></rect>
                        <rect id="Rectangle-92-Copy-4" fill="#0CBABA" x="316.2" y="207" width="28.2" height="2.4"></rect>
                        <circle id="Oval-23" fill="#345F8D" cx="299.1" cy="242.7" r="3.9"></circle>
                        <path d="M52.3988999,45.0890704 L34.0424184,45.0890704 C33.4941573,45.0890704 33.0206591,45.7802704 33.0206591,46.6634704 C33.0206591,47.5466704 33.4692364,48.2378704 34.0424184,48.2378704 L52.3988999,48.2378704 C52.9471609,48.2378704 53.4206591,47.5466704 53.4206591,46.6634704 C53.4206591,45.7802704 52.9720819,45.0890704 52.3988999,45.0890704 Z" id="Path-Copy" fill="#FEC346" transform="translate(43.220659, 46.663470) rotate(-30.000000) translate(-43.220659, -46.663470) "></path>
                        <path d="M134.749159,42.0890704 L119.09216,42.0890704 C118.624525,42.0890704 118.220659,42.7802704 118.220659,43.6634704 C118.220659,44.5466704 118.603269,45.2378704 119.09216,45.2378704 L134.749159,45.2378704 C135.216793,45.2378704 135.620659,44.5466704 135.620659,43.6634704 C135.620659,42.7802704 135.238049,42.0890704 134.749159,42.0890704 Z" id="Path-Copy-3" fill="#FEC346" transform="translate(126.920659, 43.663470) scale(-1, 1) rotate(-30.000000) translate(-126.920659, -43.663470) "></path>
                        <g id="Rectangle-81">
                            <use fill="#FFFFFF" fill-rule="evenodd" xlink:href="#path-27"></use>
                            <rect stroke="#202545" stroke-width="2.4" x="474.2" y="249.2" width="25.8" height="22.2" rx="11.1"></rect>
                        </g>
                        <g id="Rectangle-80">
                            <use fill="#FFFFFF" fill-rule="evenodd" xlink:href="#path-28"></use>
                            <path stroke="#202545" stroke-width="2" d="M450.2,241 C450.089543,241 450,241.089543 450,241.2 L450,275.6 C450,281.343761 454.656239,286 460.4,286 L474.6,286 C480.343761,286 485,281.343761 485,275.6 L485,241.2 C485,241.089543 484.910457,241 484.8,241 L450.2,241 Z"></path>
                        </g>
                        <g id="Combined-Shape">
                            <use fill="#FFFFFF" fill-rule="evenodd" xlink:href="#path-29"></use>
                            <path stroke="#202545" stroke-width="2.4" d="M262.536787,155.627014 L263.710645,145.904934 L264.299097,145.61899 C277.221347,139.339738 285.6,126.223719 285.6,111.6 C285.6,90.7236365 268.676364,73.8 247.8,73.8 C226.923636,73.8 210,90.7236365 210,111.6 C210,132.476364 226.923636,149.4 247.8,149.4 C250.396246,149.4 252.958048,149.138436 255.458779,148.623917 L256.13397,148.484999 L262.536787,155.627014 Z"></path>
                        </g>
                        <g id="Combined-Shape-Copy-36" transform="translate(368.181876, 115.199777) scale(-1, 1) translate(-368.181876, -115.199777) ">
                            <use fill="#FFFFFF" fill-rule="evenodd" xlink:href="#path-30"></use>
                            <path stroke="#202545" stroke-width="2.4" d="M387.394493,167.627014 L388.973429,154.550014 L389.561882,154.26407 C406.306516,146.127424 417.163752,129.131407 417.163752,110.181876 C417.163752,83.1299329 395.233819,61.2 368.181876,61.2 C341.129933,61.2 319.2,83.1299329 319.2,110.181876 C319.2,137.233819 341.129933,159.163752 368.181876,159.163752 C371.54583,159.163752 374.865369,158.824822 378.105877,158.158096 L378.781068,158.019178 L387.394493,167.627014 Z"></path>
                        </g>
                        <rect id="Rectangle-84" fill="#4492CB" x="238.8" y="90" width="24" height="36"></rect>
                        <g id="Rectangle-82">
                            <use fill="#FFFFFF" fill-rule="evenodd" xlink:href="#path-31"></use>
                            <rect stroke="#202545" stroke-width="2.4" x="231" y="99.6" width="23.4" height="33.6"></rect>
                        </g>
                        <rect id="Rectangle-83" fill="#4492CB" x="235.2" y="106.2" width="13.8" height="3"></rect>
                        <rect id="Rectangle-83-Copy" fill="#4492CB" x="235.2" y="114" width="13.8" height="3"></rect>
                        <rect id="Rectangle-83-Copy-2" fill="#4492CB" x="235.2" y="121.8" width="13.8" height="3"></rect>
                        <g id="Rectangle-87">
                            <use fill="#4492CB" fill-rule="evenodd" xlink:href="#path-32"></use>
                            <rect stroke="#202545" stroke-width="2.4" x="192.6" y="261.6" width="22.8" height="18" rx="5.7"></rect>
                        </g>
                        <rect id="Rectangle-88" fill="#84D8FF" x="197.4" y="266.4" width="13.2" height="3" rx="1.5"></rect>
                        <g id="Rectangle-89">
                            <use fill="#4492CB" fill-rule="evenodd" xlink:href="#path-33"></use>
                            <rect stroke="#202545" stroke-width="2.4" x="196.8" y="279.6" width="13.8" height="17.4"></rect>
                        </g>
                        <path d="M451,256 L484,256 L484,276 L484,276 C484,280.970563 479.970563,285 475,285 L460,285 L460,285 C455.029437,285 451,280.970563 451,276 L451,256 Z" id="Rectangle-90" fill="#FAA064"></path>
                        <path d="M390.871375,117.038278 L387.998323,117.038278 C387.587886,118.680022 386.767014,120.321767 385.946142,121.758293 L388.613977,124.426127 C390.255721,126.067872 390.255721,128.940924 388.613977,130.582668 L387.17745,132.019195 C385.535706,133.660939 382.662653,133.660939 381.020909,132.019195 L378.353075,129.35136 C376.916549,130.172232 375.274804,130.787886 373.63306,131.403541 L373.63306,134.276593 C373.63306,136.739209 371.786098,138.586172 369.323481,138.586172 L367.066083,138.586172 C364.603466,138.586172 362.756504,136.739209 362.756504,134.276593 L362.756504,131.403541 C361.11476,130.993104 359.473015,130.37745 358.036489,129.35136 L355.573873,132.019195 C353.932128,133.660939 351.059076,133.660939 349.417332,132.019195 L347.980805,130.582668 C346.339061,128.940924 346.339061,126.067872 347.980805,124.426127 L350.64864,121.758293 C349.827768,120.321767 349.212114,118.680022 348.596459,117.038278 L345.723407,117.038278 C343.260791,117.038278 341.413828,115.191316 341.413828,112.728699 L341.413828,110.471301 C341.413828,108.008684 343.260791,106.161722 345.723407,106.161722 L348.596459,106.161722 C349.006896,104.519978 349.62255,102.878233 350.443422,101.441707 L347.980805,98.9790907 C346.339061,97.3373464 346.339061,94.4642939 347.980805,92.8225497 L349.417332,91.3860234 C351.059076,89.7442791 353.932128,89.7442791 355.573873,91.3860234 L358.036489,93.8486398 C359.473015,93.0277676 361.11476,92.2068955 362.961722,91.7964595 L362.961722,88.9234069 C362.961722,86.4607905 364.808684,84.6138282 367.271301,84.6138282 L369.528699,84.6138282 C371.991316,84.6138282 373.838278,86.4607905 373.838278,88.9234069 L373.838278,91.7964595 C375.480022,92.2068956 377.326985,93.0277677 378.763511,93.8486398 L381.226127,91.3860234 C382.867872,89.7442791 385.740924,89.7442791 387.382668,91.3860234 L388.819195,92.8225497 C390.460939,94.464294 390.460939,97.3373465 388.819195,98.9790907 L386.356578,101.441707 C387.17745,102.878233 387.793104,104.519978 388.203541,106.161722 L391.076593,106.161722 C393.539209,106.161722 395.386172,108.008684 395.386172,110.471301 L395.386172,112.728699 C395.180954,114.986098 393.128773,117.038278 390.871375,117.038278 Z M368.297391,99.7999629 C361.730414,99.7999629 356.394745,105.135632 356.394745,111.702609 C356.394745,118.269586 361.730414,123.605255 368.297391,123.605255 C374.864368,123.605255 380.200037,118.269586 380.200037,111.702609 C380.200037,105.135632 374.864368,99.7999629 368.297391,99.7999629 L368.297391,99.7999629 Z M368.297391,116.83306 C365.21912,116.83306 362.961722,114.370444 362.961722,111.497391 C362.961722,108.624338 365.424338,106.161722 368.297391,106.161722 C371.375661,106.161722 373.63306,108.624338 373.63306,111.497391 C373.63306,114.575661 371.375662,116.83306 368.297391,116.83306 L368.297391,116.83306 Z" id="Shape" fill="#4492CB" fill-rule="nonzero"></path>
                        <g id="手机-(3)" transform="translate(375.000000, 231.000000)">
                            <g id="Shape" fill-rule="nonzero">
                                <use fill="#FFFFFF" fill-rule="evenodd" xlink:href="#path-34"></use>
                                <path stroke="#202545" stroke-width="2.00597015" d="M1.00298507,5.6 L1.00298507,50.4 C1.00298507,52.9610655 2.79470288,54.9970149 4.93333333,54.9970149 L32.0666667,54.9970149 C34.2104031,54.9970149 35.9970149,52.9679177 35.9970149,50.4 L35.9970149,5.6 C35.9970149,3.03893452 34.2052971,1.00298507 32.0666667,1.00298507 L4.93333333,1.00298507 C2.78959695,1.00298507 1.00298507,3.03208233 1.00298507,5.6 Z"></path>
                            </g>
                            <path d="M2.52272759,5.29353234 L2.52272759,49.8706468 C2.52272759,51.4169154 3.62147232,52.6567164 4.97708243,52.6567164 L32.0229176,52.6567164 C33.3792978,52.6551785 34.4779516,51.4080377 34.4772724,49.8706468 L34.4772724,5.29353234 C34.4772724,3.74726368 33.3785277,2.50746269 32.0229176,2.50746269 L4.97708243,2.50746269 C3.62070216,2.50900065 2.52204838,3.75614141 2.52272759,5.29353234 Z" id="Path" fill="#FFFFFF"></path>
                            <path d="M5.04545455,8.78552239 C5.04545455,6.70370149 6.13404959,5.01492537 7.48072727,5.01492537 L29.5204959,5.01492537 C30.8647273,5.01492537 31.9545455,6.7018209 31.9545455,8.78552239 L31.9545455,46.3786567 C31.9545455,48.4604776 30.8659504,50.1492537 29.5192727,50.1492537 L7.47950413,50.1492537 C6.13527273,50.1492537 5.04545455,48.4623582 5.04545455,46.3786567 L5.04545455,8.78552239 Z" id="Path" fill="#345F8D"></path>
                        </g>
                        <g id="Combined-Shape" fill-rule="nonzero">
                            <use fill="#FFFFFF" fill-rule="evenodd" xlink:href="#path-35"></use>
                            <path stroke="#202545" stroke-width="2.4" d="M403.589342,238.47838 L407.570934,237.683499 L407.969843,237.924858 C409.17978,238.656926 410.566845,239.043261 411.982195,239.041493 L426.773875,239.041493 C431.046199,239.041493 434.5155,235.588315 434.555038,231.313481 L434.555038,226.005612 C434.555038,221.693208 431.070965,218.2 426.773534,218.2 L411.981854,218.2 C407.685426,218.2 404.200008,221.693913 404.200008,226.005612 L404.200007,231.241286 C404.198406,232.411622 404.460742,233.567155 404.96683,234.62035 C404.985369,234.65865 404.985369,234.65865 405.004174,234.696796 L405.247537,235.188211 L405.035273,235.693837 C404.624699,236.671854 404.143776,237.628551 403.589342,238.47838 Z"></path>
                        </g>
                        <path d="M411.96035,226.123977 C410.584203,226.123977 409.468616,227.242048 409.468616,228.62126 C409.468616,230.000471 410.584203,231.118543 411.96035,231.118543 C413.336285,231.118732 414.452012,230.001285 414.452766,228.622286 C414.452766,227.242642 413.336928,226.124166 411.96035,226.123977 L411.96035,226.123977 Z" id="Path" fill="#4492CB"></path>
                        <path d="M420.298099,226.123977 C419.637069,226.124068 419.003149,226.387332 418.535795,226.855856 C418.06844,227.32438 417.805934,227.959784 417.806024,228.622286 C417.80659,230.00123 418.922219,231.118732 420.298099,231.118543 C421.674696,231.118543 422.791539,230.000923 422.791539,228.622286 C422.791449,227.959602 422.528697,227.324097 422.061086,226.855573 C421.593475,226.387049 420.95931,226.123886 420.298099,226.123977 L420.298099,226.123977 Z" id="Path" fill="#4492CB"></path>
                        <path d="M428.634483,226.123977 C427.258337,226.123977 426.14275,227.242048 426.14275,228.62126 C426.14275,230.000471 427.258337,231.118543 428.634483,231.118543 C430.010629,231.118543 431.126216,230.000471 431.126216,228.62126 C431.126216,227.242048 430.010629,226.123977 428.634483,226.123977 Z" id="Path" fill="#4492CB"></path>
                        <text id="SVN" font-family="HiraKakuStd-W8, Hiragino Kaku Gothic Std" font-size="8" font-weight="600" fill="#0CBABA">
                            <tspan x="384" y="253">SVN</tspan>
                        </text>
                    </g>
                </g>
            </g>
        </g>
    </g>
</svg>