<?xml version="1.0" encoding="UTF-8"?>
<svg width="50px" height="50px" viewBox="0 0 50 50" version="1.1" xmlns="http://www.w3.org/2000/svg" xmlns:xlink="http://www.w3.org/1999/xlink">
    <!-- Generator: Sketch 46.1 (44463) - http://www.bohemiancoding.com/sketch -->
    <title>小米</title>
    <desc>Created with Sketch.</desc>
    <defs></defs>
    <g id="Page-1" stroke="none" stroke-width="1" fill="none" fill-rule="evenodd">
        <g id="账号设置-账号绑定" transform="translate(-475.000000, -160.000000)">
            <g id="Group-54" transform="translate(475.000000, 160.000000)">
                <rect id="Rectangle-16" x="0" y="0" width="50" height="50"></rect>
                <path d="M33.8631773,37.7091475 L33.8631773,19.4942505 C33.8631773,15.3555817 30.5072549,12 26.3667872,12 L5.29411223,12 C5.13161928,12 5,12.1308098 5,12.2915907 L5,37.7089998 C5,37.8697808 5.13161928,38 5.29411223,38 L10.9228676,38 C11.0853605,38 11.216832,37.8690425 11.216832,37.7073758 L11.216832,17.7576986 C11.216832,17.5957366 11.3484513,17.4643363 11.5109443,17.4643363 L23.6150432,17.4643363 C25.8880239,17.4643363 27.7312847,19.3057132 27.7312847,21.5777585 L27.7312847,37.7067853 C27.7312847,37.8685997 27.8627563,37.9992618 28.0243628,37.9992618 L33.5702468,37.9992618 C33.7315579,37.9992618 33.8633249,37.8687473 33.8633249,37.7082617 L33.8631773,37.7091475 Z M22.4965009,37.7072282 C22.4965009,37.8691902 22.3662111,38 22.2035704,38 L16.5761446,38 C16.4136516,38 16.2820323,37.8690425 16.2820323,37.7072282 L16.2820323,22.419902 C16.2820323,22.2580876 16.4136516,22.1266873 16.5761446,22.1266873 L22.2035704,22.1266873 C22.3662111,22.1266873 22.4965009,22.2580876 22.4965009,22.419902 L22.4965009,37.7079664 L22.4965009,37.7072282 Z M45,37.7072282 C45,37.8691902 44.868233,38 44.7057401,38 L39.0796437,38 C38.9167076,38 38.784202,37.8690425 38.784202,37.7072282 L38.784202,12.2942483 C38.784202,12.1316957 38.9167076,12.000443 39.0796437,12.000443 L44.7057401,12.000443 C44.8683807,12.000443 45,12.1316957 45,12.2942483 L45,37.7072282 Z" id="Shape" fill="#FF6709" fill-rule="nonzero"></path>
            </g>
        </g>
    </g>
</svg>